<svg width="26" height="26" viewBox="0 0 26 26" fill="none" xmlns="http://www.w3.org/2000/svg">
<g id="basket">
<path id="Union" fill-rule="evenodd" clip-rule="evenodd" d="M6.39848 7.6586L11.0059 3.24315C12.1201 2.17538 13.8779 2.17538 14.9921 3.24315L19.5995 7.6586H22.266C22.9034 7.6586 23.3931 8.22317 23.3029 8.85421L21.7642 19.6252C21.5431 21.1733 20.2172 22.3232 18.6534 22.3232H7.34461C5.78078 22.3232 4.45493 21.1733 4.23377 19.6252L2.69505 8.85421C2.6049 8.22317 3.09456 7.6586 3.732 7.6586H6.39848ZM12.093 4.37755C12.5995 3.8922 13.3985 3.8922 13.9049 4.37755L17.3286 7.6586H8.66933L12.093 4.37755ZM4.33587 9.22981L5.78919 19.403C5.89977 20.1771 6.5627 20.752 7.34461 20.752H18.6534C19.4353 20.752 20.0982 20.1771 20.2088 19.403L21.6621 9.22981H4.33587Z" fill="black"/>
<path id="Vector 606 (Stroke)" fill-rule="evenodd" clip-rule="evenodd" d="M8.80904 12.1104C9.24292 12.1104 9.59465 12.4621 9.59465 12.896V17.0859C9.59465 17.5197 9.24292 17.8715 8.80904 17.8715C8.37517 17.8715 8.02344 17.5197 8.02344 17.0859V12.896C8.02344 12.4621 8.37517 12.1104 8.80904 12.1104Z" fill="black"/>
<path id="Vector 607 (Stroke)" fill-rule="evenodd" clip-rule="evenodd" d="M12.999 12.1104C13.4329 12.1104 13.7846 12.4621 13.7846 12.896V17.0859C13.7846 17.5197 13.4329 17.8715 12.999 17.8715C12.5651 17.8715 12.2134 17.5197 12.2134 17.0859V12.896C12.2134 12.4621 12.5651 12.1104 12.999 12.1104Z" fill="black"/>
<path id="Vector 608 (Stroke)" fill-rule="evenodd" clip-rule="evenodd" d="M17.1889 12.1104C17.6228 12.1104 17.9745 12.4621 17.9745 12.896V17.0859C17.9745 17.5197 17.6228 17.8715 17.1889 17.8715C16.755 17.8715 16.4033 17.5197 16.4033 17.0859V12.896C16.4033 12.4621 16.755 12.1104 17.1889 12.1104Z" fill="black"/>
</g>
</svg>
