<svg width="134" height="51" viewBox="0 0 134 51" fill="none" xmlns="http://www.w3.org/2000/svg">
<g id="Group 11">
<path id="Vector" d="M61.9381 47.0532C64.1328 46.2238 66.3771 45.5323 68.6581 44.9828C68.2706 46.0742 67.8702 47.163 67.4569 48.2493L60.136 50.7949C60.7697 49.4823 61.3795 48.2169 61.9381 47.0532Z" fill="#FFE761"/>
<path id="Vector_2" d="M59.4992 52.18C61.9887 51.3141 64.4777 50.4475 66.966 49.5804C66.499 50.767 65.9881 51.9369 65.4913 53.1106C63.0038 54.1934 60.4726 55.1446 57.899 56.0014C58.4541 54.7333 58.9776 53.4575 59.4992 52.18Z" fill="#FFE761"/>
<path id="Vector_3" d="M65.2199 40.2799C65.3709 40.4365 65.5363 40.5756 65.6874 40.7286C65.4224 40.814 65.1396 40.9096 64.8674 41.0019L65.2199 40.2799Z" fill="#FFE761"/>
<path id="Vector_4" d="M64.1937 42.3774C64.853 42.1584 65.5146 41.9382 66.1786 41.7169C66.2928 41.6732 66.3876 41.5903 66.4463 41.4831C67.189 42.2532 67.8957 43.0544 68.6044 43.8504C66.5727 44.3406 64.5698 44.9435 62.6051 45.6563C63.1888 44.4683 63.727 43.3519 64.1937 42.3774Z" fill="#FFE761"/>
<path id="Vector_5" d="M77.9394 44.4916C80.2774 47.2594 82.4076 50.1963 84.3124 53.2784C84.3907 53.4167 84.5037 53.5323 84.6402 53.6137C84.7768 53.6951 84.9321 53.7395 85.0911 53.7425C85.25 53.7456 85.407 53.7072 85.5466 53.6311C85.6861 53.555 85.8035 53.4439 85.887 53.3087C90.3857 45.6257 91.9492 35.8283 93.7509 27.2321C94.9855 21.3392 96.0822 15.4197 97.0408 9.47347C102.021 15.2208 106.964 21.0701 111.365 27.2613C112.338 28.6295 113.818 30.3517 114.186 32.0874C109.117 43.5043 93.2504 76.3234 87.461 83.4278C87.2747 83.3679 87.0528 83.127 86.5388 82.6121C85.0402 81.1194 83.9066 79.1913 82.8059 77.3982C81.0114 74.4753 79.3656 71.4472 77.8426 68.3735C77.5493 67.7813 76.5726 67.73 76.2662 68.345C73.5088 73.8832 69.6014 79.0789 65.4618 84.0157L56.7386 74.9707C62.789 63.9994 68.2849 52.6008 71.9654 40.7062L77.9394 44.4916ZM96.7836 58.799C94.1966 64.188 91.2514 69.3976 87.9677 74.3927C87.3225 75.3621 88.8863 76.285 89.5296 75.3173C92.8133 70.3222 95.7586 65.1126 98.3456 59.7236C98.8418 58.679 97.2906 57.7475 96.7836 58.799V58.799ZM98.1131 55.2803L98.2711 55.4441C99.0797 56.2825 100.382 55.0262 99.5737 54.1878L99.4158 54.024C98.6072 53.1855 97.3098 54.4402 98.1167 55.2769L98.1131 55.2803Z" fill="#FFE761"/>
<path id="Vector_6" d="M88.5773 9.81155C89.3529 10.7166 90.1159 11.6338 90.8861 12.544L87.9396 13.6875C88.1551 12.3962 88.3677 11.1042 88.5773 9.81155Z" fill="#FFE761"/>
<path id="Vector_7" d="M83.1244 43.714C82.5755 43.9621 81.6924 44.206 81.0276 44.6006C81.4315 43.2873 81.7809 41.9536 82.1515 40.6273C84.853 39.3451 87.4775 37.9218 90.0371 36.3771C89.6668 38.0145 89.2549 39.6399 88.8014 41.2534C88.7166 41.2483 88.6359 41.2186 88.5414 41.2611L83.1244 43.714Z" fill="#FFE761"/>
<path id="Vector_8" d="M66.0517 38.5714L66.6631 37.3219L70.3892 39.6912C70.1298 40.5457 69.8756 41.402 69.595 42.2526C68.4571 40.9839 67.276 39.7568 66.0517 38.5714Z" fill="#FFE761"/>
<path id="Vector_9" d="M81.4509 45.6336C81.7854 45.5123 82.7923 45.0692 83.049 44.9536L84.8546 44.136L88.4498 42.5093C88.0284 43.9159 87.5591 45.2946 87.0419 46.6453C86.9696 46.5774 86.8771 46.5349 86.7784 46.5242C86.6797 46.5135 86.5803 46.5351 86.495 46.5859C85.3952 47.2126 84.2226 47.702 83.0036 48.043C82.4709 47.2926 81.8882 46.5731 81.3251 45.8417C81.3542 45.7962 81.4025 45.767 81.4228 45.7197L81.4509 45.6336Z" fill="#FFE761"/>
<path id="Vector_10" d="M87.7821 14.6729C87.8549 14.7206 87.9381 14.7501 88.0246 14.7591C88.1112 14.768 88.1987 14.7561 88.2797 14.7243C89.4001 14.2897 90.5188 13.8556 91.6357 13.4221C92.1341 14.0145 92.638 14.5982 93.1328 15.1906C91.1545 15.8422 89.2147 16.6057 87.3229 17.4772C87.4812 16.5467 87.6218 15.6158 87.7821 14.6729Z" fill="#FFE761"/>
<path id="Vector_11" d="M85.0188 51.076C84.5683 50.3749 84.1143 49.6772 83.637 48.9879C84.6521 48.6795 85.6347 48.2728 86.5707 47.7735C86.1011 48.907 85.5838 50.0079 85.0188 51.076Z" fill="#FFE761"/>
<path id="Vector_12" d="M97.1228 6.8002C97.0378 6.69441 96.9261 6.61308 96.7994 6.56451C96.6726 6.51593 96.5352 6.50186 96.4012 6.52371C96.7462 5.82636 97.0937 5.28285 97.3397 5.27139C98.0143 5.21467 115.779 28.1686 115.779 28.1686C115.804 28.2486 115.623 28.7527 115.272 29.602C114.35 27.9871 113.001 26.4476 112.133 25.2669C107.455 18.8674 102.32 12.7795 97.1228 6.8002Z" fill="#FFE761"/>
<path id="Vector_13" d="M84.2258 24.1001C82.9281 30.6442 81.3874 37.1343 79.4655 43.4885L79.4048 43.4256C80.342 39.5073 82.7097 29.6219 84.8883 20.6135C84.6827 21.7147 84.479 22.8141 84.2556 23.9185C84.2321 23.976 84.2219 24.0381 84.2258 24.1001Z" fill="#FFE761"/>
<path id="Vector_14" d="M88.6563 7.10998C88.548 6.98878 88.4041 6.90508 88.2452 6.87094C88.8016 4.65353 89.1702 3.23531 89.238 3.10395C89.6151 2.39304 94.8981 9.77232 95.1573 9.8106C94.926 11.1912 94.6906 12.5759 94.4509 13.9646C92.5301 11.6741 90.6201 9.36952 88.6563 7.10998Z" fill="#FFE761"/>
<path id="Vector_15" d="M84.9324 29.4996C84.9993 29.4806 85.0599 29.444 85.1078 29.3935C85.1557 29.3431 85.1891 29.2806 85.2045 29.2128C87.5388 28.1979 89.8612 27.1528 92.1581 26.0559C91.8983 27.3205 91.6397 28.6152 91.3808 29.9311C88.9588 31.2968 86.4862 32.5631 83.963 33.7302C84.2997 32.3196 84.6228 30.9094 84.9324 29.4996Z" fill="#FFE761"/>
<path id="Vector_16" d="M85.2837 27.9697C85.5562 26.6858 85.7971 25.3908 86.0502 24.1049C88.47 22.989 90.8608 21.8154 93.2225 20.5842C92.9476 21.9988 92.6815 23.4189 92.3925 24.8297C92.3165 24.8301 92.2463 24.8005 92.1625 24.8397C89.8905 25.9299 87.5913 26.9596 85.2837 27.9697Z" fill="#FFE761"/>
<path id="Vector_17" d="M83.6772 34.9678C83.7602 34.9711 83.841 35.0008 83.9336 34.9601C86.3723 33.8445 88.7545 32.6237 91.1009 31.3261C90.8613 32.5181 90.6127 33.7163 90.3552 34.9208C87.829 36.4785 85.226 37.8845 82.5577 39.1868C82.9385 37.7812 83.328 36.381 83.6772 34.9678Z" fill="#FFE761"/>
<path id="Vector_18" d="M86.3132 22.7573C86.5846 21.3426 86.8683 19.9299 87.1168 18.5095C87.1899 18.5583 87.2746 18.587 87.3623 18.5926C87.4501 18.5982 87.5378 18.5806 87.6165 18.5416C89.6512 17.5931 91.7439 16.7742 93.882 16.0899L94.0551 16.2946C93.8726 17.2901 93.6691 18.2782 93.4831 19.2772C93.4511 19.2872 93.4214 19.2672 93.3874 19.2861C91.0669 20.5169 88.6935 21.6424 86.3132 22.7573Z" fill="#FFE761"/>
<path id="Vector_19" d="M87.7821 14.6729C87.8393 14.3434 87.8913 14.012 87.945 13.6823L90.8915 12.5389L91.6357 13.4222C90.5176 13.8568 89.3989 14.2909 88.2797 14.7244C88.1986 14.7562 88.1112 14.7681 88.0246 14.7591C87.938 14.7502 87.8549 14.7206 87.7821 14.6729V14.6729Z" fill="#1A1A1A"/>
<path id="Vector_20" d="M87.1203 18.5131C87.1831 18.1678 87.2564 17.8261 87.3175 17.4825C89.2093 16.6109 91.1491 15.8475 93.1274 15.1958C93.3765 15.4974 93.6364 15.792 93.8855 16.0935C91.7474 16.7778 89.6547 17.5967 87.62 18.5451C87.5412 18.5842 87.4535 18.6018 87.3658 18.5962C87.2781 18.5906 87.1934 18.5619 87.1203 18.5131Z" fill="#1A1A1A"/>
<path id="Vector_21" d="M64.1937 42.3774L64.1617 42.3875C63.7701 42.5594 63.3635 42.6946 62.947 42.7915C63.0855 42.3662 63.21 41.9336 63.3433 41.5064C63.4393 41.4728 63.5212 41.4424 63.5461 41.4358L64.2575 41.1977L64.8622 40.9965C65.1289 40.9129 65.41 40.8155 65.6822 40.7232C65.932 40.9823 66.1982 41.2222 66.4463 41.483C66.3876 41.5903 66.2928 41.6732 66.1786 41.7169C65.5181 41.9394 64.8565 42.1596 64.1937 42.3774Z" fill="#1A1A1A"/>
<path id="Vector_22" d="M65.4618 84.0157C69.5942 79.0858 73.5088 73.8832 76.2662 68.345C76.5726 67.73 77.5492 67.7813 77.8426 68.3735C79.3656 71.4471 81.0114 74.4752 82.8059 77.3982C83.9066 79.1913 85.0402 81.1193 86.5388 82.6121C87.0458 83.1198 87.2711 83.3714 87.461 83.4278C87.7001 83.5029 87.8707 83.2585 88.4665 82.7672C90.5664 81.0268 92.0447 77.4966 93.3876 75.1874C95.4842 71.5818 97.4778 67.9054 99.4131 64.2262C103.534 56.4074 107.505 48.4904 111.2 40.4712C112.188 38.3306 114.038 35.5532 114.32 33.177C114.335 32.8096 114.291 32.4422 114.188 32.0891C113.823 30.3571 112.339 28.6313 111.367 27.2631C106.962 21.0683 102.019 15.219 97.0425 9.47526C96.0886 15.4215 94.9919 21.3411 93.7526 27.2339C91.9618 35.8197 90.3875 45.6275 85.8887 53.3105C85.8052 53.4457 85.6879 53.5568 85.5483 53.6329C85.4087 53.709 85.2517 53.7474 85.0928 53.7443C84.9339 53.7413 84.7785 53.6969 84.6419 53.6155C84.5054 53.5341 84.3924 53.4185 84.3141 53.2802C82.4093 50.1981 80.2791 47.2612 77.9411 44.4934C76.2609 42.5063 74.4581 40.6262 72.5433 38.864C72.3624 39.4794 72.164 40.0875 71.9761 40.6993C68.2815 52.5972 62.7907 64.0012 56.7494 74.9638L55.441 73.6071C55.9547 72.6706 56.4526 71.7286 56.9594 70.7884L57.6106 70.5562C57.7174 70.5191 57.8104 70.4504 57.8774 70.3594C57.9445 70.2683 57.9824 70.1591 57.9861 70.0461C57.9899 69.9331 57.9594 69.8216 57.8986 69.7263C57.8377 69.631 57.7495 69.5563 57.6454 69.5121C58.3153 68.2513 58.9641 66.9832 59.6112 65.7132L60.2483 65.4772C60.3576 65.44 60.4526 65.3698 60.5202 65.2762C60.5879 65.1827 60.6248 65.0704 60.6259 64.955C60.6271 64.8396 60.5923 64.7267 60.5265 64.6318C60.4607 64.537 60.3671 64.4649 60.2585 64.4256C60.9885 62.9715 61.7003 61.5117 62.3939 60.0464C62.8254 59.8456 63.258 59.646 63.6917 59.4476C64.3389 59.1499 63.8048 58.1856 63.1648 58.4799C63.1522 58.492 63.1396 58.5042 63.1113 58.5037C63.7245 57.183 64.3207 55.8579 64.8999 54.5283C65.274 54.3725 65.6549 54.2309 66.0273 54.0697C66.6794 53.788 66.1436 52.8219 65.5003 53.1019C65.9971 51.9283 66.508 50.7583 66.975 49.5717L67.8467 49.2729C68.5121 49.0409 68.2539 47.9702 67.585 48.2021C67.5423 48.219 67.4996 48.2324 67.4551 48.2475C67.8638 47.1588 68.2642 46.07 68.6563 44.981C68.9067 44.9202 69.1555 44.8469 69.4006 44.7841C69.4308 44.7758 69.4348 44.7512 69.4546 44.7321C70.2288 45.3224 71.3279 44.1826 70.6073 43.3634C70.2782 42.9862 69.9312 42.6264 69.5863 42.2436C69.8669 41.393 70.1211 40.5367 70.3805 39.6822C70.6587 38.7679 70.9721 37.8649 71.2202 36.9519C71.4168 36.2483 72.241 36.1307 72.744 36.5694C75.131 38.6783 77.352 40.9681 79.3872 43.4182L79.448 43.4812C79.2842 44.0315 79.1447 44.6071 78.9757 45.1521C78.67 46.1242 79.9673 46.6268 80.5251 45.9881C80.5494 46.0132 80.5789 46.0438 80.6106 46.055L80.7318 46.0943C80.8436 46.1216 80.9613 46.1111 81.0664 46.0644C81.1715 46.0177 81.2582 45.9374 81.3128 45.8362C81.8759 46.5676 82.4586 47.2871 82.9913 48.0375C82.9202 48.0574 82.8524 48.0915 82.7796 48.1097C82.0921 48.2934 82.3538 49.3642 83.0378 49.1804C83.2403 49.1275 83.4292 49.0425 83.6247 48.9824C84.102 49.6717 84.556 50.3693 85.0065 51.0705C85.5715 50.0024 86.0888 48.9015 86.5584 47.768C86.7048 47.6893 86.8614 47.632 87.0079 47.5498C87.0866 47.5038 87.1523 47.4384 87.1986 47.3598C87.2449 47.2812 87.2704 47.1921 87.2726 47.1009C87.2747 47.0097 87.2536 46.9195 87.2111 46.8388C87.1685 46.7581 87.1061 46.6896 87.0297 46.6398C87.5468 45.2891 88.0161 43.9104 88.4375 42.5038C88.6443 42.4121 88.8511 42.3168 89.0561 42.2233C89.6104 41.9734 89.2906 41.2782 88.7891 41.2479C89.2414 39.6356 89.6533 38.0101 90.0248 36.3716C90.359 36.1708 90.7017 35.9931 91.0342 35.787C91.635 35.4125 91.1098 34.443 90.5073 34.8193C90.4537 34.8501 90.3965 34.8809 90.3429 34.9153C90.6028 33.7084 90.8514 32.5102 91.0886 31.3206C91.4333 31.1306 91.7811 30.9584 92.1241 30.7631C92.7421 30.4136 92.2151 29.4459 91.5971 29.7953C91.5239 29.8382 91.4454 29.8757 91.3686 29.9185C91.6361 28.6186 91.886 27.315 92.146 26.0433C92.3225 25.9599 92.5059 25.8872 92.6825 25.8002C93.2407 25.5328 92.9001 24.8159 92.3855 24.8225C92.6745 23.4117 92.9406 21.9916 93.2155 20.577C93.4441 20.4539 93.6756 20.3591 93.9022 20.2412C94.4967 19.9249 94.0488 19.0788 93.4726 19.2664C93.6622 18.271 93.8657 17.2829 94.0447 16.2838L94.3475 16.6446C95.0914 17.542 96.3872 16.2785 95.6502 15.3883C95.2506 14.9055 94.8383 14.4348 94.4387 13.952C94.6772 12.5645 94.9126 11.1798 95.1451 9.79799C95.2882 8.92373 95.4525 8.04985 95.5904 7.17373C95.6045 6.9918 95.6893 6.82263 95.8266 6.7025C95.964 6.58238 96.1429 6.52086 96.3251 6.53116C96.3465 6.52345 96.3685 6.51735 96.3908 6.51291C96.5248 6.49105 96.6622 6.50513 96.789 6.5537C96.9157 6.60227 97.0273 6.6836 97.1124 6.78939C102.308 12.7669 107.444 18.853 112.128 25.2403C112.993 26.4245 114.344 27.9658 115.267 29.5754C115.889 30.6703 116.323 31.7972 116.261 32.8745C116.146 34.8683 114.615 37.2643 113.825 39.0444C109.808 48.0054 105.376 56.8015 100.78 65.4885C98.5642 69.7089 96.2891 73.8964 93.8321 77.978C92.5763 80.0608 91.0935 83.3522 89.0151 84.7872C88.1217 85.4057 87.1445 85.2854 86.144 84.691C85.1436 84.0965 84.1875 83.1051 83.2099 81.8322C83.5436 81.2708 83.8304 80.7615 84.0523 80.4155C84.6818 79.4334 83.1233 78.5124 82.4922 79.4892C82.4594 79.5416 82.4231 79.594 82.3903 79.6464C82.3691 79.6461 82.3661 79.6213 82.3376 79.6314L81.7334 79.707C81.2142 78.895 80.7133 78.0515 80.2355 77.1961C80.2585 77.1947 80.2833 77.1916 80.3081 77.1921C81.0174 77.1713 81.0391 76.0703 80.3281 76.0893C80.1017 76.0958 79.8767 76.1218 79.6485 76.13C79.1115 75.1303 78.613 74.1489 78.1681 73.241L78.4741 73.2307C79.1835 73.2064 79.2052 72.1054 78.4958 72.1297L77.6414 72.1584C77.3876 71.6288 77.1611 71.1526 76.9601 70.7318C76.67 71.2304 76.4009 71.7399 76.0863 72.2239L74.972 72.2568C74.2626 72.281 74.2409 73.382 74.9502 73.3578L75.3271 73.3416C74.8186 74.0855 74.3066 74.8293 73.7949 75.5555C73.6152 75.8121 73.4252 76.0579 73.2456 76.311C72.5601 76.09 71.6814 76.7777 72.1426 77.5692L72.2267 77.7068C70.399 80.23 68.5189 82.7205 66.5689 85.1637L65.4618 84.0157Z" fill="#1A1A1A"/>
<path id="Vector_23" d="M85.0119 24.6235C85.3648 24.4637 85.7096 24.2666 86.0554 24.1102C85.8023 25.3962 85.551 26.6804 85.2889 27.975C84.8202 28.1804 84.3617 28.4073 83.8931 28.6091C83.2572 28.8752 83.7286 29.6916 84.2814 29.6239C84.4673 29.6042 84.6534 29.5811 84.8376 29.5597C84.8837 29.5535 84.8898 29.5094 84.9341 29.5013C84.6245 30.9135 84.3014 32.3214 83.9649 33.7249C83.7777 33.8116 83.5956 33.9073 83.4067 33.9923C82.8558 34.2457 83.1756 34.941 83.6789 34.9695C83.3298 36.3828 82.9316 37.774 82.5525 39.1814C82.1066 39.3996 81.6743 39.6428 81.2215 39.8538C80.5778 40.1551 81.1101 41.1211 81.7485 40.8215C81.8822 40.7585 82.0126 40.6849 82.1463 40.6219C81.7758 41.9481 81.4263 43.2818 81.0224 44.5951C80.6803 44.7598 80.4038 45.0351 80.2375 45.3764C80.2046 45.4968 80.2163 45.625 80.2705 45.7374C80.3247 45.8498 80.4176 45.9389 80.5323 45.9881C79.9675 46.6196 78.6771 46.1243 78.9829 45.1522C79.1518 44.6072 79.2913 44.0316 79.4551 43.4813C81.37 37.1199 82.9177 30.6369 84.2154 24.0928C84.2134 24.1882 84.2356 24.2825 84.2798 24.3671C84.3239 24.4517 84.3887 24.5237 84.4681 24.5766C84.5475 24.6295 84.6389 24.6615 84.734 24.6697C84.8291 24.6779 84.9246 24.662 85.0119 24.6235V24.6235Z" fill="#1A1A1A"/>
<path id="Vector_24" d="M88.6563 7.10999C90.6271 9.37673 92.5373 11.6671 94.4526 13.9664C94.8523 14.4492 95.2645 14.9199 95.6641 15.4027C96.4011 16.2929 95.1053 17.5564 94.3614 16.659L94.0586 16.2982L93.8855 16.0935C93.6364 15.792 93.3766 15.4974 93.1274 15.1958C92.6326 14.6035 92.1287 14.0198 91.6303 13.4274L90.8861 12.5441C90.1159 11.6339 89.3529 10.7167 88.5773 9.81161C88.3712 11.1031 88.1587 12.3951 87.9396 13.6876C87.8859 14.0172 87.8339 14.3486 87.7767 14.6782C87.6201 15.614 87.4884 16.5398 87.3175 17.4825C87.2565 17.8261 87.1831 18.1678 87.1203 18.5131C86.8683 19.9299 86.5846 21.3426 86.3167 22.7609C85.7016 23.0485 85.1069 23.3789 84.4884 23.6594C84.4357 23.684 84.3885 23.719 84.3498 23.7624C84.311 23.8058 84.2814 23.8565 84.2629 23.9116C84.4808 22.8125 84.6845 21.713 84.8955 20.6066C85.7078 16.2347 86.457 11.8622 87.1432 7.48919C87.2213 6.98676 87.7947 6.75672 88.2541 6.86935C88.41 6.90565 88.5506 6.98979 88.6563 7.10999V7.10999Z" fill="#1A1A1A"/>
<path id="Vector_25" d="M69.5878 42.2595C69.9223 42.6315 70.278 43.0004 70.6088 43.3794C71.3294 44.1986 70.2303 45.3384 69.4561 44.748C70.0435 44.5288 69.7957 43.5697 69.1353 43.7204C68.956 43.7613 68.7817 43.8218 68.6024 43.8628C67.8937 43.0668 67.1816 42.2707 66.4443 41.4954C66.1944 41.2363 65.9319 40.9929 65.6802 40.7355C65.5309 40.5808 65.3673 40.4399 65.2128 40.2869C64.8431 39.9036 64.4519 39.5447 64.0642 39.1823C63.8361 39.9649 63.587 40.74 63.3413 41.5187C63.208 41.9459 63.0835 42.3785 62.945 42.8039C62.6043 43.8478 62.2479 44.8826 61.8791 45.9154C61.7243 45.9745 61.5644 46.0175 61.4112 46.0784C60.8523 46.291 60.9726 47.064 61.4328 47.1342C60.9809 48.3653 60.543 49.6037 60.0577 50.8253L58.91 51.2377C58.2428 51.4678 58.4992 52.5402 59.1681 52.3084C59.2784 52.2715 59.3887 52.231 59.499 52.1941C58.9863 53.463 58.4539 54.7474 57.8988 56.0155C57.6356 56.1027 57.3828 56.2007 57.1161 56.2842C56.4706 56.4935 56.6951 57.4681 57.3125 57.3485C56.5757 58.9851 55.8202 60.6132 55.046 62.2327L53.8248 62.7957C53.2008 63.0849 53.6832 63.9741 54.2952 63.7659C53.7426 64.8927 53.1743 66.0138 52.6042 67.1331L51.1662 67.6622C50.5041 67.9048 50.7605 68.9772 51.4243 68.7329C51.5791 68.6773 51.7304 68.6217 51.8835 68.5644C51.7296 68.8621 51.5722 69.1563 51.4148 69.454L50.0995 68.0901C55.2608 58.1846 59.8024 47.9391 62.7765 37.2709C62.9714 36.5656 63.7973 36.4497 64.2985 36.8866C64.911 37.4245 65.4749 38.0128 66.0586 38.5821C67.2783 39.7627 68.4547 40.9885 69.5878 42.2595Z" fill="#1A1A1A"/>
<path id="Vector_26" d="M85.0119 24.6235C84.9252 24.6604 84.8308 24.6751 84.737 24.6663C84.6432 24.6576 84.5531 24.6256 84.4748 24.5733C84.3964 24.521 84.3324 24.4501 84.2883 24.3668C84.2442 24.2836 84.2216 24.1907 84.2224 24.0965C84.2196 24.0317 84.2323 23.9671 84.2594 23.908C84.278 23.8529 84.3075 23.8022 84.3463 23.7588C84.3851 23.7154 84.4322 23.6804 84.4849 23.6558C85.1035 23.3753 85.6981 23.0449 86.3133 22.7573C88.7025 21.6338 91.067 20.5169 93.3857 19.2878C93.4127 19.2618 93.4493 19.289 93.4813 19.2789C94.0592 19.0932 94.5071 19.9392 93.9109 20.2537C93.6806 20.3751 93.4491 20.4699 93.2242 20.5896C90.8659 21.8268 88.4751 23.0003 86.0519 24.1102C85.7042 24.2719 85.3648 24.4637 85.0119 24.6235Z" fill="#1A1A1A"/>
<path id="Vector_27" d="M84.9324 29.4996C84.8933 29.513 84.8802 29.5499 84.8359 29.5579C84.6516 29.5793 84.4656 29.6025 84.2796 29.6221C83.7233 29.6863 83.2554 28.8734 83.8914 28.6074C84.36 28.4055 84.8184 28.1787 85.2871 27.9733C87.5948 26.9632 89.8974 25.9371 92.1712 24.8487C92.255 24.8095 92.3251 24.8391 92.4012 24.8387C92.9157 24.8321 93.2563 25.549 92.6981 25.8164C92.5215 25.9034 92.3381 25.976 92.1616 26.0595C89.863 27.1546 87.5423 28.2015 85.208 29.2164C85.1917 29.284 85.1575 29.3459 85.109 29.3958C85.0605 29.4456 84.9995 29.4814 84.9324 29.4996V29.4996Z" fill="#1A1A1A"/>
<path id="Vector_28" d="M83.6771 34.9678C83.1738 34.9392 82.854 34.2439 83.4049 33.9905C83.5938 33.9055 83.7759 33.8098 83.9631 33.7231C86.484 32.5536 88.9566 31.2873 91.3809 29.924C91.4577 29.8812 91.5361 29.8437 91.6094 29.8008C92.2274 29.4514 92.7613 30.4263 92.1364 30.7686C91.7952 30.9622 91.4473 31.1344 91.1009 31.3261C88.7544 32.6236 86.3722 33.8445 83.9336 34.96C83.8409 35.0008 83.7494 34.9779 83.6771 34.9678Z" fill="#1A1A1A"/>
<path id="Vector_29" d="M81.7518 40.8287C81.1135 41.1283 80.5812 40.1622 81.2248 39.861C81.6777 39.65 82.1099 39.4068 82.5558 39.1885C85.2223 37.888 87.8272 36.4802 90.3534 34.9225C90.3983 34.8792 90.4641 34.8574 90.5177 34.8265C91.1203 34.4503 91.6455 35.4197 91.0447 35.7943C90.7139 35.9986 90.3713 36.1763 90.0353 36.3788C87.474 37.9217 84.8512 39.3468 82.1497 40.6291C82.0177 40.6903 81.8873 40.764 81.7518 40.8287Z" fill="#1A1A1A"/>
<path id="Vector_30" d="M80.2409 45.3836C80.4071 45.0423 80.6837 44.767 81.0258 44.6023C81.6888 44.2095 82.5736 43.9638 83.1226 43.7157L88.543 41.2664C88.6375 41.2239 88.7183 41.2537 88.8031 41.2587C89.3046 41.289 89.6243 41.9843 89.07 42.2341C88.865 42.3276 88.6582 42.4229 88.4515 42.5146L84.8563 44.1413L83.0506 44.959C82.7939 45.0745 81.7871 45.5177 81.4525 45.6389L81.4244 45.725C81.4076 45.776 81.3507 45.7962 81.3268 45.847C81.2721 45.9483 81.1855 46.0285 81.0803 46.0752C80.9752 46.122 80.8575 46.1325 80.7458 46.1052L80.6245 46.0659C80.5911 46.0564 80.5742 46.0137 80.5391 45.9989C80.423 45.9502 80.3288 45.8608 80.2739 45.7475C80.219 45.6343 80.2072 45.5049 80.2409 45.3836V45.3836Z" fill="#1A1A1A"/>
<path id="Vector_31" d="M87.042 46.6453C87.1184 46.6951 87.1809 46.7635 87.2234 46.8442C87.2659 46.925 87.2871 47.0152 87.2849 47.1064C87.2827 47.1976 87.2572 47.2867 87.2109 47.3653C87.1646 47.4439 87.0989 47.5093 87.0202 47.5553C86.8737 47.6375 86.7171 47.6948 86.5707 47.7735C85.6328 48.2712 84.6485 48.6761 83.6319 48.9825C83.4363 49.0426 83.2474 49.1276 83.0449 49.1805C82.3609 49.3643 82.0992 48.2935 82.7867 48.1098C82.8595 48.0916 82.9273 48.0575 82.9984 48.0376C84.2174 47.6966 85.39 47.2072 86.4898 46.5805C86.5762 46.5291 86.6771 46.5077 86.7769 46.5194C86.8767 46.5311 86.9698 46.5753 87.042 46.6453Z" fill="#1A1A1A"/>
<path id="Vector_32" d="M61.6801 47.1422C61.584 47.1794 61.5193 47.1411 61.4417 47.1291C60.987 47.0537 60.8681 46.2931 61.4202 46.0733C61.5733 46.0124 61.7332 45.9694 61.8881 45.9103C62.1283 45.8209 62.3701 45.7475 62.6103 45.6617C64.575 44.9489 66.5778 44.346 68.6095 43.8558C68.7888 43.8149 68.9632 43.7544 69.1425 43.7135C69.8028 43.5628 70.0489 44.5201 69.4633 44.7411C69.4435 44.7602 69.4291 44.7741 69.4093 44.7931C69.159 44.8505 68.9119 44.9256 68.665 44.99C66.3841 45.5395 64.1397 46.231 61.945 47.0604C61.8526 47.087 61.7638 47.1102 61.6801 47.1422Z" fill="#1A1A1A"/>
<path id="Vector_33" d="M59.1684 52.2942C58.4995 52.526 58.2414 51.4518 58.9102 51.2235L60.058 50.8112L60.1291 50.7877L67.4499 48.242C67.4944 48.2269 67.5371 48.2136 67.5798 48.1967C68.2487 47.9648 68.5086 49.0373 67.8415 49.2674L66.9591 49.5732C64.4684 50.4403 61.9795 51.3068 59.4923 52.1728C59.3943 52.2152 59.2786 52.2573 59.1684 52.2942Z" fill="#1A1A1A"/>
<path id="Vector_34" d="M57.3143 57.3468C56.6969 57.4664 56.4724 56.4918 57.1179 56.2825C57.3846 56.1989 57.6374 56.101 57.9006 56.0138C60.4742 55.1571 63.0105 54.2112 65.4929 53.123C66.1396 52.8466 66.6702 53.8073 66.0198 54.0907C65.6474 54.2519 65.2684 54.3918 64.8925 54.5494C62.4216 55.5883 59.9224 56.5366 57.3724 57.3602C57.346 57.3544 57.3287 57.3329 57.3143 57.3468Z" fill="#1A1A1A"/>
</g>
</svg>
