<svg width="81" height="156" viewBox="0 0 81 156" fill="none" xmlns="http://www.w3.org/2000/svg">
<g id="Group 9">
<path id="Vector" d="M13.1603 17.64C12.2813 16.9095 11.4558 16.2589 10.6946 15.7046C13.0823 19.8672 15.4164 24.0614 17.6539 28.3028C18.3237 29.5714 18.9943 30.8483 19.6657 32.1335L25.0038 30.7032C21.2844 26.147 17.3313 21.7867 13.1603 17.64V17.64Z" fill="#EA90A6"/>
<path id="Vector_2" d="M7.99486 13.9989C7.6764 13.8361 7.34431 13.7014 7.00238 13.5965C7.00238 13.5965 10.8299 23.2125 15.083 33.3614L18.1868 32.5298C14.9884 26.2452 11.5665 20.0698 7.99486 13.9989Z" fill="#EA90A6"/>
<path id="Vector_3" d="M7.38515 10.1566L7.44158 10.1977C7.42365 10.1829 7.40481 10.1691 7.38515 10.1566V10.1566Z" fill="#1A1A1A"/>
<path id="Vector_4" d="M19.6657 32.1335C18.996 30.8492 18.3254 29.5723 17.6539 28.3028C15.4164 24.0614 13.0823 19.8672 10.6946 15.7045C10.5098 15.3828 10.3239 15.062 10.1369 14.7423C11.1592 15.6957 12.165 16.6515 13.1603 17.64C17.3346 21.7856 21.2911 26.145 25.0138 30.7005L26.5986 30.2758C23.9669 27.0332 21.2427 23.8775 18.4059 20.8527C14.5932 17.5517 10.687 14.3571 6.60968 11.4354C6.52247 11.3719 6.4491 11.2912 6.39401 11.1984C6.33892 11.1056 6.30327 11.0025 6.28922 10.8955C6.27517 10.7885 6.28301 10.6798 6.31227 10.5759C6.34153 10.472 6.3916 10.3751 6.45944 10.2912C6.40098 10.3486 6.35226 10.4152 6.3152 10.4883C6.30349 10.5086 6.28926 10.5274 6.27809 10.5497C6.26692 10.5719 6.26257 10.6117 6.25408 10.6439C6.22901 10.7299 6.22331 10.8204 6.23738 10.9088C6.25145 10.9973 6.28494 11.0815 6.33546 11.1555C6.33546 11.1555 6.33546 11.1555 6.33546 11.1555C6.89928 12.0926 7.43927 13.0446 7.99217 13.9889C11.5639 20.0599 14.9857 26.2352 18.1841 32.5198L19.6657 32.1335Z" fill="#1A1A1A"/>
<path id="Vector_5" d="M6.60966 11.4355C10.687 14.3571 14.5932 17.5517 18.3959 20.8554C20.8009 22.9456 23.167 25.0713 25.4939 27.2324C26.4153 28.0887 27.3169 28.9674 28.2254 29.8399L29.9202 29.3858C28.8019 28.306 27.685 27.2237 26.547 26.1662C20.4893 20.5301 14.1703 15.0303 7.43997 10.1934L7.38407 10.1527L7.35966 10.1335C7.29171 10.0809 7.21356 10.0429 7.13017 10.0221C7.04679 10.0012 6.95998 9.9979 6.87524 10.0124C6.79051 10.0268 6.70971 10.0587 6.63794 10.106C6.56618 10.1533 6.50502 10.215 6.45835 10.2872C6.38992 10.3713 6.33939 10.4685 6.30984 10.5728C6.2803 10.6772 6.27237 10.7864 6.28653 10.8939C6.3007 11.0014 6.33667 11.1049 6.39223 11.198C6.44779 11.2912 6.52178 11.3719 6.60966 11.4355V11.4355Z" fill="#1A1A1A"/>
<path id="Vector_6" d="M50.1849 71.0956L57.3669 66.5858L46.0285 62.4266L37.3175 67.2734L50.1849 71.0956Z" fill="#EA90A6"/>
<path id="Vector_7" d="M46.492 61.0065L57.2613 64.9604C56.6451 63.956 56.0295 62.9535 55.388 61.9666C49.7953 55.5396 37.9582 42.1085 27.1689 30.997C34.6869 40.3482 41.28 50.4848 46.492 61.0065Z" fill="#EA90A6"/>
<path id="Vector_8" d="M56.2045 94.7201L66.2127 99.4391C65.9036 98.8129 65.434 97.9556 65.3618 97.7821C65.0009 96.9149 64.63 96.0504 64.2413 95.1992C63.6095 93.8219 62.9424 92.462 62.2399 91.1194C58.8269 84.5775 54.7198 78.1551 49.8694 72.5639L38.272 69.1168C45.7114 76.272 51.4626 85.7046 56.2045 94.7201Z" fill="#EA90A6"/>
<path id="Vector_9" d="M73.4753 143.251C73.359 143.212 73.2569 143.14 73.1817 143.043C60.7624 127.495 43.3466 115.036 25.8046 105.783C26.3214 107.208 69.3518 134.121 74.3299 145.929C74.2027 145.35 74.0628 144.756 73.9172 144.157C73.8333 144.111 73.7602 144.048 73.7028 143.972C73.6454 143.896 73.605 143.808 73.5845 143.715C73.5618 143.558 73.5126 143.406 73.4753 143.251Z" fill="#EA90A6"/>
<path id="Vector_10" d="M64.8162 125.348C67.2478 129.195 69.5791 133.131 71.7535 137.145C68.5468 126.992 63.6636 117.186 58.4007 108.048L48.4833 104.612C55.0402 110.448 60.1865 118.023 64.8162 125.348Z" fill="#EA90A6"/>
<path id="Vector_11" d="M59.6855 107.698C59.5688 107.808 59.6425 107.814 59.6855 107.698V107.698Z" fill="#EA90A6"/>
<path id="Vector_12" d="M61.3513 86.3001C58.3473 80.0535 55.0956 73.554 53.3467 70.8803L51.4168 72.0957C55.1623 76.5117 58.4882 81.267 61.3513 86.3001V86.3001Z" fill="#EA90A6"/>
<path id="Vector_13" d="M36.2863 90.1096C31.7731 81.3563 24.7391 73.3556 16.9565 67.3097C16.9565 67.3097 35.8456 90.4076 37.1153 94.5785C37.3305 94.3902 38.1334 93.9094 38.1931 93.6364C38.2969 93.1523 36.6962 90.9037 36.2863 90.1096Z" fill="#EA90A6"/>
<path id="Vector_14" d="M59.8441 107.576C59.8775 107.64 59.9161 107.701 59.9596 107.759L60.7307 107.079C60.5447 107.185 60.3609 107.298 60.1723 107.394C60.0596 107.448 59.9501 107.509 59.8441 107.576Z" fill="#EA90A6"/>
<path id="Vector_15" d="M58.7782 106.596L64.5438 102.052C64.9599 101.726 65.5652 101.371 65.9417 100.962L55.7256 96.1464L46.4584 102.331L58.7782 106.596Z" fill="#EA90A6"/>
<path id="Vector_16" d="M44.1092 102.309C44.1269 102.252 44.1517 102.197 44.1832 102.146C44.2506 102.013 44.3615 101.908 44.4974 101.848L54.6718 95.0515C49.5341 85.3346 43.2577 75.173 34.8621 68.0148C34.8208 67.9694 34.7867 67.9178 34.7612 67.8619C34.7504 67.8466 34.7404 67.8306 34.7313 67.8142C34.6704 67.689 34.6454 67.5494 34.6589 67.4108C34.6724 67.2722 34.724 67.1401 34.8079 67.029C34.8711 66.9376 34.9554 66.8629 35.0537 66.8111L44.9487 61.3065C39.572 50.5376 32.7645 40.1928 24.9947 30.7013L19.6646 32.1295C23.9372 40.3046 28.098 48.7903 30.4157 57.6799C30.4535 57.8381 30.4408 58.0042 30.3793 58.1547C30.3178 58.3053 30.2107 58.4328 30.073 58.5193L18.7002 66.8146C27.5577 73.8662 35.3799 83.3373 39.6037 93.8324C39.6404 93.9586 39.6421 94.0924 39.6086 94.2195C39.5752 94.3466 39.5077 94.4622 39.4135 94.5538L36.3227 97.2563C35.3758 98.5189 33.7517 99.8045 32.0537 100.99L27.4845 104.986C42.8539 113.197 58.1116 123.893 69.9225 136.931C68.1461 133.707 66.2856 130.534 64.341 127.412C58.9135 118.668 52.7965 109.389 44.4181 103.19C44.3937 103.171 44.3827 103.146 44.3603 103.127C44.3063 103.082 44.2596 103.03 44.2222 102.971C44.1514 102.878 44.1041 102.769 44.0844 102.654C44.0647 102.539 44.0732 102.421 44.1092 102.309V102.309Z" fill="#EA90A6"/>
<path id="Vector_17" d="M28.9651 57.5181C28.7552 57.4223 28.6165 56.5769 28.4829 56.3022C27.8108 54.9292 27.4947 53.2297 26.9601 51.7942C25.5713 48.0579 23.951 44.4094 22.2527 40.8053C20.9427 38.0268 19.5809 35.2707 18.1867 32.5298L15.085 33.3609C19.7177 44.4148 24.8553 56.0982 26.1044 56.691C27.25 57.2409 25.2052 59.6823 22.7643 62.0842C24.7085 60.7065 26.6345 59.2929 28.4968 57.8171C28.6049 57.741 28.7969 57.6339 28.9651 57.5181Z" fill="#EA90A6"/>
<path id="Vector_18" d="M26.5886 30.2785L25.0038 30.7032C32.772 40.1887 39.5811 50.5395 44.9578 61.3084L35.0628 66.8129C35.1432 66.7682 35.2319 66.7405 35.3234 66.7315C35.4149 66.7224 35.5073 66.7322 35.5949 66.7603L37.3175 67.2734L46.0285 62.4267L45.7629 62.3307C44.8645 61.9996 45.2522 60.5526 46.1592 60.8837L46.4925 61.0085C41.28 50.4848 34.6868 40.3482 27.1683 30.995C26.9756 30.7553 26.7828 30.5157 26.5886 30.2785Z" fill="#1A1A1A"/>
<path id="Vector_19" d="M34.7404 67.8161C34.6868 67.6892 34.6657 67.5509 34.6791 67.4137C34.6925 67.2766 34.7399 67.145 34.817 67.0308C34.7331 67.1419 34.6816 67.2741 34.668 67.4127C34.6545 67.5512 34.6796 67.6909 34.7404 67.8161Z" fill="#1A1A1A"/>
<path id="Vector_20" d="M35.2001 68.2048C35.1091 68.1801 35.024 68.1371 34.9501 68.0785C34.8762 68.0199 34.815 67.9468 34.7703 67.8638C34.7958 67.9196 34.8299 67.9712 34.8712 68.0167C43.2646 75.1669 49.541 85.3284 54.6808 95.0534L44.5065 101.849C44.5826 101.814 44.6652 101.794 44.7492 101.79C44.8333 101.787 44.9172 101.8 44.996 101.83L46.4671 102.339L55.7343 96.1549L55.2951 95.9469C54.423 95.538 55.1766 94.2415 56.0442 94.6495L56.2137 94.7305C51.4728 85.719 45.7206 76.2824 38.277 69.1197L35.2001 68.2048Z" fill="#1A1A1A"/>
<path id="Vector_21" d="M73.1817 143.043C73.2568 143.14 73.359 143.212 73.4753 143.251C72.9821 141.203 72.3943 139.169 71.7535 137.145C69.579 133.131 67.2483 129.197 64.8162 125.348C60.186 118.021 55.0402 110.448 48.4832 104.612L44.5956 103.269C44.5102 103.238 44.4311 103.192 44.3619 103.133C44.3844 103.152 44.3953 103.177 44.4197 103.196C52.7981 109.395 58.9151 118.674 64.3426 127.418C66.2799 130.539 68.1404 133.712 69.9241 136.937C58.1116 123.893 42.8539 113.197 27.4845 104.986L32.0537 100.99L36.3227 97.2563L39.4136 94.5538C39.5077 94.4622 39.5752 94.3466 39.6087 94.2195C39.6422 94.0924 39.6404 93.9586 39.6037 93.8324C35.3815 83.3433 27.5572 73.8642 18.7003 66.8146L30.0741 58.5233C30.2118 58.4368 30.3189 58.3093 30.3804 58.1587C30.4418 58.0082 30.4546 57.8421 30.4168 57.6839C28.0991 48.7943 23.9382 40.3086 19.6657 32.1335L18.1867 32.5298C19.5809 35.2707 20.9447 38.0262 22.2527 40.8053C23.951 44.4094 25.5707 48.0559 26.9601 51.7942C27.4947 53.2296 27.8008 54.9319 28.4829 56.3021C28.6165 56.5769 28.7552 57.4223 28.9651 57.5181C28.7969 57.6339 28.597 57.7432 28.499 57.8251C26.6367 59.3009 24.7085 60.7065 22.7664 62.0922C20.8764 63.4405 18.973 64.7709 17.1038 66.1328C16.7597 66.3835 16.5375 66.985 16.9565 67.3097C24.7412 73.3635 31.7731 81.3563 36.2863 90.1095C36.6962 90.9037 38.2969 93.1523 38.1931 93.6363C38.1334 93.9094 37.3245 94.3917 37.1153 94.5785L32.7281 98.4144L25.6483 104.608C25.5685 104.69 25.5084 104.789 25.4724 104.897C25.4364 105.005 25.4256 105.121 25.4406 105.234C25.4557 105.347 25.4963 105.455 25.5593 105.55C25.6224 105.646 25.7062 105.725 25.8046 105.783C43.3466 115.036 60.7624 127.495 73.1817 143.043Z" fill="#1A1A1A"/>
<path id="Vector_22" d="M44.1116 102.302C44.1294 102.245 44.1543 102.19 44.1856 102.139C44.1542 102.19 44.1293 102.245 44.1116 102.302V102.302Z" fill="#1A1A1A"/>
<path id="Vector_23" d="M44.2222 102.971C44.1572 102.875 44.1135 102.766 44.094 102.652C44.0745 102.538 44.0797 102.421 44.1092 102.309C44.0732 102.421 44.0647 102.539 44.0844 102.654C44.1041 102.769 44.1514 102.878 44.2222 102.971V102.971Z" fill="#1A1A1A"/>
<path id="Vector_24" d="M59.6565 65.9616C59.6095 65.882 59.5565 65.8041 59.507 65.7232C51.4683 52.2703 41.1833 40.259 29.9202 29.3858L28.2294 29.8389C38.3709 39.5559 47.7302 50.1831 55.3941 61.9735C56.0356 62.9604 56.6512 63.9629 57.2674 64.9674C57.9319 65.2091 58.5955 65.4526 59.2581 65.6977C59.3695 65.7402 59.47 65.807 59.5522 65.8933C59.6345 65.9796 59.6963 66.0833 59.7333 66.1966C59.7702 66.31 59.7813 66.4302 59.7658 66.5484C59.7502 66.6666 59.7084 66.7798 59.6434 66.8797C59.7367 66.7626 59.7927 66.6201 59.8042 66.4708C59.8158 66.3214 59.7823 66.1721 59.7081 66.042L59.6565 65.9616Z" fill="#1A1A1A"/>
<path id="Vector_25" d="M66.9636 101.442L65.9412 100.96C65.5646 101.369 64.9588 101.722 64.5432 102.05L58.7777 106.594L59.115 106.717C60.0217 107.031 59.632 108.479 58.7182 108.163L58.4022 108.054C63.6652 117.192 68.5484 126.998 71.7551 137.151C72.3959 139.175 72.9837 141.209 73.4769 143.257C73.5181 143.411 73.5594 143.565 73.6001 143.717C73.6206 143.81 73.6609 143.898 73.7183 143.974C73.7757 144.05 73.8488 144.113 73.9327 144.159C74.4182 144.436 75.2262 144.046 75.057 143.326C72.4376 132.224 67.3991 121.662 62.0786 111.638C61.4432 110.442 60.8641 108.776 59.9666 107.753C59.923 107.695 59.8844 107.634 59.8511 107.57C59.9578 107.501 60.0684 107.439 60.1822 107.383C60.3708 107.287 60.5546 107.174 60.7405 107.068C63.2657 105.62 65.6292 103.089 67.8824 101.314C67.9959 101.203 68.0652 101.055 68.0772 100.897C68.0511 101.013 67.9993 101.122 67.9255 101.216C67.8518 101.309 67.758 101.385 67.6511 101.437C67.5442 101.489 67.4269 101.517 67.308 101.518C67.189 101.519 67.0713 101.493 66.9636 101.442V101.442ZM59.6841 107.698C59.6418 107.812 59.5695 107.806 59.6841 107.698V107.698Z" fill="#1A1A1A"/>
<path id="Vector_26" d="M58.8567 67.1334L57.3669 66.5858L50.185 71.0956L50.4947 71.1883C51.4248 71.4617 51.0245 72.9098 50.0979 72.6333L49.8654 72.565C54.7158 78.1562 58.8229 84.5786 62.2359 91.1205C62.9357 92.4638 63.6028 93.8237 64.2373 95.2003C64.6291 96.0549 65.001 96.9234 65.3578 97.7832C65.43 97.9566 65.8996 98.814 66.2088 99.4402L67.7087 100.146C67.8001 100.189 67.882 100.25 67.9496 100.325C66.1302 95.4807 63.9236 90.7905 61.3513 86.3002C58.4882 81.2671 55.1623 76.5117 51.4169 72.0957L53.3513 70.8812L59.315 67.1412C59.1666 67.1955 59.0032 67.1927 58.8567 67.1334V67.1334Z" fill="#1A1A1A"/>
<path id="Vector_27" d="M67.7127 100.145L66.2127 99.4391L56.2045 94.7201L56.035 94.6391C55.1669 94.2291 54.4133 95.5256 55.2859 95.9365L55.7251 96.1445L65.9412 100.96L66.9636 101.442C67.0703 101.491 67.1864 101.515 67.3037 101.514C67.4209 101.512 67.5364 101.485 67.6418 101.433C67.7472 101.382 67.8399 101.308 67.9133 101.217C67.9867 101.125 68.0389 101.019 68.0663 100.905C68.0972 100.806 68.1031 100.701 68.0835 100.6C68.0638 100.499 68.0192 100.404 67.9536 100.324C67.886 100.249 67.8041 100.188 67.7127 100.145V100.145Z" fill="#1A1A1A"/>
<path id="Vector_28" d="M44.9888 101.819C44.91 101.789 44.8261 101.776 44.742 101.779C44.658 101.783 44.5754 101.803 44.4993 101.839C44.3634 101.899 44.2525 102.004 44.1851 102.137C44.1538 102.188 44.1289 102.243 44.1111 102.3V102.3C44.0816 102.412 44.0764 102.529 44.0959 102.643C44.1154 102.757 44.1591 102.866 44.2241 102.962C44.2615 103.021 44.3081 103.073 44.3622 103.118C44.4313 103.177 44.5105 103.223 44.5959 103.254L48.4792 104.613L58.3967 108.05L58.7127 108.158C59.6264 108.474 60.0161 107.027 59.1094 106.713L58.7721 106.589L46.4537 102.322L44.9888 101.819Z" fill="#1A1A1A"/>
<path id="Vector_29" d="M35.5949 66.7603C35.5073 66.7322 35.4149 66.7224 35.3234 66.7315C35.2319 66.7405 35.1432 66.7682 35.0628 66.8129C34.9646 66.8648 34.8802 66.9395 34.817 67.0309C34.7399 67.145 34.6925 67.2767 34.6791 67.4138C34.6657 67.5509 34.6868 67.6892 34.7404 67.8161C34.7495 67.8325 34.7595 67.8484 34.7703 67.8638C34.8151 67.9468 34.8763 68.0199 34.9502 68.0785C35.0241 68.1372 35.1091 68.1802 35.2001 68.2049L38.27 69.1174L49.8674 72.5645L50.0999 72.6328C51.0305 72.9083 51.4188 71.4633 50.4967 71.1877L50.187 71.0951L37.3175 67.2734L35.5949 66.7603Z" fill="#1A1A1A"/>
<path id="Vector_30" d="M59.2554 65.6877C58.5914 65.4372 57.9278 65.1938 57.2647 64.9573L46.496 61.0054L46.1626 60.8806C45.2557 60.5495 44.8679 61.9965 45.7664 62.3276L46.032 62.4236L57.3703 66.5827L58.8601 67.1303C59.007 67.1865 59.1695 67.1865 59.3163 67.1301C59.4514 67.082 59.5656 66.9885 59.6396 66.8657C59.7039 66.766 59.7452 66.6532 59.7604 66.5355C59.7756 66.4178 59.7644 66.2982 59.7276 66.1854C59.6908 66.0725 59.6294 65.9693 59.5477 65.8833C59.466 65.7972 59.3662 65.7304 59.2554 65.6877V65.6877Z" fill="#1A1A1A"/>
</g>
</svg>
