<svg width="66" height="42" viewBox="0 0 66 42" fill="none" xmlns="http://www.w3.org/2000/svg">
<g id="Group 8">
<path id="Vector" d="M29.1211 9.34433C28.5768 10.0804 28.2036 10.6921 28.2347 10.8787C28.2761 11.1379 29.572 16.6067 31.3319 22.8193C31.0088 20.9186 30.6874 19.0231 30.3677 17.1328C29.9254 14.541 29.5098 11.9448 29.1211 9.34433Z" fill="white"/>
<path id="Vector_2" d="M24.3987 9.30289C21.6099 11.9103 18.8246 14.5194 16.0427 17.1302C20.0496 14.02 24.4584 9.78238 28.5094 5.56546C28.5094 5.53436 28.5094 5.50066 28.5094 5.47215L24.3987 9.30289Z" fill="white"/>
<path id="Vector_3" d="M14.0806 16.3916C17.9736 12.7405 21.8708 9.09381 25.7724 5.45141C31.2844 0.297115 36.7989 -4.85459 42.3161 -10.0037L43.4176 -11.0404C43.6327 -11.7351 43.8375 -12.4297 44.0526 -13.1139L23.0769 5.68986L10.3562 17.0939C9.69784 17.6667 8.40192 19.2348 7.106 20.3441C10.1177 21.2227 11.6236 18.6957 14.0806 16.3916Z" fill="white"/>
<path id="Vector_4" d="M62.3821 -29.9167C63.3411 -32.7522 63.1286 -35.4114 62.6154 -38.1795C62.5558 -38.0214 62.4858 -37.8529 62.4391 -37.7104C61.6616 -35.3777 60.8555 -33.0762 60.0365 -30.7694C57.7039 -24.194 55.296 -17.6444 52.8753 -11.1C49.8359 -2.89598 46.7715 5.29508 43.682 13.4732C44.5607 12.8745 45.4471 12.281 46.3309 11.6874C49.7867 3.04797 53.1949 -5.60963 56.5557 -14.2854C58.554 -19.469 60.6015 -24.6527 62.3821 -29.9167Z" fill="white"/>
<path id="Vector_5" d="M32.1328 6.37408C32.6693 7.27864 33.1254 8.18837 33.4287 8.6575C34.4317 10.2126 35.3985 11.804 36.3704 13.385C36.4533 13.074 36.5466 12.763 36.6296 12.4519C35.7069 10.858 34.7816 9.26398 33.8693 7.66482C33.4909 7.00909 32.8507 6.63845 32.1328 6.37408Z" fill="white"/>
<path id="Vector_6" d="M38.5813 5.39179C39.7908 1.10316 41.0392 -3.17164 42.3265 -7.43262L41.5126 -6.67321L38.5813 5.39179Z" fill="white"/>
<path id="Vector_7" d="M65.7308 -33.8927C65.6271 -36.9174 64.8936 -39.1515 64.015 -40.7636C64.7926 -37.3321 65.6038 -33.7864 64.5334 -30.3963C62.9005 -25.293 60.8841 -20.2881 58.9609 -15.2989C55.7289 -6.89094 52.4139 1.48588 49.0757 9.84196C49.8377 9.30027 50.9988 8.35424 52.1703 7.70629L50.8744 7.59225C50.8744 7.59225 66.0003 -25.8321 65.7308 -33.8927Z" fill="white"/>
<path id="Vector_8" d="M54.5807 16.4641C53.2848 19.3903 51.4316 22.1532 49.7987 24.8928C46.6289 30.2112 43.3762 35.483 40.0871 40.7289C40.0327 40.807 39.9672 40.8769 39.8927 40.9362C44.7654 38.6036 56.7656 15.4222 56.6308 13.6675C56.4831 11.7625 55.2053 7.96547 55.2053 7.96547C55.436 10.8346 55.7574 13.8075 54.5807 16.4641Z" fill="white"/>
<path id="Vector_9" d="M48.0907 12.7396C46.1348 14.0373 44.19 15.3548 42.2565 16.6922C41.6034 17.1431 40.5925 16.3837 40.8776 15.6321C44.8898 5.02804 48.8553 -5.59417 52.7742 -16.2345C55.0109 -22.3124 57.2399 -28.3954 59.3678 -34.5121C60.0158 -36.3757 60.6767 -38.2418 61.2469 -40.1313C60.1168 -39.2734 58.4192 -38.4673 57.5691 -37.8323C54.9643 -35.8936 52.3984 -33.9005 49.835 -31.9074C44.6151 -27.8511 39.4314 -23.7508 34.1415 -19.7905C32.4723 -18.5387 27.4986 -13.5701 25.07 -14.0289C22.403 -14.5343 25.2489 -20.3426 25.7024 -21.7007C27.9185 -28.3488 30.3677 -34.9191 32.7237 -41.5153C33.7605 -44.4492 34.8127 -47.3858 35.7691 -50.3483C36.0802 -51.3098 36.9484 -53.1993 37.0651 -54.4952C36.7368 -54.5114 36.4077 -54.4949 36.0827 -54.446C35.0175 -54.2153 33.9341 -54.0546 32.8663 -53.8317C29.8986 -53.2071 26.9491 -52.4788 24.0152 -51.7168C20.879 -50.9003 17.7533 -50.0372 14.6612 -49.0705C12.7122 -48.464 9.77561 -47.9638 8.14276 -46.686C5.61572 -44.7162 5.92674 -37.4357 5.57684 -34.4707C4.62304 -26.4377 3.86795 -18.3832 3.31157 -10.307C2.72323 -1.75393 2.21782 7.09459 3.86623 15.5621C4.09949 16.7751 4.51678 17.9129 4.82002 19.0948C4.86161 19.2306 4.87484 19.3735 4.8589 19.5147C5.65978 19.1337 6.57988 17.9596 7.19155 17.4023C19.8967 6.03971 32.5898 -5.33585 45.2708 -16.7244C45.9317 -17.3153 47.1369 -16.7529 46.8389 -15.8095C43.5187 -5.30216 40.3593 5.27772 37.6067 15.9483C37.402 16.7414 36.3108 16.8477 35.8935 16.1712C34.8931 14.5262 33.8797 12.8848 32.8533 11.2467C32.1146 10.0726 31.3734 8.89851 30.601 7.74774C30.601 7.7296 30.5621 7.69331 30.5492 7.67517C30.8084 9.07217 31.1868 10.6143 31.3267 11.524C31.9401 15.3651 32.6002 19.1959 33.3069 23.0162C33.9108 26.2897 34.5302 29.5632 35.2611 32.8082C35.5203 33.946 35.9661 35.1409 36.1242 36.2839C36.9873 34.664 38.8301 32.746 39.6439 31.4501C41.4997 28.4954 43.2984 25.5044 45.0868 22.5005C46.8337 19.5458 48.5547 16.5764 50.2497 13.5923C50.4934 13.1621 51.0869 11.7184 51.7193 10.407C50.4908 11.1586 49.2856 11.9439 48.0907 12.7396ZM8.01057 -35.9869C8.18941 -36.7023 9.29094 -36.3964 9.1121 -35.6837C8.8023 -34.4521 8.59682 -33.1967 8.49784 -31.9307C8.44082 -31.2024 7.29782 -31.1998 7.35484 -31.9307C7.45854 -33.2988 7.6779 -34.6558 8.01057 -35.9869V-35.9869ZM6.03818 -3.50601C6.03818 -4.2421 7.176 -4.2395 7.17859 -3.50601C7.18585 -2.39558 7.06761 -1.28789 6.8261 -0.204013C6.668 0.513925 5.56647 0.208089 5.72457 -0.507258C5.94024 -1.49208 6.04542 -2.49788 6.03818 -3.50601V-3.50601ZM5.29174 7.17754C5.07573 6.2271 5.10337 5.23749 5.37208 4.3006C5.57425 3.59562 6.668 3.89627 6.47361 4.60384C6.25555 5.34085 6.22791 6.12111 6.39327 6.8717C6.55396 7.58964 5.45243 7.89547 5.29174 7.17754ZM6.09002 13.8126C5.96821 13.074 5.8438 12.3353 5.72198 11.5966C5.60017 10.8579 6.70429 10.5599 6.82351 11.2934C6.94274 12.0269 7.06974 12.7707 7.19155 13.5094C7.31337 14.2481 6.21443 14.5358 6.09521 13.8126H6.09002ZM7.30559 -24.3703L7.45333 -27.5012C7.48961 -28.2347 8.63002 -28.2373 8.59633 -27.5012C8.54795 -26.4645 8.49784 -25.4209 8.446 -24.3703C8.41749 -23.6368 7.27449 -23.6368 7.31078 -24.3703H7.30559ZM9.20282 2.5848C9.20282 3.32088 8.06241 3.32088 8.06241 2.5848V-0.73534C8.06241 -1.47142 9.20282 -1.46883 9.20282 -0.73534V2.5848ZM11.0508 10.1556C11.0508 10.8916 9.9078 10.8916 9.9078 10.1556V7.20605C9.9078 6.46996 11.0508 6.47256 11.0508 7.20605V10.1556ZM12.1575 -27.8796C12.1083 -27.1487 10.9653 -27.1462 11.0145 -27.8796C11.0909 -29.0544 11.2757 -30.2197 11.5666 -31.3605C11.7454 -32.0732 12.8469 -31.77 12.6655 -31.0572C12.401 -30.0148 12.2327 -28.9503 12.1627 -27.877L12.1575 -27.8796ZM55.493 -33.0296C55.7185 -33.7268 56.82 -33.4288 56.5945 -32.7264C56.1954 -31.484 55.7971 -30.2425 55.3997 -29.0019C55.1742 -28.3047 54.0727 -28.6054 54.2982 -29.3052C54.699 -30.5371 55.099 -31.7778 55.4982 -33.027L55.493 -33.0296ZM54.0882 -25.8658C53.829 -25.1349 53.5699 -24.4023 53.3107 -23.6679C53.0645 -22.9785 51.9629 -23.2765 52.2091 -23.9712C52.4554 -24.6658 52.7275 -25.4381 52.9867 -26.1716C53.2407 -26.8559 54.3422 -26.5578 54.0934 -25.8632L54.0882 -25.8658ZM51.4964 -29.3181C51.7556 -30.0049 52.8493 -29.7069 52.5979 -29.0149L51.6649 -26.423C51.4057 -25.7362 50.3119 -26.0343 50.5633 -26.7263L51.4964 -29.3181ZM50.5219 -19.3655C50.7655 -20.0549 51.8696 -19.7568 51.6234 -19.0622L50.7681 -16.6388C50.5245 -15.9494 49.4203 -16.2475 49.6666 -16.9421L50.5219 -19.3655Z" fill="white"/>
<path id="Vector_10" d="M5.03255 21.5026C5.17528 21.5897 5.32531 21.6643 5.48094 21.7255C5.33579 21.6555 5.19065 21.5803 5.04032 21.5L5.03255 21.5026Z" fill="white"/>
<path id="Vector_11" d="M47.3313 25.3619C49.0419 22.5109 50.7811 19.6599 52.3362 16.7259C53.2122 15.0671 53.4584 13.398 53.4869 11.6692C53.3885 11.8299 53.277 12.001 53.1941 12.1487C51.4238 15.3574 49.5862 18.5272 47.7305 21.6893C44.6203 26.9714 41.6319 32.5179 37.9411 37.4217C37.7788 37.6301 37.6057 37.8299 37.4227 38.0204L38.9623 38.9638C41.7909 34.454 44.5805 29.9201 47.3313 25.3619Z" fill="white"/>
<path id="Vector_12" d="M48.013 12.5167C47.5672 13.626 45.7529 13.1388 46.1987 12.0191L46.3283 11.6874C45.4445 12.2809 44.5581 12.8744 43.6794 13.4731C46.7689 5.29157 49.8333 -2.8995 52.8727 -11.1001C55.2934 -17.6445 57.7013 -24.194 60.0339 -30.7695C60.8529 -33.0762 61.6668 -35.3856 62.4365 -37.7104C62.4832 -37.853 62.5532 -38.0215 62.6128 -38.1796C62.3847 -39.4081 62.0944 -40.6548 61.8352 -41.9533C61.8072 -42.0846 61.8073 -42.2204 61.8353 -42.3517C61.8634 -42.483 61.9189 -42.6069 61.9982 -42.7153C62.0775 -42.8237 62.1787 -42.9141 62.2954 -42.9806C62.412 -43.0472 62.5413 -43.0884 62.675 -43.1015C62.5616 -43.1031 62.4485 -43.0909 62.338 -43.0652C61.4361 -42.9174 60.2646 -42.0647 59.487 -41.5308C54.7517 -38.2651 50.2679 -34.6054 45.7322 -31.0728C40.8543 -27.2705 35.9946 -23.4346 30.9872 -19.8035C30.6917 -18.898 30.3954 -17.9935 30.0982 -17.0898C29.7224 -15.9442 27.9107 -16.4367 28.2839 -17.5874C28.3435 -17.7663 28.4005 -17.9425 28.4576 -18.1188C27.7448 -17.7378 26.9413 -17.3231 26.283 -16.8902C26.4852 -17.5848 26.6018 -18.409 26.7755 -18.9637C29.1081 -26.3945 31.9177 -33.6775 34.5251 -41.0099C35.6966 -44.2989 36.8784 -47.5905 37.9152 -50.9236C37.9411 -51.004 37.9774 -51.1025 38.0033 -51.1828C37.7989 -52.5392 37.494 -53.8786 37.091 -55.1898C36.7463 -56.3509 38.558 -56.8434 38.9053 -55.6874C38.9057 -55.6926 38.9057 -55.6978 38.9053 -55.703C38.8893 -55.7524 38.8685 -55.8002 38.8431 -55.8455C38.7939 -55.9865 38.7052 -56.1104 38.5875 -56.2023C38.4699 -56.2942 38.3282 -56.3503 38.1795 -56.3639C36.3238 -57.2192 31.8814 -55.8015 29.4347 -55.0524C28.9422 -54.8995 28.5042 -54.7699 28.2191 -54.6999C22.2061 -53.2666 16.1412 -51.7245 10.3354 -49.6044C6.795 -48.3085 5.67014 -47.7201 5.017 -44.006C3.72108 -36.6867 3.07053 -29.2196 2.38369 -21.8251C1.98714 -17.546 1.60614 -13.2357 1.32104 -8.92292C0.934856 -3.03946 0.753427 2.85438 1.16812 8.71711C1.32882 10.9668 1.35473 21.3627 4.83039 21.5415C4.89518 21.5415 4.97034 21.5078 5.04032 21.5026C4.91073 21.4327 4.79928 21.3886 4.6671 21.3108C3.63036 20.7095 4.56343 19.0871 5.61312 19.691C6.08265 19.968 6.58391 20.1873 7.10602 20.3441C8.40194 19.2348 9.69785 17.6667 10.351 17.0836L23.0717 5.67948L44.0475 -13.1243C43.8323 -12.4323 43.6276 -11.7377 43.4125 -11.0508L43.5343 -11.1649C44.4155 -11.9891 45.7451 -10.662 44.8613 -9.83784L42.3187 -7.46113C41.0228 -3.20015 39.7744 1.07465 38.5735 5.36327C38.1536 6.86136 37.7389 8.36204 37.3294 9.8653C37.6871 10.5055 38.0422 11.1483 38.4076 11.7781C39.0141 12.8148 37.3916 13.7712 36.7877 12.7267L36.6193 12.4364C36.5363 12.7474 36.443 13.0584 36.3601 13.3695C35.3881 11.7884 34.4214 10.2022 33.4183 8.64195C33.1177 8.17801 32.6615 7.26309 32.1224 6.35854C31.1835 6.06315 30.2222 5.84386 29.2481 5.7028C29.125 5.68581 29.0076 5.64013 28.9054 5.56945C28.8032 5.49877 28.7191 5.40506 28.6597 5.29589L28.4887 5.45658C28.4887 5.48509 28.4887 5.51879 28.4887 5.54989C28.5275 6.44925 28.8126 7.46525 28.9189 8.20652C28.9733 8.58234 29.0433 8.95297 29.1003 9.32878C29.4839 11.9206 29.8995 14.5168 30.347 17.1173C30.6684 19.0041 30.9898 20.8996 31.3112 22.8037C32.0887 27.2928 32.9129 31.7922 34.1233 36.1543C34.3029 36.9189 34.6133 37.6466 35.0408 38.3055C35.0045 37.6394 35.681 36.9474 36.4171 37.3984L37.4072 38.0049C37.5902 37.8144 37.7632 37.6145 37.9255 37.4061C41.6163 32.5024 44.6125 26.9559 47.7149 21.6737C49.5707 18.5117 51.4083 15.3418 53.1785 12.1332C53.2614 11.9854 53.3729 11.8144 53.4714 11.6537C53.4895 10.4588 53.4169 9.23807 53.3133 7.9577C53.2174 6.74991 55.0939 6.76027 55.1898 7.9577C55.193 7.79316 55.1516 7.63082 55.0699 7.48795C54.9882 7.34509 54.8693 7.22707 54.7258 7.14646C54.0157 6.84581 53.0826 7.16719 52.134 7.68556C50.9625 8.33352 49.8013 9.27954 49.0393 9.82124C48.7102 10.7284 48.3681 11.6252 48.013 12.5167ZM45.0764 22.4979C43.2984 25.5018 41.4997 28.4928 39.6336 31.4475C38.8197 32.7434 36.9769 34.6614 36.1138 36.2813C35.9557 35.1279 35.5074 33.9486 35.2508 32.8056C34.5199 29.5607 33.9004 26.2872 33.2965 23.0137C32.5933 19.1985 31.9349 15.3738 31.3215 11.5396C31.1764 10.6299 30.7876 9.08774 30.544 7.69074C30.5569 7.70889 30.5855 7.74517 30.5958 7.76331C31.3734 8.91409 32.1095 10.096 32.8481 11.2623C33.8745 12.8934 34.8879 14.5349 35.8884 16.1868C36.2979 16.8633 37.3968 16.757 37.6016 15.9639C40.3645 5.2933 43.5135 -5.28917 46.8337 -15.7939C47.1317 -16.7373 45.9265 -17.2997 45.2656 -16.7088C32.5794 -5.33755 19.8881 6.03284 7.19155 17.4024C6.5721 17.957 5.652 19.1337 4.8589 19.5147C4.87484 19.3736 4.8616 19.2306 4.82002 19.0948C4.51677 17.9129 4.09949 16.7751 3.86622 15.5622C2.21781 7.09462 2.72322 -1.7565 3.31157 -10.307C3.86622 -18.3779 4.62131 -26.4325 5.57683 -34.4706C5.92673 -37.4357 5.61571 -44.7162 8.14275 -46.686C9.78338 -47.9637 12.7199 -48.464 14.6664 -49.0731C17.7585 -50.0398 20.8868 -50.9029 24.0203 -51.7193C26.9543 -52.4813 29.9038 -53.2096 32.8715 -53.8343C33.9393 -54.0572 35.0227 -54.2178 36.0879 -54.4485C36.4129 -54.4975 36.742 -54.5139 37.0702 -54.4978C36.9484 -53.1863 36.0802 -51.3098 35.7743 -50.3508C34.805 -47.3858 33.7605 -44.4492 32.7159 -41.5204C30.3677 -34.919 27.9107 -28.3539 25.6947 -21.7059C25.2411 -20.3477 22.3953 -14.5394 25.0623 -14.034C27.4986 -13.5753 32.4723 -18.5438 34.1337 -19.7957C39.4236 -23.756 44.6073 -27.8563 49.8273 -31.9125C52.3906 -33.9056 54.9565 -35.8988 57.5613 -37.8374C58.4114 -38.4724 60.1091 -39.2785 61.2391 -40.1364C60.6689 -38.247 60.008 -36.3808 59.36 -34.5173C57.2321 -28.4006 55.0032 -22.3175 52.7664 -16.2397C48.8527 -5.5976 44.8872 5.02893 40.8699 15.6399C40.5848 16.3915 41.5956 17.1509 42.2487 16.7C44.1788 15.3643 46.1235 14.0468 48.083 12.7474C49.2778 11.9517 50.483 11.1664 51.7115 10.4148C51.0791 11.7262 50.4856 13.1699 50.2419 13.6001C48.5503 16.5773 46.8285 19.5432 45.0764 22.4979Z" fill="#1A1A1A"/>
<path id="Vector_13" d="M61.8326 -41.9533C62.1048 -40.6574 62.3873 -39.4081 62.6102 -38.1796C63.1285 -35.4115 63.3359 -32.7523 62.3769 -29.9168C60.5963 -24.6528 58.5488 -19.4691 56.5505 -14.2854C53.1983 -5.60625 49.7901 3.05135 46.3257 11.6873L46.1961 12.0191C45.7477 13.1388 47.562 13.626 48.0104 12.5167C48.3654 11.6251 48.7076 10.7284 49.0626 9.83677C52.4009 1.47292 55.7159 -6.9039 58.9479 -15.304C60.871 -20.3011 62.8875 -25.2982 64.5203 -30.4015C65.6011 -33.7709 64.7795 -37.3243 64.002 -40.7559C63.8724 -41.3209 63.7428 -41.8859 63.6288 -42.4457C63.6107 -42.5534 63.5708 -42.6563 63.5115 -42.748C63.4522 -42.8397 63.3748 -42.9183 63.284 -42.979C63.1932 -43.0397 63.091 -43.0812 62.9836 -43.1009C62.8761 -43.1206 62.7658 -43.1182 62.6594 -43.0937C62.5277 -43.0788 62.4006 -43.0366 62.2861 -42.9698C62.1716 -42.903 62.0723 -42.8131 61.9945 -42.7058C61.9168 -42.5985 61.8622 -42.4762 61.8343 -42.3466C61.8064 -42.217 61.8058 -42.0831 61.8326 -41.9533V-41.9533Z" fill="#1A1A1A"/>
<path id="Vector_14" d="M28.499 5.47215L28.6701 5.31145C28.5967 5.14523 28.5696 4.96225 28.5916 4.78187C28.6136 4.60149 28.684 4.43042 28.7953 4.28676C28.9065 4.14309 29.0546 4.03217 29.2237 3.96572C29.3928 3.89927 29.5768 3.87976 29.7561 3.90927L30.1034 3.97147C33.9048 0.417203 37.7061 -3.13534 41.5075 -6.68616L42.3213 -7.44556L44.8639 -9.82228C45.7477 -10.6465 44.4181 -11.9735 43.5369 -11.1493L43.4151 -11.0353L42.3135 -9.99852C36.7998 -4.85114 31.2844 0.298842 25.7673 5.45141C21.8691 9.09553 17.9719 12.7422 14.0755 16.3916C11.6184 18.6957 10.1126 21.2227 7.10862 20.3441C6.58014 20.1878 6.07271 19.9676 5.59758 19.6884C4.56085 19.0845 3.60187 20.707 4.65156 21.3083C4.78375 21.386 4.8952 21.4301 5.02479 21.5001C5.15438 21.57 5.32026 21.6556 5.4654 21.7255C8.60411 23.2807 10.2966 22.5212 12.7977 20.1704C13.8759 19.1562 14.9558 18.1445 16.0375 17.1354C18.8211 14.5263 21.6065 11.9172 24.3936 9.30806L28.499 5.47215Z" fill="#1A1A1A"/>
<path id="Vector_15" d="M53.3288 7.98365C53.4325 9.26401 53.505 10.4848 53.4869 11.6796C53.4584 13.4084 53.2122 15.0775 52.3361 16.7363C50.781 19.6754 49.0419 22.5238 47.3313 25.3723C44.5891 29.9339 41.8012 34.4679 38.9674 38.9742L37.4305 38.0204L36.4404 37.4139C35.7043 36.963 35.0278 37.655 35.0641 38.3211C35.0689 38.4668 35.111 38.6088 35.1863 38.7335C35.2617 38.8583 35.3677 38.9617 35.4944 39.0338L38.8067 41.0658C38.9782 41.1635 39.1764 41.2036 39.3724 41.1802C39.5683 41.1569 39.7516 41.0714 39.8953 40.9363C39.9698 40.8769 40.0353 40.8071 40.0897 40.7289C43.3787 35.483 46.6315 30.2112 49.8013 24.8928C51.4342 22.1532 53.2873 19.3903 54.5832 16.4641C55.7599 13.8075 55.4385 10.8217 55.2079 7.97328C55.1094 6.77585 53.2407 6.76548 53.3288 7.98365Z" fill="#1A1A1A"/>
<path id="Vector_16" d="M30.1034 3.97144L29.7561 3.90924C29.5768 3.87973 29.3928 3.89924 29.2237 3.96569C29.0546 4.03213 28.9066 4.14306 28.7953 4.28673C28.684 4.43039 28.6136 4.60146 28.5916 4.78184C28.5696 4.96222 28.5967 5.1452 28.6701 5.31142C28.7295 5.4206 28.8136 5.5143 28.9158 5.58498C29.018 5.65566 29.1354 5.70134 29.2585 5.71834C30.2326 5.85939 31.1939 6.07868 32.1328 6.37407C32.8507 6.63326 33.4909 7.00907 33.8667 7.66999C34.7791 9.26915 35.7044 10.8631 36.6271 12.4571L36.7955 12.7474C37.3994 13.7841 39.0219 12.8459 38.4154 11.7988C38.05 11.169 37.6949 10.5262 37.3372 9.88601C36.6374 8.63415 35.9376 7.37971 35.173 6.17191C34.1985 4.62718 31.8529 4.28506 30.1034 3.97144Z" fill="#1A1A1A"/>
<path id="Vector_17" d="M6.82608 -0.204009C7.06759 -1.28788 7.18583 -2.39558 7.17857 -3.50601C7.17857 -4.2395 6.03298 -4.24209 6.03817 -3.50601C6.0454 -2.49788 5.94022 -1.49208 5.72455 -0.507253C5.56645 0.208094 6.66798 0.51393 6.82608 -0.204009Z" fill="#1A1A1A"/>
<path id="Vector_18" d="M6.39844 6.87172C6.23308 6.12113 6.26073 5.34087 6.47879 4.60387C6.68095 3.8963 5.57942 3.59564 5.37726 4.30062C5.10855 5.23752 5.08091 6.22712 5.29691 7.17756C5.45242 7.8955 6.55395 7.58966 6.39844 6.87172Z" fill="#1A1A1A"/>
<path id="Vector_19" d="M8.06763 -0.735348V2.58738C8.06763 3.32346 9.20804 3.32346 9.20804 2.58738V-0.735348C9.20804 -1.46884 8.06763 -1.47143 8.06763 -0.735348Z" fill="#1A1A1A"/>
<path id="Vector_20" d="M5.72712 11.5966C5.84894 12.3353 5.97335 13.074 6.09516 13.8126C6.21698 14.5513 7.31592 14.2299 7.19669 13.5094C7.07747 12.7889 6.95047 12.032 6.82865 11.2934C6.70684 10.5547 5.6079 10.8761 5.72712 11.5966Z" fill="#1A1A1A"/>
<path id="Vector_21" d="M9.91298 7.20606V10.1608C9.91298 10.8968 11.056 10.8968 11.056 10.1608V7.20606C11.056 6.46998 9.91298 6.46739 9.91298 7.20606Z" fill="#1A1A1A"/>
</g>
</svg>
