<svg width="75" height="50" viewBox="0 0 75 50" fill="none" xmlns="http://www.w3.org/2000/svg">
<g id="Group 10">
<path id="Vector" d="M31.6221 35.6425C31.0074 34.9121 30.5789 34.2999 30.599 34.1036C30.6252 33.8312 31.6157 28.0545 33.0403 21.4733C32.8285 23.4726 32.6182 25.4665 32.4093 27.4548C32.1188 30.1813 31.8563 32.9105 31.6221 35.6425Z" fill="white"/>
<path id="Vector_2" d="M26.7099 35.995C23.6365 33.464 20.5667 30.931 17.5003 28.396C21.8744 31.3705 26.7405 35.4921 31.233 39.6155C31.235 39.6479 31.2373 39.683 31.2391 39.7126L26.7099 35.995Z" fill="white"/>
<path id="Vector_3" d="M15.5067 29.2933C19.7975 32.8382 24.0926 36.3782 28.3919 39.9135C34.4663 44.9169 40.5433 49.9173 46.6227 54.9149L47.8371 55.9218C48.1065 56.6306 48.3651 57.3401 48.6338 58.0382L25.5709 39.842L11.5843 28.8063C10.8616 28.2533 9.41014 26.7062 7.9887 25.6365C11.0657 24.5248 12.7985 27.0562 15.5067 29.2933Z" fill="white"/>
<path id="Vector_4" d="M68.8115 74.3253C69.9953 77.2136 69.9484 79.9952 69.5956 82.9097C69.5232 82.7491 69.4393 82.5783 69.3814 82.433C68.4194 80.0562 67.4297 77.7136 66.4261 75.3665C63.5676 68.6757 60.6325 62.0168 57.6842 55.3642C53.9834 47.0248 50.2574 38.7005 46.5062 30.3914C47.4599 30.9569 48.4213 31.5166 49.3801 32.0764C53.5428 40.8417 57.6572 49.629 61.7234 58.4383C64.1428 63.7024 66.6134 68.9633 68.8115 74.3253Z" fill="white"/>
<path id="Vector_5" d="M34.9512 38.5365C35.4503 37.5599 35.8655 36.5832 36.1503 36.0751C37.0924 34.3909 37.9943 32.6713 38.9023 30.9621C39.009 31.2804 39.1265 31.598 39.2332 31.9162C38.3773 33.6357 37.5187 35.3553 36.6739 37.0794C36.3231 37.7867 35.6811 38.2143 34.9512 38.5365Z" fill="white"/>
<path id="Vector_6" d="M41.727 39.1364C43.2668 43.5207 44.8462 47.888 46.4651 52.2383L45.5683 51.5013L41.727 39.1364Z" fill="white"/>
<path id="Vector_7" d="M72.5572 78.244C72.6474 81.3988 72.0304 83.7721 71.2216 85.5075C71.806 81.8851 72.418 78.1417 71.0818 74.6835C69.0481 69.4791 66.6215 64.4023 64.2931 59.3355C60.3784 50.7965 56.3795 42.2953 52.3576 33.8173C53.1862 34.3311 54.4566 35.2396 55.7184 35.8373L54.3771 36.0409C54.3771 36.0409 72.3096 69.837 72.5572 78.244Z" fill="white"/>
<path id="Vector_8" d="M57.6533 26.5644C56.1128 23.6038 54.0031 20.8497 52.1242 18.1054C48.4767 12.7778 44.7459 7.50413 40.979 2.25984C40.9173 2.18204 40.8446 2.11363 40.7631 2.05677C45.9873 4.1653 59.9955 27.5057 59.9702 29.3407C59.9413 31.3331 58.8602 35.3687 58.8602 35.3687C58.9123 32.3674 59.052 29.2523 57.6533 26.5644Z" fill="white"/>
<path id="Vector_9" d="M51.1427 30.866C49.022 29.6435 46.9116 28.3997 44.8116 27.1345C44.1023 26.7079 43.1 27.5645 43.446 28.3281C48.3165 39.1017 53.1396 49.8972 57.9154 60.7147C60.6415 66.8938 63.3599 73.0788 65.9753 79.3055C66.7718 81.2026 67.5819 83.1015 68.2992 85.0307C67.0668 84.2118 65.2472 83.4841 64.3208 82.8789C61.4827 81.0318 58.6816 79.1255 55.8832 77.2191C50.1847 73.3395 44.521 69.4116 38.7559 65.6364C36.9367 64.4428 31.4346 59.5975 28.9371 60.2341C26.1945 60.9349 29.5369 66.7936 30.0979 68.1773C32.8399 74.9513 35.8195 81.629 38.7037 88.3398C39.9749 91.3255 41.2625 94.3129 42.4519 97.3335C42.8386 98.3139 43.8661 100.223 44.0724 101.565C43.7318 101.603 43.3883 101.607 43.0468 101.578C41.923 101.407 40.7849 101.311 39.6589 101.149C36.5294 100.693 33.4119 100.129 30.3084 99.5278C26.9909 98.8836 23.6811 98.1901 20.3997 97.3865C18.3314 96.883 15.2423 96.5547 13.4592 95.3318C10.7001 93.4473 10.5468 85.8496 9.98835 82.7865C8.46938 74.4885 7.15581 66.155 6.04763 57.786C4.87493 48.9227 3.7692 39.7465 4.93006 30.8258C5.09337 29.548 5.45313 28.3365 5.6913 27.0866C5.72569 26.9425 5.7301 26.7929 5.70426 26.647C6.56275 26.9911 7.59729 28.1528 8.27041 28.6927C22.2381 39.6862 36.194 50.694 50.1382 61.7161C50.8647 62.2878 52.0822 61.6235 51.7102 60.6611C47.5663 49.9429 43.5849 39.1386 40.021 28.2133C39.756 27.4013 38.6133 27.3622 38.2234 28.0936C37.2899 29.8711 36.3427 31.6459 35.3818 33.418C34.6899 34.6884 33.9954 35.9589 33.2669 37.2072C33.2681 37.2261 33.23 37.2664 33.2177 37.2861C33.3959 35.8152 33.6887 34.1854 33.7748 33.2294C34.1616 29.1915 34.5976 25.1613 35.0828 21.1389C35.4968 17.6923 35.9271 14.2448 36.4752 10.8196C36.6704 9.61843 37.0561 8.34567 37.1458 7.14571C38.1502 8.77511 40.1937 10.6505 41.1257 11.946C43.2507 14.8996 45.3187 17.8947 47.3768 20.9039C49.3885 23.8646 51.3742 26.8423 53.3339 29.837C53.6156 30.2688 54.3279 31.7325 55.072 33.056C53.7442 32.3542 52.4384 31.6158 51.1427 30.866ZM12.6207 84.2051C12.8537 84.9379 13.9801 84.5475 13.7472 83.8174C13.3441 82.5559 13.048 81.2628 12.862 79.9516C12.755 79.1973 11.5652 79.2695 11.6724 80.0265C11.87 81.4436 12.1872 82.8415 12.6207 84.2051V84.2051ZM8.43984 50.5291C8.48807 51.2952 9.67211 51.2179 9.62675 50.4544C9.56155 49.2982 9.36591 48.1531 9.04355 47.0408C8.83197 46.304 7.70556 46.6944 7.91698 47.4286C8.20595 48.4395 8.38133 49.4794 8.43984 50.5291V50.5291ZM6.96302 39.4588C6.80048 40.4622 6.89407 41.4903 7.23512 42.4478C7.49172 43.1683 8.61037 42.7837 8.3617 42.06C8.08646 41.3073 8.00657 40.497 8.1295 39.705C8.24971 38.9472 7.08323 38.7011 6.96302 39.4588ZM7.35915 32.5009C7.28076 33.2777 7.19968 34.0546 7.12129 34.8314C7.0429 35.6081 8.21157 35.846 8.2876 35.0748C8.36363 34.3036 8.44707 33.5211 8.52546 32.7443C8.60385 31.9676 7.44125 31.7401 7.36454 32.5005L7.35915 32.5009ZM11.1259 72.1611L11.4847 75.41C11.5706 76.171 12.7576 76.099 12.6744 75.3351C12.5561 74.2593 12.4355 73.1763 12.3128 72.0863C12.235 71.3248 11.0454 71.3997 11.1313 72.1607L11.1259 72.1611ZM11.3345 43.9826C11.2862 43.2165 10.0993 43.2912 10.1476 44.0573L10.3651 47.5128C10.4133 48.2789 11.6 48.2015 11.552 47.4381L11.3345 43.9826ZM12.7618 35.9821C12.7136 35.216 11.524 35.2909 11.5722 36.057L11.7654 39.1267C11.8137 39.8928 13.0031 39.8152 12.955 39.0518L12.7618 35.9821ZM16.4055 75.4956C16.3064 74.7381 15.1166 74.8103 15.2159 75.5705C15.3724 76.7882 15.6411 77.9888 16.0185 79.1571C16.2514 79.8872 17.3779 79.4994 17.1424 78.7695C16.7989 77.7018 16.554 76.605 16.4108 75.4926L16.4055 75.4956ZM61.8454 78.0164C62.1258 78.7273 63.2527 78.3449 62.972 77.6287C62.4752 76.3618 61.9793 75.0958 61.4844 73.8306C61.2041 73.1197 60.0773 73.5048 60.3578 74.2184C60.8558 75.4743 61.3534 76.7393 61.8506 78.0134L61.8454 78.0164ZM59.914 70.6525C59.5964 69.9088 59.2786 69.1633 58.9608 68.416C58.6593 67.7146 57.5324 68.097 57.8342 68.8038C58.136 69.5106 58.4698 70.2966 58.7876 71.043C59.0968 71.7385 60.2237 71.3561 59.9192 70.6495L59.914 70.6525ZM57.4427 74.4154C57.7574 75.1133 58.8762 74.7314 58.5693 74.0277L57.4283 71.3913C57.1136 70.6934 55.9948 71.0753 56.3018 71.779L57.4427 74.4154ZM55.7764 64.1208C56.0751 64.8224 57.2047 64.4398 56.9029 63.733L55.854 61.2669C55.5552 60.5653 54.4256 60.9479 54.7274 61.6547L55.7764 64.1208Z" fill="white"/>
<path id="Vector_10" d="M5.75474 24.5666C5.89759 24.4666 6.04884 24.3792 6.20681 24.3053C6.06034 24.3876 5.9142 24.4754 5.76301 24.5688L5.75474 24.5666Z" fill="white"/>
<path id="Vector_11" d="M49.5254 17.7788C51.4926 20.634 53.4894 23.4873 55.3001 26.439C56.3205 28.108 56.6862 29.8291 56.8291 31.6265C56.7161 31.4657 56.5889 31.295 56.4929 31.1466C54.4402 27.9231 52.32 24.7444 50.1814 21.575C46.5984 16.2813 43.1247 10.7044 38.9622 5.84247C38.7796 5.63624 38.5864 5.43958 38.3835 5.2533L39.924 4.17054C43.1633 8.6789 46.3638 13.215 49.5254 17.7788Z" fill="white"/>
<path id="Vector_12" d="M51.0764 31.103C50.5398 29.9777 48.6834 30.6037 49.2207 31.7398L49.3774 32.0766C48.4186 31.5168 47.4572 30.9571 46.5035 30.3915C50.255 38.7043 53.981 47.0286 57.6815 55.3644C60.6298 62.017 63.5648 68.6759 66.4234 75.3667C67.4269 77.7138 68.4253 80.064 69.3787 82.4332C69.4366 82.5785 69.5205 82.7493 69.5929 82.9099C69.436 84.2035 69.2156 85.52 69.0309 86.8884C69.0103 87.0269 69.0193 87.1682 69.0571 87.3031C69.0949 87.4379 69.1608 87.5632 69.2504 87.6708C69.34 87.7784 69.4513 87.8659 69.5771 87.9275C69.7028 87.9892 69.8402 88.0235 69.9801 88.0284C69.8622 88.0375 69.7437 88.0323 69.6271 88.0127C68.6786 87.9181 67.4035 87.1073 66.5593 86.6026C61.4169 83.5139 56.5105 79.9988 51.5584 76.6193C46.2325 72.9816 40.9234 69.3076 35.4739 65.8565C35.1071 64.9335 34.7394 64.0115 34.3709 63.0904C33.9047 61.9228 32.0514 62.554 32.5152 63.7272C32.589 63.9094 32.6598 64.0891 32.7307 64.2688C31.964 63.919 31.1006 63.54 30.387 63.1327C30.643 63.8424 30.8183 64.6925 31.0354 65.2584C33.95 72.8394 37.3513 80.2353 40.5454 87.6958C41.9801 91.0422 43.4258 94.3906 44.7232 97.7917C44.7554 97.8736 44.7997 97.9737 44.8319 98.0556C44.7081 99.4808 44.4784 100.895 44.1449 102.286C43.8622 103.517 45.78 103.911 46.0658 102.685C46.0666 102.69 46.0669 102.696 46.0668 102.701C46.0535 102.754 46.0349 102.805 46.0114 102.853C45.9695 103.003 45.8853 103.138 45.7688 103.242C45.6524 103.345 45.5086 103.413 45.3548 103.436C43.4794 104.448 38.763 103.264 36.1674 102.644C35.6449 102.518 35.1805 102.411 34.8792 102.357C28.5271 101.259 22.1138 100.052 15.9325 98.2255C12.1628 97.1087 10.9535 96.5701 10.0304 92.7473C8.20213 85.2145 7.03584 77.4855 5.83655 69.8345C5.14348 65.4069 4.46456 60.9459 3.88527 56.4759C3.09788 50.3778 2.52292 44.2556 2.57042 38.1266C2.59028 35.7747 1.93616 24.9532 5.54181 24.5394C5.60925 24.5351 5.68969 24.5653 5.76286 24.5661C5.63257 24.6474 5.51946 24.7006 5.38698 24.7902C4.34737 25.4839 5.42477 27.1114 6.4777 26.4141C6.94823 26.0951 7.45556 25.834 7.98868 25.6365C9.41012 26.7062 10.8616 28.2533 11.5796 28.8174L25.5661 39.8531L48.6291 58.0493C48.3599 57.3432 48.1012 56.6337 47.8324 55.9329L47.9666 56.0436C48.9378 56.8437 50.2346 55.3755 49.2608 54.5756L46.4588 52.2685C44.8309 47.9187 43.2515 43.5514 41.7207 39.1666C41.1856 37.6349 40.6556 36.1002 40.1309 34.5625C40.4613 33.8728 40.7887 33.1805 41.1278 32.5011C41.6911 31.3823 39.9398 30.4933 39.3797 31.6199L39.2234 31.9331C39.1167 31.6148 38.9992 31.2972 38.8925 30.979C37.9845 32.6881 37.0823 34.4024 36.1405 36.092C35.858 36.5945 35.4432 37.5766 34.9414 38.5534C33.9835 38.9223 32.9974 39.2135 31.9928 39.4242C31.8658 39.4499 31.7466 39.5052 31.6449 39.5854C31.5432 39.6657 31.4617 39.7687 31.4071 39.8862L31.2186 39.7302C31.2167 39.7005 31.2145 39.6654 31.2124 39.6331C31.194 38.6945 31.4241 37.6184 31.4862 36.8399C31.5182 36.4452 31.5668 36.0549 31.6015 35.66C31.8309 32.9374 32.0933 30.2081 32.3887 27.4723C32.5996 25.4875 32.8099 23.4936 33.0196 21.4908C33.5348 16.7678 34.0978 12.0309 35.0718 7.41164C35.2086 6.60412 35.484 5.82633 35.8858 5.1126C35.8916 5.80824 36.641 6.48415 37.3776 5.96656L38.3683 5.27048C38.5712 5.45676 38.7644 5.65341 38.947 5.85964C43.1096 10.7215 46.5913 16.2979 50.1663 21.5922C52.3048 24.7616 54.4251 27.9403 56.4777 31.1638C56.5737 31.3121 56.7009 31.4829 56.8139 31.6437C56.9111 32.886 56.9155 34.1613 56.8915 35.5007C56.8708 36.764 58.8232 36.6303 58.8445 35.3777C58.8587 35.5488 58.8262 35.7205 58.7506 35.8745C58.6749 36.0285 58.5589 36.1592 58.4148 36.2525C57.6954 36.6119 56.7032 36.3385 55.682 35.8612C54.4202 35.2636 53.1498 34.355 52.3212 33.8412C51.9192 32.9186 51.5044 32.0077 51.0764 31.103ZM47.3662 20.9073C45.3189 17.8973 43.2509 14.9022 41.1151 11.9493C40.1831 10.6539 38.1396 8.77846 37.1352 7.14906C37.0462 8.35981 36.6568 9.61656 36.4646 10.823C35.9165 14.2481 35.4862 17.6957 35.0722 21.1422C34.5902 25.159 34.1556 29.1828 33.7684 33.2135C33.6769 34.1699 33.3734 35.8004 33.2113 37.2703C33.2236 37.2505 33.2509 37.2109 33.2605 37.1913C33.9944 35.9427 34.683 34.6644 35.3754 33.4021C36.3368 31.6373 37.284 29.8624 38.217 28.0777C38.5989 27.3468 39.7496 27.3854 40.0146 28.1974C43.5893 39.1221 47.5601 49.9297 51.7038 60.6452C52.0758 61.6076 50.8583 62.2719 50.1318 61.7002C36.1833 50.6964 22.2295 39.6939 8.27043 28.6926C7.58939 28.1559 6.55468 26.9916 5.70427 26.647C5.73011 26.7928 5.7257 26.9424 5.69132 27.0865C5.45314 28.3365 5.09339 29.548 4.93008 30.8257C3.76921 39.7465 4.87512 48.9254 6.04764 57.786C7.15368 66.1497 8.46726 74.4832 9.98837 82.7865C10.5468 85.8495 10.7001 93.4472 13.4592 95.3318C15.2504 96.5542 18.3395 96.8824 20.4052 97.3888C23.6867 98.1924 26.9992 98.8857 30.314 99.5301C33.4175 100.131 36.535 100.696 39.6645 101.151C40.7905 101.313 41.9286 101.41 43.0524 101.58C43.3939 101.61 43.7374 101.605 44.078 101.567C43.8653 100.21 42.8387 98.3138 42.4575 97.3358C41.2544 94.3133 39.9749 91.3255 38.6959 88.3457C35.8195 81.629 32.8321 74.9572 30.0902 68.1832C29.5292 66.7994 26.1867 60.9407 28.9294 60.24C31.435 59.6029 36.937 64.4482 38.7482 65.6422C44.5133 69.4175 50.1769 73.3453 55.8755 77.225C58.6739 79.1314 61.475 81.0377 64.313 82.8848C65.2394 83.49 67.0591 84.2177 68.2914 85.0365C67.5742 83.1074 66.7641 81.2085 65.9676 79.3114C63.3522 73.0847 60.6338 66.8997 57.9076 60.7205C53.1372 49.9009 48.3138 39.1009 43.4374 28.3205C43.0915 27.5569 44.0937 26.7003 44.8031 27.1269C46.8993 28.3905 49.0097 29.6344 51.1341 30.8583C52.4298 31.6082 53.7356 32.3466 55.0635 33.0484C54.3194 31.7249 53.607 30.2612 53.3253 29.8294C51.3697 26.8417 49.3833 23.8676 47.3662 20.9073Z" fill="#1A1A1A"/>
<path id="Vector_13" d="M69.0282 86.8886C69.2265 85.522 69.4387 84.2033 69.5902 82.9101C69.9484 79.9952 69.9899 77.214 68.8061 74.3257C66.608 68.9637 64.1374 63.7028 61.718 58.4387C57.6606 49.6252 53.5461 40.8379 49.3746 32.0768L49.218 31.74C48.678 30.604 50.5343 29.978 51.0737 31.1032C51.5017 32.0079 51.9165 32.9188 52.3445 33.8235C56.3668 42.3097 60.3658 50.8109 64.2799 59.3418C66.6088 64.4166 69.0349 69.4853 71.0687 74.6897C72.4143 78.1257 71.792 81.8778 71.2076 85.5003C71.1097 86.0968 71.0118 86.6934 70.9298 87.2835C70.9181 87.3968 70.8833 87.5064 70.8276 87.6058C70.7719 87.7051 70.6965 87.792 70.6059 87.8611C70.5154 87.9302 70.4117 87.9801 70.3012 88.0076C70.1907 88.0352 70.0758 88.0399 69.9634 88.0214C69.8254 88.0145 69.6903 87.9789 69.5668 87.9169C69.4433 87.8549 69.334 87.7678 69.246 87.6612C69.158 87.5547 69.0932 87.4309 69.0557 87.2979C69.0182 87.1649 69.0088 87.0255 69.0282 86.8886V86.8886Z" fill="#1A1A1A"/>
<path id="Vector_14" d="M31.2283 39.7133L31.4169 39.8694C31.3514 40.0472 31.3351 40.2394 31.3699 40.4257C31.4046 40.612 31.4891 40.7854 31.6143 40.9276C31.7395 41.0699 31.9008 41.1756 32.0812 41.2337C32.2616 41.2918 32.4543 41.3 32.639 41.2576L32.9964 41.1701C37.1856 44.6202 41.3747 48.0686 45.5637 51.5151L46.4605 52.2522L49.2625 54.5592C50.2363 55.3591 48.9394 56.8274 47.9683 56.0273L47.834 55.9166L46.6197 54.9097C40.5439 49.9137 34.4662 44.9151 28.3865 39.9139C24.0907 36.3766 19.7956 32.8365 15.5012 29.2937C12.793 27.0565 11.0602 24.5251 7.99137 25.6364C7.45158 25.8337 6.93788 26.0961 6.46168 26.4179C5.42224 27.1143 4.31786 25.4885 5.37096 24.7939C5.50344 24.7043 5.61654 24.6511 5.74683 24.5698C5.87713 24.4885 6.04416 24.3886 6.19064 24.3063C9.35545 22.4821 11.1667 23.1616 13.9238 25.4444C15.1124 26.4294 16.3027 27.4116 17.4945 28.3909C20.5626 30.9241 23.6325 33.4571 26.7041 35.99L31.2283 39.7133Z" fill="#1A1A1A"/>
<path id="Vector_15" d="M56.906 35.4727C56.93 34.1333 56.9256 32.858 56.8284 31.6157C56.6855 29.8183 56.3199 28.0972 55.2994 26.4282C53.4884 23.4711 51.4917 20.6205 49.5247 17.768C46.3719 13.2 43.1732 8.6638 39.9287 4.15937L38.3916 5.25275L37.4009 5.94884C36.6643 6.46643 35.9149 5.79052 35.9091 5.09488C35.9045 4.94295 35.939 4.7924 36.0092 4.6576C36.0795 4.52279 36.1831 4.40824 36.3101 4.32487L39.6244 1.993C39.7965 1.88016 40.0002 1.82545 40.2056 1.83689C40.4111 1.84833 40.6074 1.92532 40.7659 2.05656C40.8473 2.11342 40.92 2.18183 40.9818 2.25963C44.7486 7.50392 48.4794 12.7776 52.1269 18.1052C54.0058 20.8495 56.1156 23.6036 57.656 26.5642C59.0547 29.2521 58.9159 32.3807 58.8624 35.3604C58.8384 36.6131 56.8941 36.7463 56.906 35.4727Z" fill="#1A1A1A"/>
<path id="Vector_16" d="M32.9965 41.1701L32.6391 41.2576C32.4544 41.3001 32.2617 41.2918 32.0813 41.2337C31.9009 41.1757 31.7396 41.0699 31.6143 40.9277C31.4891 40.7855 31.4047 40.612 31.3699 40.4257C31.3352 40.2394 31.3514 40.0472 31.4169 39.8694C31.4715 39.7519 31.553 39.6489 31.6547 39.5686C31.7565 39.4883 31.8756 39.4331 32.0026 39.4074C33.0073 39.1967 33.9933 38.9055 34.9512 38.5366C35.6814 38.2198 36.3231 37.7867 36.6709 37.0742C37.5157 35.3501 38.3743 33.6305 39.2302 31.9111L39.3865 31.5979C39.9471 30.4793 41.6972 31.3495 41.1346 32.4791C40.7955 33.1585 40.468 33.8507 40.1377 34.5405C39.4914 35.8892 38.8453 37.2407 38.1286 38.5478C37.2156 40.2194 34.7967 40.7291 32.9965 41.1701Z" fill="#1A1A1A"/>
<path id="Vector_17" d="M9.0436 47.0408C9.36596 48.1531 9.5616 49.2982 9.62679 50.4544C9.67485 51.2178 8.48272 51.2955 8.43989 50.5291C8.38137 49.4794 8.206 48.4395 7.91702 47.4286C7.70561 46.6944 8.83202 46.304 9.0436 47.0408Z" fill="#1A1A1A"/>
<path id="Vector_18" d="M8.13491 39.7046C8.01198 40.4967 8.09188 41.3069 8.36711 42.0597C8.62388 42.7829 7.49713 43.1679 7.24054 42.4475C6.89949 41.49 6.80589 40.4618 6.96843 39.4585C7.08324 38.7011 8.24972 38.9472 8.13491 39.7046Z" fill="#1A1A1A"/>
<path id="Vector_19" d="M10.3705 47.5125L10.1528 44.0543C10.1046 43.2882 11.2915 43.2135 11.3397 43.9796L11.5574 47.4378C11.6054 48.2012 10.4187 48.2786 10.3705 47.5125Z" fill="#1A1A1A"/>
<path id="Vector_20" d="M7.12672 34.831C7.20511 34.0542 7.2862 33.2773 7.36459 32.5005C7.44297 31.7238 8.60778 31.9863 8.5309 32.744C8.45402 33.5017 8.37142 34.2977 8.29303 35.0745C8.21465 35.8512 7.04984 35.5887 7.12672 34.831Z" fill="#1A1A1A"/>
<path id="Vector_21" d="M11.7708 39.1264L11.5772 36.0512C11.529 35.2851 12.7186 35.2102 12.7668 35.9763L12.9604 39.0515C13.0086 39.8176 11.8192 39.8952 11.7708 39.1264Z" fill="#1A1A1A"/>
</g>
</svg>
