<svg width="81" height="143" viewBox="0 0 81 143" fill="none" xmlns="http://www.w3.org/2000/svg">
<g id="Group 7">
<path id="Vector" d="M77.43 52.7189C77.0224 49.9113 76.4398 47.1319 75.6856 44.3969C74.7578 45.4459 73.8403 46.5071 72.9331 47.5804L74.5264 56.8164C75.5441 55.3774 76.5258 53.9912 77.43 52.7189Z" fill="#FFE761"/>
<path id="Vector_2" d="M73.4339 58.3011C72.8923 55.1602 72.3517 52.0195 71.8121 48.8791C70.8301 50.068 69.8915 51.2936 68.9407 52.5064C69.2516 55.7723 69.7273 59.0072 70.3278 62.2317C71.3444 60.9019 72.3877 59.6011 73.4339 58.3011Z" fill="#FFE761"/>
<path id="Vector_3" d="M69.2469 63.6381C69.2356 63.6101 69.2085 63.606 69.201 63.5758C68.5792 60.3956 68.1198 57.1933 67.7714 53.9737C66.7021 55.3562 65.6493 56.7629 64.6129 58.1938L65.4065 68.896C66.6666 67.1286 67.9467 65.376 69.2469 63.6381Z" fill="#FFE761"/>
<path id="Vector_4" d="M61.6785 74.3654C62.526 73.106 63.3794 71.8482 64.2508 70.6047C64.2571 70.5814 64.2228 70.569 64.2203 70.5433L63.4276 59.8727C62.2824 61.4685 61.1547 63.0763 60.0448 64.6961C60.1357 64.7639 60.1993 64.862 60.2242 64.9726C60.6976 68.0953 61.1824 71.2262 61.6785 74.3654Z" fill="#FFE761"/>
<path id="Vector_5" d="M81.0561 47.5946C80.9018 46.7689 80.7474 45.9399 80.5927 45.1078C80.5721 44.9615 80.6043 44.8126 80.6834 44.6877C79.4337 44.3529 78.1722 44.0743 76.9151 43.7907C77.5861 46.2272 78.121 48.6992 78.5172 51.1953C79.4324 49.8821 80.2984 48.659 81.0561 47.5946Z" fill="#FFE761"/>
<path id="Vector_6" d="M70.7707 34.2897C66.4734 33.4367 62.1188 32.9028 57.7427 32.6921C57.5505 32.6903 57.3621 32.6384 57.196 32.5416C57.0299 32.4448 56.8919 32.3064 56.7956 32.1401C56.6994 31.9737 56.6481 31.7851 56.6468 31.5929C56.6456 31.4007 56.6945 31.2115 56.7886 31.0439C62.2829 21.7856 71.733 14.3947 79.7729 7.45511C85.2846 2.69834 90.9053 -1.92804 96.635 -6.42403C87.6382 -8.32776 78.5554 -10.1325 69.4281 -11.1637C67.4112 -11.3912 64.7223 -11.9489 62.6705 -11.3221C53.5593 0.725345 28.1276 36.7296 24.0011 47.0146C24.1736 47.1766 24.5584 47.2704 25.4042 47.5126C27.8609 48.2241 30.5646 48.2945 33.1062 48.4091C37.2494 48.5961 41.4168 48.5643 45.5604 48.3759C46.3588 48.3395 46.9849 49.3428 46.5137 50.027C42.2689 56.1872 39.0598 63.3635 36.2606 70.6339L50.9379 74.5667C59.0027 61.7413 67.8442 49.2523 78.2736 38.3936L70.7707 34.2897ZM44.5995 22.7302C40.4127 28.6227 36.6256 34.7891 33.2636 41.1881C32.6157 42.4384 30.7236 41.3243 31.3708 40.077C34.7328 33.678 38.5199 27.5115 42.7067 21.6191C43.5213 20.4824 45.4151 21.5781 44.5995 22.7302V22.7302ZM47.5437 19.2632L47.278 19.192C45.9175 18.8275 46.4839 16.7136 47.8444 17.0782L48.1101 17.1494C49.4707 17.5139 48.903 19.6212 47.5453 19.2574L47.5437 19.2632Z" fill="#FFE761"/>
<path id="Vector_7" d="M68.5574 28.3486C68.6163 29.0748 68.8753 30.1518 68.8471 31.0862C70.0001 29.8899 71.2065 28.7393 72.3927 27.5707C72.1675 23.9617 72.1366 20.3515 72.2721 16.7391C70.7566 18.0896 69.278 19.4771 67.8365 20.9017C67.8915 20.9884 67.9703 21.0564 67.9807 21.1813L68.5574 28.3486Z" fill="#FFE761"/>
<path id="Vector_8" d="M59.0493 66.1223C58.0845 67.5505 57.1227 68.9795 56.1811 70.4264C56.2817 70.4978 56.3525 70.6036 56.38 70.7238L57.3058 76.2729L59.9072 76.97C60.13 76.6291 60.3491 76.2904 60.574 75.9533L59.0493 66.1223Z" fill="#FFE761"/>
<path id="Vector_9" d="M83.995 43.4002L84.9589 42.0218L80.2704 39.4669C79.5183 40.2417 78.7611 41.0121 78.0255 41.807C80.0341 42.268 82.0239 42.7991 83.995 43.4002Z" fill="#FFE761"/>
<path id="Vector_10" d="M67.5063 31.2433C67.4387 30.8183 67.318 29.4936 67.29 29.1544L67.0977 26.7652L66.7136 22.009C65.4722 23.2786 64.2884 24.5824 63.1621 25.9204C63.2763 25.9572 63.3755 26.0302 63.4446 26.1283C63.5137 26.2264 63.549 26.3443 63.5452 26.4643C63.5261 27.9948 63.695 29.5219 64.048 31.0113C65.1538 31.1355 66.2562 31.3308 67.3598 31.4982C67.3908 31.4408 67.3934 31.3726 67.4317 31.3234L67.5063 31.2433Z" fill="#FFE761"/>
<path id="Vector_11" d="M30.1536 51.6736C29.7551 52.4367 29.385 53.2107 29.0505 54.0035C29.7113 54.0366 30.3871 54.0487 31.0866 54.0077L30.1536 51.6736Z" fill="#FFE761"/>
<path id="Vector_12" d="M59.6591 30.6552C60.6647 30.7212 61.6687 30.7931 62.6774 30.8944C62.4093 29.6399 62.2643 28.3622 62.2444 27.0795C61.3201 28.2401 60.4583 29.4319 59.6591 30.6552Z" fill="#FFE761"/>
<path id="Vector_13" d="M23.4218 49.1532C23.0378 51.754 24.4325 53.101 26.646 53.669C27.0654 52.6001 27.5733 51.568 28.1644 50.5836C26.2569 50.2978 24.5943 49.846 23.4218 49.1532Z" fill="#FFE761"/>
<path id="Vector_14" d="M39.7608 57.8278L39.8339 57.8818C39.9965 57.5436 40.1453 57.1986 40.3116 56.8582C40.7802 55.8916 41.2651 54.9232 41.7567 53.9409L41.2868 53.0201C40.9851 53.9594 40.4593 55.6179 39.7608 57.8278Z" fill="#FFE761"/>
<path id="Vector_15" d="M88.6638 15.6986C82.5001 20.9034 76.5356 26.3337 70.9383 32.0877L71.0405 32.1151C74.6372 28.8292 83.7094 20.5359 91.9647 12.9562C90.92 13.8185 89.8761 14.6778 88.8384 15.5608C88.7914 15.6194 88.7317 15.6665 88.6638 15.6986Z" fill="#FFE761"/>
<path id="Vector_16" d="M35.9554 53.4254C35.5841 52.6155 35.2157 51.8065 34.8052 51.0143C33.6204 51.0097 32.4347 50.9737 31.2716 50.8998L32.4719 53.9064C33.666 53.7945 34.8442 53.6252 35.9554 53.4254Z" fill="#FFE761"/>
<path id="Vector_17" d="M82.5374 18.1127C82.5183 18.0308 82.5216 17.9452 82.5469 17.865C82.5723 17.7848 82.6188 17.7129 82.6815 17.6569C82.3884 14.593 82.1343 11.5238 81.9499 8.45149C80.764 9.46684 79.5457 10.4985 78.3051 11.543C78.2784 14.9051 78.3864 18.2626 78.6291 21.6155C79.9243 20.4334 81.2271 19.2658 82.5374 18.1127Z" fill="#FFE761"/>
<path id="Vector_18" d="M83.9505 16.8453C85.1492 15.8052 86.3782 14.7921 87.5905 13.7713C87.3542 10.5578 87.196 7.34121 87.1157 4.12153C85.78 5.24068 84.4334 6.35378 83.11 7.4856C83.1541 7.56626 83.2265 7.6232 83.2341 7.73478C83.411 10.7769 83.6679 13.8124 83.9505 16.8453Z" fill="#FFE761"/>
<path id="Vector_19" d="M43.5763 50.6889C42.9993 50.7283 42.3629 50.7675 41.668 50.8034L42.5063 52.4863C42.8371 51.8709 43.2186 51.2878 43.5763 50.6889Z" fill="#FFE761"/>
<path id="Vector_20" d="M77.4872 22.6426C77.4351 22.5567 77.3563 22.4886 77.3452 22.3667C77.0975 19.1335 76.9943 15.8983 76.9931 12.656C75.8724 13.6074 74.7502 14.572 73.6266 15.5498C73.4578 19.1346 73.4944 22.7118 73.679 26.2974C74.9431 25.0715 76.1964 23.8395 77.4872 22.6426Z" fill="#FFE761"/>
<path id="Vector_21" d="M40.922 52.3027L40.2002 50.8857C38.9791 50.9466 37.649 50.9938 36.2769 51.0111C36.6284 51.7311 36.9712 52.4489 37.3023 53.1635C38.9048 52.8355 40.1987 52.5032 40.922 52.3027Z" fill="#FFE761"/>
<path id="Vector_22" d="M55.2325 71.8997C54.5345 72.9863 53.8294 74.0647 53.1394 75.1566L55.8985 75.8959L55.2325 71.8997Z" fill="#FFE761"/>
<path id="Vector_23" d="M81.0561 47.5946L81.0643 47.6343C81.1117 48.1493 81.2067 48.6587 81.3481 49.1561C81.7169 48.7605 82.1017 48.3755 82.4757 47.9844C82.455 47.863 82.4391 47.7586 82.4316 47.7285L82.267 46.8363L82.1257 46.0787C82.058 45.7476 81.9965 45.3932 81.9348 45.0512C81.5143 44.9385 81.1046 44.7975 80.6834 44.6877C80.6043 44.8126 80.5722 44.9615 80.5928 45.1078C80.744 45.9369 80.8985 46.7659 81.0561 47.5946Z" fill="#1A1A1A"/>
<path id="Vector_24" d="M36.2605 70.6339C39.0567 63.3752 42.2688 56.1872 46.5137 50.027C46.9849 49.3428 46.3588 48.3395 45.5604 48.3759C41.4168 48.5643 37.2494 48.5961 33.1062 48.4091C30.5646 48.2945 27.8609 48.2241 25.4041 47.5126C24.5701 47.2735 24.172 47.1825 24.0011 47.0146C23.7817 46.8056 23.9404 46.482 24.1113 45.564C24.723 42.3232 27.5923 38.6922 29.2491 35.9191C31.8362 31.5898 34.5584 27.3279 37.3178 23.1261C43.177 14.1878 49.228 5.35092 55.5487 -3.25409C57.2349 -5.55295 59.0901 -9.1365 61.4391 -10.8259C61.8189 -11.0572 62.2338 -11.2251 62.6676 -11.3229C64.7135 -11.9513 67.4082 -11.392 69.4251 -11.1645C78.5583 -10.1317 87.6411 -8.327 96.6321 -6.42483C90.8995 -1.93377 85.2788 2.69261 79.77 7.45432C71.7348 14.3764 62.28 21.7848 56.7857 31.0431C56.6915 31.2107 56.6427 31.3999 56.6439 31.5921C56.6451 31.7843 56.6964 31.9729 56.7927 32.1393C56.889 32.3056 57.027 32.444 57.193 32.5408C57.3591 32.6376 57.5475 32.6895 57.7397 32.6913C62.1159 32.902 66.4704 33.4359 70.7678 34.2889C73.854 34.9031 76.8987 35.7095 79.8843 36.7035C79.339 37.2552 78.8119 37.8212 78.2746 38.3782C67.8501 49.2539 58.9998 61.7405 50.9389 74.5513L53.1403 75.1412C53.8303 74.0493 54.5355 72.9709 55.2335 71.8843L55.0978 71.0593C55.0746 70.9246 55.0927 70.786 55.1498 70.6617C55.2069 70.5375 55.3002 70.4334 55.4176 70.3633C55.5349 70.2931 55.6708 70.2601 55.8072 70.2687C55.9437 70.2772 56.0744 70.3268 56.1821 70.4111C57.1237 68.9641 58.0855 67.5351 59.0503 66.1069L58.9268 65.2946C58.9022 65.1572 58.9209 65.0156 58.9803 64.8893C59.0396 64.7629 59.1367 64.6581 59.2582 64.5894C59.3797 64.5206 59.5195 64.4912 59.6584 64.5053C59.7973 64.5194 59.9283 64.5763 60.0335 64.668C61.1445 63.0443 62.2721 61.4365 63.4163 59.8446C63.3761 59.2706 63.334 58.696 63.2899 58.1209C63.2259 57.262 64.5588 57.2624 64.6223 58.1118C64.6168 58.1323 64.6113 58.1527 64.6284 58.1823C65.6666 56.7602 66.7195 55.3535 67.787 53.9623C67.7329 53.4752 67.6596 52.9893 67.6121 52.501C67.5283 51.6461 68.8642 51.6473 68.9445 52.4918C69.8954 51.279 70.834 50.0534 71.816 48.8645L71.6218 47.7673C71.4776 46.9275 72.7615 46.5737 72.9079 47.4172C72.915 47.4723 72.9259 47.5253 72.9359 47.5812C73.8484 46.5114 74.766 45.4502 75.6884 44.3977C75.6063 44.0971 75.5381 43.791 75.4609 43.4949C75.452 43.4581 75.4758 43.4394 75.4844 43.4073C74.4065 42.9339 74.9689 41.1037 76.2575 41.3864C76.8493 41.5137 77.4332 41.6701 78.0401 41.8108C78.7757 41.016 79.5329 40.2456 80.285 39.4708C81.0894 38.6411 81.8613 37.7809 82.6819 36.9837C83.3112 36.3637 82.9531 35.4229 82.1944 35.1476C78.5655 33.8571 74.8425 32.848 71.0585 32.1293L70.9563 32.102C70.47 32.5975 69.9427 33.0821 69.4651 33.58C68.6156 34.4727 67.3243 33.3944 67.6734 32.4302C67.6325 32.4192 67.5828 32.4059 67.5525 32.379L67.4399 32.2738C67.3456 32.1715 67.2878 32.0408 67.2757 31.9023C67.2635 31.7637 67.2977 31.625 67.3728 31.5079C66.2692 31.3405 65.1668 31.1452 64.061 31.021C64.0816 31.1079 64.0852 31.1996 64.1086 31.2873C64.3167 32.1222 63.0306 32.4723 62.8247 31.6411C62.7621 31.3959 62.7413 31.1462 62.6904 30.9041C61.6818 30.8028 60.6777 30.731 59.6721 30.6649C60.4714 29.4417 61.3332 28.2498 62.2575 27.0893C62.255 26.8883 62.2239 26.6891 62.2251 26.486C62.2277 26.3757 62.2585 26.268 62.3145 26.1729C62.3705 26.0779 62.4499 25.9988 62.5451 25.9431C62.6403 25.8874 62.7482 25.8569 62.8584 25.8547C62.9687 25.8524 63.0777 25.8784 63.1752 25.9301C64.3014 24.5921 65.4852 23.2883 66.7267 22.0187C66.7027 21.7463 66.6823 21.4717 66.6613 21.2001C66.601 20.4673 67.5238 20.3985 67.8495 20.9114C69.2905 19.4888 70.7691 18.1012 72.2851 16.7488C72.3018 16.2776 72.2892 15.811 72.3125 15.3385C72.357 14.4836 73.6901 14.4716 73.6449 15.3294C73.6437 15.4042 73.6445 15.4826 73.6396 15.5595C74.7642 14.5779 75.8864 13.6133 77.0061 12.6657C77.0053 12.1898 76.9838 11.721 76.9897 11.2437C76.9975 10.3853 78.3299 10.3762 78.3221 11.2346C78.3196 11.3372 78.3259 11.4422 78.3256 11.5485C79.5442 10.5044 80.7771 9.4766 81.9703 8.45698C81.9552 8.22136 81.9248 7.98475 81.9134 7.747C81.8695 6.99985 82.8273 6.94044 83.1217 7.4887C84.4451 6.35688 85.7917 5.24379 87.1273 4.12464C87.1238 3.81076 87.0886 3.51028 87.0806 3.20146C87.0671 2.38737 88.2245 2.36578 88.3634 3.0852C89.3056 2.30184 90.2318 1.50796 91.1841 0.733569L90.625 0.624448C89.24 0.362853 89.8181 -1.74788 91.1914 -1.48942C91.9362 -1.34931 92.6755 -1.18876 93.4203 -1.04865C94.7487 -2.11342 96.0758 -3.17333 97.4016 -4.22836C98.2428 -4.8917 99.0711 -5.57726 99.9174 -6.23611C100.102 -6.35752 100.231 -6.54629 100.278 -6.76194C100.324 -6.9776 100.285 -7.20295 100.167 -7.38966C100.163 -7.41685 100.156 -7.44367 100.148 -7.4699C100.092 -7.62445 99.9971 -7.76156 99.8715 -7.86724C99.7459 -7.97291 99.5945 -8.04338 99.4328 -8.07144C90.0665 -10.0679 80.6197 -11.9389 71.1194 -13.1545C69.3604 -13.3755 66.9387 -13.9024 64.6949 -13.9372C63.1723 -13.954 61.7259 -13.7532 60.6225 -13.0569C58.5808 -11.7671 56.9418 -8.74518 55.5215 -6.86637C48.3925 2.62983 41.6815 12.4696 35.1821 22.4193C32.0143 27.2345 28.9161 32.0935 26.0364 37.083C24.5682 39.6311 21.9541 43.1271 21.6529 46.1664C21.5217 47.4737 22.2211 48.4372 23.4358 49.1476C24.6505 49.8579 26.2593 50.289 28.1784 50.5779C28.577 49.8961 28.9479 49.2945 29.184 48.8571C29.8545 47.6161 31.7415 48.7256 31.0776 49.9653C31.0413 50.0307 31.0071 50.0998 30.9708 50.1652C30.9837 50.1874 31.0117 50.1761 31.0177 50.2122L31.2914 50.8957C32.4545 50.9695 33.6403 51.0056 34.8251 51.0101C34.813 50.985 34.8018 50.957 34.7868 50.9311C34.3934 50.1685 35.5455 49.5008 35.9418 50.2642C36.0675 50.5075 36.1718 50.7608 36.2967 51.007C37.6688 50.9898 38.9989 50.9425 40.22 50.8817L40.0518 50.5518C39.6621 49.7871 40.8142 49.1195 41.2039 49.8842L41.6738 50.8049C42.3828 50.7633 43.0192 50.7242 43.5821 50.6904C43.2245 51.2893 42.8429 51.8724 42.5151 52.4886L43.1328 53.6868C43.5225 54.4515 42.3704 55.1192 41.9807 54.3545L41.7771 53.9463C41.2878 54.9199 40.8007 55.8971 40.332 56.8637C40.1657 57.204 40.0169 57.5491 39.8543 57.8873C40.4896 58.4831 40.2765 59.8154 39.169 59.7909L38.9741 59.7825C37.3748 63.1936 35.8408 66.6411 34.3978 70.1348L36.2605 70.6339Z" fill="#1A1A1A"/>
<path id="Vector_25" d="M87.6498 15.1735C87.6122 14.7065 87.6188 14.2264 87.5818 13.7689C86.3694 14.7897 85.1579 15.8076 83.9417 16.8429C83.9988 17.4591 84.0273 18.0769 84.088 18.6909C84.179 19.5195 83.0392 19.4989 82.7872 18.8743C82.699 18.6661 82.6146 18.4557 82.5293 18.2482C82.509 18.1958 82.552 18.1636 82.5346 18.1119C81.2218 19.2664 79.9214 20.4326 78.6337 21.6105C78.6515 21.8593 78.6568 22.108 78.6775 22.3576C78.732 23.0888 77.8092 23.1576 77.4842 22.6418C76.1934 23.8387 74.9548 25.0746 73.6877 26.2998C73.7179 26.8993 73.7137 27.499 73.7556 28.1017C73.8138 28.9591 72.48 28.9616 72.4232 28.1108C72.4116 27.9324 72.4131 27.7514 72.4015 27.573C71.2153 28.7416 70.0088 29.8922 68.8559 31.0885C68.8819 31.5469 68.7526 32.0007 68.4889 32.3765C68.3808 32.4817 68.2383 32.5444 68.0876 32.5529C67.937 32.5614 67.7884 32.5152 67.6691 32.4228C67.3317 33.3901 68.6114 34.4653 69.4608 33.5726C69.9384 33.0747 70.4657 32.5901 70.9521 32.0946C76.5612 26.3437 82.5139 20.9103 88.6776 15.7055C88.5778 15.7634 88.4651 15.7952 88.3497 15.798C88.2344 15.8008 88.1202 15.7744 88.0178 15.7214C87.9153 15.6684 87.8279 15.5904 87.7636 15.4946C87.6993 15.3988 87.6601 15.2884 87.6498 15.1735V15.1735Z" fill="#1A1A1A"/>
<path id="Vector_26" d="M78.0225 41.8186C77.4331 41.6826 76.8345 41.5222 76.2398 41.3942C74.9512 41.1114 74.3888 42.9416 75.4667 43.4151C75.3547 42.6653 76.5146 42.3659 76.7418 43.1528C76.8035 43.3664 76.8416 43.5863 76.9032 43.8C78.1603 44.0836 79.4196 44.371 80.6715 44.697C81.092 44.8097 81.5032 44.9449 81.9229 45.0605C82.174 45.1278 82.4188 45.2184 82.6713 45.2923C83.2932 45.459 83.902 45.6628 84.5124 45.8607C83.818 46.5603 83.1438 47.2778 82.4638 47.9937C82.0899 48.3848 81.7051 48.7699 81.3362 49.1655C80.4312 50.1371 79.5451 51.1201 78.6683 52.115C78.6965 52.3135 78.7445 52.5078 78.7698 52.7055C78.8721 53.4214 77.9839 53.7466 77.6401 53.3009C76.6023 54.4999 75.5484 55.6883 74.5401 56.9171L74.7759 58.3728C74.9231 59.2133 73.6384 59.5701 73.492 58.7266C73.4664 58.5883 73.4446 58.4479 73.4191 58.3097C72.3768 59.595 71.3297 60.9104 70.313 62.2402C70.375 62.5697 70.4194 62.8946 70.4871 63.2257C70.6437 64.0312 69.481 64.3643 69.2461 63.6411C67.946 65.3789 66.6659 67.1315 65.4058 68.8989L65.5252 70.5206C65.5845 71.3501 64.3613 71.3603 64.2232 70.591C63.3547 71.8354 62.5014 73.0931 61.6509 74.3517L61.9332 76.1829C62.0642 77.0253 60.7795 77.3821 60.6493 76.5367C60.6174 76.3404 60.5876 76.1478 60.5586 75.9522C60.3337 76.2894 60.1147 76.6281 59.8919 76.969L62.105 77.562C69.5628 66.3014 77.7432 55.4972 87.2886 46.104C87.9208 45.4848 87.5598 44.5431 86.804 44.2686C85.8763 43.9355 84.9237 43.6834 83.9797 43.3992C82.0164 42.8001 80.0307 42.2733 78.0225 41.8186Z" fill="#1A1A1A"/>
<path id="Vector_27" d="M39.1486 59.7854C40.2532 59.8091 40.4692 58.4776 39.834 57.8818L39.7608 57.8278C39.5828 57.6822 39.3611 57.6007 39.1312 57.5965L39.1137 57.5918L39.1552 57.6937C39.4452 58.5036 38.1569 58.85 37.8684 58.0467C37.8138 57.8881 37.7416 57.7373 37.6804 57.5801C36.3299 57.575 34.9226 57.5484 33.5162 57.425C33.442 57.4955 33.3531 57.5488 33.2559 57.581C33.1587 57.6131 33.0556 57.6234 32.9539 57.6112C32.8523 57.5989 32.7546 57.5643 32.6679 57.5099C32.5812 57.4555 32.5075 57.3826 32.4523 57.2964C31.34 57.1723 30.2514 56.889 29.2197 56.4553C28.0556 55.9181 28.43 55.502 28.8711 54.381C28.9247 54.2514 28.992 54.1286 29.0455 53.999C29.38 53.2062 29.7501 52.4323 30.1486 51.6691L29.7067 50.5618C29.3971 49.7904 30.5889 49.4651 30.946 50.1647C30.9822 50.0994 31.0164 50.0303 31.0527 49.9649C31.7224 48.7268 29.8355 47.6172 29.1591 48.8567C28.923 49.2941 28.5667 49.8996 28.1535 50.5775C27.5624 51.5619 27.0546 52.594 26.6352 53.663C26.0923 55.1166 25.8961 56.538 26.7317 57.4722C27.7343 58.5889 29.6611 58.9425 31.0436 59.1783C33.6493 59.6262 36.305 59.7119 38.9429 59.7709L39.1486 59.7854Z" fill="#1A1A1A"/>
<path id="Vector_28" d="M82.5375 18.1127C82.5462 18.162 82.5148 18.1974 82.5323 18.249C82.6175 18.4565 82.702 18.6668 82.7901 18.8751C83.0479 19.5012 84.1819 19.5203 84.091 18.6917C84.0302 18.0777 84.0017 17.4598 83.9446 16.8437C83.662 13.8108 83.3993 10.7738 83.2195 7.73083C83.2119 7.61925 83.1395 7.56231 83.0954 7.48165C82.8011 6.93338 81.8433 6.99279 81.8871 7.73995C81.8985 7.9777 81.929 8.21431 81.9441 8.44992C82.1315 11.5231 82.3827 14.5914 82.6757 17.6553C82.6138 17.7121 82.5682 17.7846 82.5439 17.8651C82.5196 17.9455 82.5174 18.0311 82.5375 18.1127V18.1127Z" fill="#1A1A1A"/>
<path id="Vector_29" d="M77.4872 22.6426C77.8121 23.1584 78.7349 23.0896 78.6805 22.3584C78.6598 22.1088 78.6544 21.8601 78.6366 21.6113C78.3977 18.2594 78.2897 14.9019 78.3126 11.5388C78.3129 11.4325 78.3066 11.3275 78.3091 11.2249C78.3169 10.3664 76.9728 10.3724 76.9767 11.234C76.9716 11.7083 76.9931 12.1772 76.9931 12.656C76.9942 15.8983 77.0975 19.1335 77.3452 22.3668C77.3563 22.4887 77.4341 22.5721 77.4872 22.6426Z" fill="#1A1A1A"/>
<path id="Vector_30" d="M72.4137 28.1114C72.4705 28.9622 73.8043 28.9597 73.7461 28.1023C73.7042 27.4996 73.7084 26.8999 73.6782 26.3004C73.4928 22.7177 73.457 19.1375 73.6258 15.5528C73.6454 15.4798 73.6299 15.3974 73.6311 15.3226C73.6764 14.4648 72.3432 14.4768 72.2987 15.3317C72.2762 15.8013 72.2888 16.2679 72.2713 16.742C72.1387 20.3552 72.1667 23.9646 72.3919 27.5736C72.4044 27.7491 72.4028 27.9301 72.4137 28.1114Z" fill="#1A1A1A"/>
<path id="Vector_31" d="M68.4793 32.377C68.7431 32.0012 68.8724 31.5475 68.8463 31.0891C68.8737 30.1576 68.6155 29.0777 68.5566 28.3515L67.974 21.1826C67.9637 21.0578 67.8849 20.9897 67.8299 20.903C67.5042 20.3902 66.5813 20.4589 66.6416 21.1917C66.6627 21.4634 66.683 21.7379 66.707 22.0104L67.0911 26.7666L67.2834 29.1557C67.3114 29.4949 67.4321 30.8197 67.4997 31.2446L67.4251 31.3247C67.381 31.3724 67.393 31.4444 67.3532 31.4995C67.2781 31.6166 67.2439 31.7553 67.256 31.8939C67.2682 32.0325 67.3259 32.1631 67.4202 32.2654L67.5328 32.3707C67.5624 32.4005 67.6175 32.3933 67.6537 32.4218C67.7732 32.516 67.923 32.5635 68.075 32.5552C68.2269 32.547 68.3707 32.4836 68.4793 32.377V32.377Z" fill="#1A1A1A"/>
<path id="Vector_32" d="M63.1622 25.9203C63.0648 25.8686 62.9558 25.8426 62.8455 25.8449C62.7352 25.8472 62.6273 25.8776 62.5321 25.9333C62.4369 25.989 62.3576 26.0682 62.3016 26.1632C62.2455 26.2582 62.2148 26.366 62.2122 26.4763C62.2109 26.6794 62.242 26.8786 62.2445 27.0795C62.2671 28.3633 62.4151 29.6418 62.6862 30.8967C62.7372 31.1388 62.7579 31.3885 62.8205 31.6337C63.0265 32.4649 64.3125 32.1148 64.1044 31.2799C64.081 31.1922 64.0774 31.1005 64.0568 31.0136C63.7038 29.5242 63.535 27.9971 63.5541 26.4666C63.5578 26.3451 63.5215 26.2258 63.4507 26.1271C63.3798 26.0284 63.2785 25.9557 63.1622 25.9203Z" fill="#1A1A1A"/>
<path id="Vector_33" d="M77.4868 53.044C77.5037 53.1674 77.5822 53.2135 77.6403 53.2885C77.9863 53.7255 78.8606 53.4058 78.7699 52.6931C78.7446 52.4954 78.6966 52.3011 78.6684 52.1026C78.6222 51.7961 78.5583 51.4973 78.5085 51.1929C78.1122 48.6969 77.5773 46.2249 76.9063 43.7884C76.8446 43.5747 76.8065 43.3548 76.7449 43.1412C76.5176 42.3543 75.3607 42.6545 75.4698 43.4035C75.4612 43.4356 75.4549 43.4589 75.4463 43.491C75.5322 43.7894 75.5975 44.0948 75.6738 44.3938C76.4281 47.1288 77.0107 49.9082 77.4182 52.7158C77.4442 52.8292 77.4717 52.9367 77.4868 53.044Z" fill="#1A1A1A"/>
<path id="Vector_34" d="M73.5068 58.7181C73.6531 59.5615 74.9408 59.2056 74.7907 58.3643L74.5549 56.9085L74.5381 56.8195L72.9447 47.5835C72.9347 47.5276 72.9238 47.4747 72.9167 47.4196C72.7703 46.5761 71.4834 46.9291 71.6306 47.7697L71.8238 48.8823C72.3648 52.0251 72.9054 55.1658 73.4455 58.3043C73.458 58.4328 73.4812 58.5798 73.5068 58.7181Z" fill="#1A1A1A"/>
<path id="Vector_35" d="M69.2469 63.6382C69.4818 64.3614 70.6444 64.0283 70.4879 63.2228C70.4201 62.8917 70.3757 62.5669 70.3138 62.2374C69.7133 59.0128 69.2288 55.7756 68.9267 52.5121C68.8404 51.666 67.5133 51.6671 67.5942 52.5212C67.6418 53.0096 67.7157 53.4926 67.7691 53.9825C68.1167 57.205 68.5769 60.4044 69.1987 63.5846C69.2202 63.6091 69.2531 63.6148 69.2469 63.6382Z" fill="#1A1A1A"/>
<path id="Vector_36" d="M64.2357 70.5912C64.3709 71.3597 65.597 71.3503 65.5376 70.5208L65.4182 68.8991L64.6246 58.1969C64.6308 58.1735 64.6363 58.1531 64.6184 58.1264C64.555 57.277 63.222 57.2766 63.286 58.1355C63.3282 58.7101 63.3703 59.2847 63.4124 59.8592L64.2052 70.5299C64.2077 70.5556 64.2303 70.5648 64.2357 70.5912Z" fill="#1A1A1A"/>
<path id="Vector_37" d="M60.6645 76.5377C60.7948 77.3831 62.0795 77.0264 61.9485 76.1839L61.6785 74.3654C61.191 71.2327 60.7053 68.1015 60.2212 64.9718C60.1964 64.8612 60.1327 64.7631 60.0418 64.6953C59.9366 64.6035 59.8056 64.5467 59.6667 64.5326C59.5278 64.5185 59.388 64.5479 59.2665 64.6166C59.1451 64.6854 59.0479 64.7902 58.9886 64.9165C58.9292 65.0429 58.9105 65.1845 58.9351 65.3219L59.0586 66.1342L60.5755 75.9474C60.6029 76.1488 60.6326 76.3414 60.6645 76.5377Z" fill="#1A1A1A"/>
<path id="Vector_38" d="M57.3058 76.273L56.3945 70.7277C56.367 70.6076 56.2963 70.5017 56.1957 70.4304C56.088 70.3462 55.9573 70.2965 55.8209 70.288C55.6844 70.2795 55.5486 70.3125 55.4312 70.3826C55.3139 70.4528 55.2205 70.5568 55.1634 70.681C55.1063 70.8053 55.0882 70.9439 55.1114 71.0786L55.2471 71.9036L55.9131 75.8998L57.3058 76.273Z" fill="#1A1A1A"/>
<path id="Vector_39" d="M29.7118 50.5663L30.1536 51.6736L31.0925 54.0093L32.3731 57.2064C32.3914 57.2551 32.4396 57.2617 32.4632 57.3025C32.5184 57.3886 32.5921 57.4615 32.6788 57.5159C32.7655 57.5703 32.8632 57.6049 32.9649 57.6172C33.0665 57.6295 33.1696 57.6192 33.2668 57.587C33.364 57.5548 33.4529 57.5016 33.5271 57.4311C33.6091 57.3628 33.6662 57.2694 33.6896 57.1653C33.713 57.0611 33.7013 56.9522 33.6563 56.8555C33.2647 55.8722 32.8718 54.8897 32.4777 53.9079L31.2774 50.9013L31.0037 50.2178C31.0092 50.1973 30.9697 50.193 30.9569 50.1708C30.594 49.4696 29.4022 49.7949 29.7118 50.5663Z" fill="#1A1A1A"/>
<path id="Vector_40" d="M37.6971 57.5878C37.7524 57.7434 37.8246 57.8942 37.885 58.0543C38.1736 58.8577 39.4618 58.5112 39.1719 57.7013L39.1303 57.5994C38.5939 56.0976 37.9742 54.6266 37.319 53.1711C36.9879 52.4565 36.6451 51.7388 36.2935 51.0187C36.1686 50.7725 36.0643 50.5192 35.9387 50.2759C35.5424 49.5125 34.4006 50.1767 34.7836 50.9427C34.7986 50.9687 34.8098 50.9967 34.8219 51.0218C35.2353 51.8148 35.6008 52.6231 35.9721 53.4329C36.5703 54.7855 37.1659 56.1718 37.6971 57.5878Z" fill="#1A1A1A"/>
<path id="Vector_41" d="M41.2868 53.0201L41.7567 53.9409L41.9603 54.349C42.3499 55.1137 43.4983 54.4482 43.1124 53.6814L42.4946 52.4832L41.6393 50.8051L41.1694 49.8843C40.7798 49.1196 39.6314 49.7852 40.0173 50.552L40.1855 50.8818L40.9074 52.2988L41.2868 53.0201Z" fill="#1A1A1A"/>
<path id="Vector_42" d="M42.7125 21.6206C38.5257 27.5131 34.7386 33.6796 31.3766 40.0785C30.7294 41.3259 32.6215 42.4399 33.2694 41.1897C36.6314 34.7907 40.4185 28.6242 44.6053 22.7318C45.4151 21.5781 43.5213 20.4823 42.7125 21.6206Z" fill="#1A1A1A"/>
<path id="Vector_43" d="M48.1101 17.1494L47.8444 17.0782C46.4838 16.7136 45.9174 18.8275 47.278 19.192L47.5437 19.2632C48.9029 19.6212 49.4707 17.5139 48.1101 17.1494Z" fill="#1A1A1A"/>
<path id="Vector_44" d="M45.7299 96.3972C46.7303 95.0693 47.7392 93.7217 48.7564 92.3545C48.7192 92.2131 48.6758 92.0482 48.6617 91.9724C48.5273 91.201 48.3892 90.4317 48.2516 89.672L47.3668 84.5657C46.3107 86.323 45.2577 88.0687 44.2139 89.8387C44.1521 89.9411 44.0932 90.0442 44.0313 90.1465C44.0692 90.2036 44.1313 90.2171 44.1528 90.2886C44.7649 92.3021 45.2754 94.3446 45.7299 96.3972Z" fill="#FFE761"/>
<path id="Vector_45" d="M48.5919 83.9175L49.8233 90.9192C50.7115 89.7219 51.6031 88.5161 52.498 87.3018C52.3305 86.5841 52.101 85.8404 52.0513 85.5704C51.892 84.7517 51.7388 83.9221 51.5756 83.1179L50.779 78.9552C49.8504 80.4588 48.9226 81.9595 48.0064 83.4633C48.0748 83.4537 48.1445 83.4579 48.2112 83.4757C48.278 83.4935 48.3405 83.5244 48.3951 83.5668C48.4497 83.6091 48.4952 83.662 48.529 83.7222C48.5628 83.7825 48.5842 83.8489 48.5919 83.9175V83.9175Z" fill="#FFE761"/>
<path id="Vector_46" d="M23.1901 116.669C22.649 119.588 22.4346 121.696 22.6994 122.565C22.867 123.107 23.5102 122.879 24.5217 122.07C24.4939 122.022 24.4402 121.989 24.4206 121.934C23.8217 120.228 23.4091 118.463 23.1901 116.669V116.669Z" fill="#FFE761"/>
<path id="Vector_47" d="M33.6184 112.015C33.4384 111.169 33.2289 110.328 33.0658 109.477C32.2961 110.901 31.5164 112.316 30.7606 113.747C30.8702 114.202 30.9571 114.66 31.0668 115.115C31.8711 114.157 32.7312 113.108 33.6184 112.015Z" fill="#FFE761"/>
<path id="Vector_48" d="M40.4049 103.401C39.9859 101.718 39.6053 100.024 39.2629 98.3193C38.5445 99.5757 37.8421 100.843 37.1316 102.104L38.2147 106.237C38.9267 105.316 39.6568 104.371 40.4049 103.401Z" fill="#FFE761"/>
<path id="Vector_49" d="M44.6629 97.8104C44.2342 95.7428 43.7357 93.691 43.14 91.6631C42.1744 93.3049 41.2121 94.9497 40.2532 96.5975C40.5973 98.4275 40.9875 100.249 41.4238 102.062C42.4863 100.682 43.5659 99.2647 44.6629 97.8104Z" fill="#FFE761"/>
<path id="Vector_50" d="M37.1726 107.557L36.1884 103.779C35.4656 105.075 34.7479 106.376 34.0353 107.68C34.2222 108.688 34.4856 109.679 34.6918 110.673C35.4935 109.682 36.3204 108.643 37.1726 107.557Z" fill="#FFE761"/>
<path id="Vector_51" d="M57.91 79.9272C58.1757 79.5666 58.4347 79.2072 58.6974 78.8458C59.1016 78.2249 59.4978 77.5988 59.9049 76.9788L57.3034 76.2817C57.5099 77.4887 57.7121 78.7038 57.91 79.9272Z" fill="#FFE761"/>
<path id="Vector_52" d="M33.6119 77.7976C30.965 86.6015 28.1636 96.2622 26.0418 104.403C25.6722 107.022 25.4728 109.662 25.4448 112.307C25.3957 114.401 25.5244 116.496 25.8292 118.568C31.1378 108.099 36.9096 97.8171 42.9151 87.7257C45.5228 83.3424 48.188 78.9432 50.9347 74.5784L36.2574 70.6456C35.3419 73.0227 34.4666 75.4136 33.6119 77.7976Z" fill="#FFE761"/>
<path id="Vector_53" d="M53.544 85.8859C54.6381 84.3954 55.73 82.9053 56.8197 81.4156C56.5158 79.5755 56.2087 77.7356 55.8985 75.8959L53.1394 75.1566C52.6926 75.8662 52.2509 76.5802 51.804 77.3022L53.2475 84.8083C53.3109 85.0975 53.4212 85.4681 53.544 85.8859Z" fill="#FFE761"/>
<path id="Vector_54" d="M28.4602 113.76C28.4938 113.493 28.6179 113.246 28.8119 113.059C29.0059 112.873 29.258 112.759 29.5259 112.737C29.8629 112.449 30.4554 112.445 30.5942 113.001C30.6531 113.249 30.6987 113.499 30.7606 113.747C31.5164 112.316 32.2961 110.901 33.0658 109.477C32.9357 108.794 32.7461 108.124 32.6227 107.44C32.4689 106.6 33.7537 106.244 33.9059 107.089C33.9436 107.287 33.9983 107.48 34.0352 107.68C34.7479 106.375 35.4656 105.075 36.1883 103.779L35.7449 102.071C35.5301 101.237 36.8133 100.886 37.0288 101.717L37.1308 102.107C37.8412 100.846 38.5437 99.5786 39.2621 98.3223C39.1363 97.694 38.9715 97.0709 38.8677 96.4423C38.711 95.6023 39.995 95.2485 40.1509 96.0914C40.184 96.2598 40.2274 96.4248 40.2589 96.5991C41.2106 94.9473 42.1729 93.3025 43.1458 91.6647C43.0459 91.3251 42.9665 90.9908 42.8608 90.6496C42.63 89.8993 43.6485 89.5901 44.0261 90.1545C44.088 90.0521 44.1469 89.949 44.2087 89.8466C45.2486 88.0912 46.3031 86.3397 47.3615 84.5736L47.3093 84.278C47.2927 84.1777 47.2987 84.0749 47.3269 83.9772C47.3551 83.8795 47.4047 83.7893 47.4722 83.7132C47.5396 83.6372 47.6232 83.5771 47.7169 83.5374C47.8105 83.4978 47.9118 83.4795 48.0134 83.484C48.9237 81.9786 49.8515 80.4779 50.786 78.9759L50.4831 77.4083C50.3198 76.5697 51.6045 76.213 51.7663 77.0574C51.7818 77.1398 51.7973 77.2222 51.8157 77.3054C52.2602 76.5921 52.7019 75.878 53.151 75.1597L50.9495 74.5698C48.2145 78.9378 45.5376 83.3338 42.9299 87.7171C36.9245 97.8085 31.1587 108.08 25.844 118.56C25.5392 116.487 25.4106 114.393 25.4596 112.298C25.4876 109.653 25.687 107.013 26.0567 104.394C26.9809 97.6164 28.9093 90.945 31.2106 84.5519C32.0022 82.3451 32.8073 80.0761 33.6267 77.7891C34.4783 75.4168 35.3536 73.0258 36.2722 70.6371L34.389 70.1324C32.2755 75.2521 30.3105 80.4367 28.5079 85.6459C25.4861 94.3775 21.7914 106.496 23.2017 116.672C23.4208 118.466 23.8334 120.231 24.4322 121.937C24.4518 121.992 24.5055 122.025 24.5333 122.073C24.9235 122.766 26.0067 123.056 26.4324 122.204C26.9187 121.229 27.4267 120.279 27.9258 119.293C28.0421 117.387 28.2488 115.518 28.4602 113.76Z" fill="#1A1A1A"/>
<path id="Vector_55" d="M59.9072 76.97C59.5009 77.5872 59.1047 78.2133 58.6997 78.837L57.9304 80.0266C58.0718 80.8614 58.2119 81.6969 58.3509 82.5332C58.4885 83.3743 57.2075 83.7289 57.064 82.8862C56.9967 82.4833 56.9295 82.0803 56.8651 81.6782C55.8143 83.3264 54.7766 84.9802 53.752 86.6395C54.0354 87.7075 54.2367 88.8598 53.756 89.4977C53.7029 89.5843 53.6311 89.6578 53.5458 89.7129C53.4604 89.768 53.3638 89.8032 53.263 89.8158C53.1623 89.8285 53.06 89.8183 52.9637 89.7861C52.8674 89.7539 52.7795 89.7004 52.7067 89.6296L52.5815 89.4897C52.4603 89.3634 52.393 89.195 52.3937 89.02C52.3945 88.845 52.4633 88.6771 52.5855 88.5519L52.6368 88.5125C52.6438 88.4862 52.6493 88.4658 52.6571 88.4366C51.8273 89.7893 51.0054 91.14 50.1913 92.4886C50.4841 93.5684 50.7912 94.8399 50.3467 95.5876C50.2538 95.7361 50.1076 95.8435 49.9381 95.8877C49.7686 95.9318 49.5886 95.9095 49.435 95.8252L49.2902 95.7583C49.164 95.6852 49.0655 95.5724 49.01 95.4376C48.9544 95.3027 48.945 95.1533 48.9831 95.0126L49.0144 94.8958C49.0433 94.7877 49.1362 94.7563 49.199 94.6855C49.2178 94.5093 49.2107 94.3314 49.1778 94.1572C48.6246 95.0542 48.0872 95.9617 47.5546 96.8516C47.1252 97.5784 46.7037 98.3104 46.2743 99.0371C46.3392 99.3674 46.4098 99.6993 46.4776 100.03C46.5043 100.17 46.4851 100.315 46.4228 100.444C46.3605 100.572 46.2585 100.676 46.1319 100.742C46.0053 100.808 45.8609 100.831 45.7203 100.808C45.5796 100.785 45.4501 100.717 45.3511 100.614C44.3591 102.307 43.3651 103.997 42.3862 105.7C42.5277 106.223 42.6486 106.753 42.7996 107.275C43.0379 108.102 41.7526 108.45 41.5127 107.628L41.4461 107.363C40.7677 108.552 40.0959 109.739 39.4283 110.934L40.1059 113.544C40.3243 114.376 39.0383 114.726 38.8219 113.898L38.4837 112.602C37.6679 114.071 36.8739 115.551 36.0748 117.027C36.2131 117.608 36.3058 118.196 36.4537 118.777C36.6655 119.61 35.3794 119.96 35.1676 119.127C35.1444 119.027 35.1285 118.923 35.1024 118.822C34.3462 120.231 33.59 121.64 32.8513 123.054C32.9381 123.477 33.0491 123.892 33.1388 124.317C33.1713 124.466 33.1505 124.622 33.08 124.757C33.0096 124.892 32.8939 124.999 32.7531 125.058C32.6124 125.117 32.4554 125.125 32.3094 125.08C32.1635 125.035 32.0379 124.941 31.9543 124.813C31.4403 125.789 30.9365 126.766 30.443 127.744C29.8064 124.444 29.914 120.877 30.2356 117.493C29.9193 116.116 29.6472 114.725 29.3074 113.354C29.2778 113.241 29.2829 113.122 29.3219 113.012C29.3608 112.902 29.4319 112.806 29.526 112.737C29.258 112.759 29.006 112.873 28.812 113.059C28.6179 113.246 28.4938 113.493 28.4603 113.76C28.2489 115.518 28.0422 117.387 27.917 119.291C27.6474 123.286 27.7423 127.452 29.0599 131.072C29.3535 131.88 30.6033 132.249 31.0571 131.338C36.5428 120.325 42.5765 109.556 48.8416 98.974C53.0828 91.8114 57.4627 84.5984 62.1233 77.5638L59.9072 76.97Z" fill="#1A1A1A"/>
<path id="Vector_56" d="M57.3057 76.273L55.8984 75.8959C56.2067 77.7351 56.5138 79.575 56.8196 81.4157C56.8343 81.501 56.8482 81.5892 56.8658 81.6753C56.9302 82.0774 56.9975 82.4803 57.0648 82.8833C57.2082 83.726 58.498 83.3737 58.3516 82.5303C58.2052 81.6868 58.0732 80.8597 57.9311 80.0236L57.9132 79.9156C57.7126 78.7019 57.5102 77.4877 57.3057 76.273Z" fill="#1A1A1A"/>
<path id="Vector_57" d="M53.2475 84.8082L51.818 77.2966C51.7996 77.2134 51.7841 77.131 51.7687 77.0487C51.6069 76.2042 50.3338 76.5641 50.4855 77.3996L50.779 78.9552L51.578 83.1092C51.738 83.925 51.8944 84.743 52.0536 85.5617C52.1034 85.8316 52.3328 86.5753 52.5004 87.293C52.5943 87.6601 52.6446 88.037 52.6501 88.4159C52.6423 88.4451 52.6368 88.4655 52.6298 88.4918L52.5785 88.5313C52.4563 88.6565 52.3875 88.8243 52.3867 88.9993C52.386 89.1743 52.4533 89.3427 52.5745 89.469L52.6997 89.6089C52.7725 89.6797 52.8604 89.7332 52.9567 89.7654C53.053 89.7976 53.1553 89.8078 53.256 89.7951C53.3568 89.7825 53.4534 89.7473 53.5388 89.6922C53.6241 89.6372 53.6959 89.5636 53.749 89.477C54.2326 88.8399 54.0315 87.6751 53.745 86.6189C53.6768 86.3596 53.607 86.1062 53.5362 85.8682C53.4212 85.4681 53.3109 85.0975 53.2475 84.8082Z" fill="#1A1A1A"/>
<path id="Vector_58" d="M49.8233 90.9192L48.5919 83.9175C48.5829 83.8501 48.5607 83.7852 48.5266 83.7263C48.4925 83.6675 48.4471 83.6161 48.393 83.5748C48.3389 83.5336 48.2773 83.5034 48.2115 83.4861C48.1458 83.4687 48.0773 83.4645 48.0099 83.4737C47.9083 83.4692 47.807 83.4874 47.7134 83.5271C47.6197 83.5668 47.5361 83.6268 47.4687 83.7029C47.4012 83.779 47.3516 83.8691 47.3234 83.9668C47.2953 84.0645 47.2892 84.1673 47.3058 84.2676L47.3581 84.5632L48.2548 89.6603C48.3892 90.4317 48.5273 91.2009 48.6648 91.9607C48.679 92.0364 48.7224 92.2014 48.7596 92.3428C48.8864 92.8274 49.0826 93.5434 49.1804 94.136C49.2132 94.3101 49.2203 94.4881 49.2015 94.6643C49.1388 94.7351 49.0517 94.7681 49.0169 94.8745L48.9856 94.9913C48.9475 95.1321 48.957 95.2815 49.0125 95.4163C49.068 95.5512 49.1666 95.6639 49.2927 95.737L49.4375 95.804C49.5911 95.8882 49.7711 95.9106 49.9406 95.8664C50.1101 95.8222 50.2563 95.7149 50.3492 95.5664C50.7945 94.8157 50.4866 93.5472 50.1939 92.4674C50.0683 92.0019 49.9481 91.5628 49.9002 91.2277L49.8233 90.9192Z" fill="#1A1A1A"/>
<path id="Vector_59" d="M44.1441 90.2862C44.1226 90.2147 44.0605 90.2012 44.0226 90.1441C43.645 89.5798 42.6265 89.8889 42.8573 90.6392C42.963 90.9805 43.0424 91.3147 43.1423 91.6544C43.7357 93.691 44.2394 95.7349 44.6651 97.8016C44.8429 98.6566 45.0434 99.5083 45.1938 100.372C45.2124 100.489 45.2916 100.532 45.3505 100.605C45.4495 100.707 45.579 100.775 45.7197 100.798C45.8603 100.821 46.0047 100.798 46.1313 100.732C46.2579 100.667 46.3599 100.562 46.4222 100.434C46.4845 100.306 46.5037 100.161 46.477 100.021C46.4209 99.6928 46.3415 99.3586 46.2737 99.0275C46.1097 98.1449 45.9265 97.2634 45.7317 96.3788C45.2754 94.3445 44.765 92.302 44.1441 90.2862Z" fill="#1A1A1A"/>
<path id="Vector_60" d="M40.259 96.5991C40.2267 96.4277 40.1825 96.2656 40.1509 96.0913C39.995 95.2485 38.7169 95.6038 38.8678 96.4422C38.9833 97.074 39.1363 97.694 39.2622 98.3222C39.607 100.025 39.9876 101.719 40.4041 103.404C40.7276 104.742 41.0656 106.05 41.4432 107.362L41.5098 107.627C41.7497 108.449 43.035 108.102 42.7967 107.274C42.6457 106.752 42.5248 106.222 42.3833 105.699C42.0531 104.49 41.7201 103.281 41.4297 102.064C40.9953 100.251 40.6051 98.4296 40.259 96.5991Z" fill="#1A1A1A"/>
<path id="Vector_61" d="M37.1307 102.107L37.0288 101.717C36.8133 100.886 35.5301 101.237 35.7449 102.071L36.1883 103.779L37.1725 107.557L38.4808 112.602L38.819 113.897C39.0353 114.725 40.3214 114.375 40.1029 113.543L39.4253 110.933L38.2082 106.226L37.1307 102.107Z" fill="#1A1A1A"/>
<path id="Vector_62" d="M34.0353 107.68C33.9983 107.48 33.9436 107.286 33.9059 107.089C33.7537 106.244 32.4719 106.601 32.6227 107.44C32.752 108.125 32.9328 108.793 33.0658 109.477C33.2289 110.328 33.4384 111.169 33.6184 112.015C34.0949 114.29 34.5324 116.569 35.0994 118.821C35.1256 118.922 35.1414 119.026 35.1647 119.126C35.3765 119.959 36.6626 119.609 36.4508 118.776C36.2941 118.193 36.2101 117.607 36.0718 117.026C35.5587 114.923 35.1222 112.803 34.6886 110.684C34.4856 109.679 34.2221 108.688 34.0353 107.68Z" fill="#1A1A1A"/>
<path id="Vector_63" d="M30.7606 113.747C30.6988 113.499 30.6532 113.249 30.5943 113.001C30.4555 112.445 29.863 112.449 29.526 112.737C29.432 112.806 29.3609 112.902 29.3219 113.012C29.2829 113.122 29.2779 113.241 29.3074 113.354C29.6473 114.725 29.9194 116.116 30.2357 117.493C30.785 119.881 31.3608 122.263 31.844 124.664C31.8589 124.737 31.9165 124.756 31.9456 124.81C32.0291 124.938 32.1548 125.033 32.3007 125.077C32.4466 125.122 32.6036 125.114 32.7444 125.055C32.8852 124.996 33.0009 124.89 33.0713 124.755C33.1418 124.619 33.1625 124.463 33.13 124.314C33.0462 123.891 32.9352 123.477 32.8426 123.051C32.3006 120.403 31.6904 117.751 31.061 115.113C30.9572 114.66 30.8703 114.202 30.7606 113.747Z" fill="#1A1A1A"/>
</g>
</svg>
