<svg width="44" height="41" viewBox="0 0 44 41" fill="none" xmlns="http://www.w3.org/2000/svg">
<g id="Group 12">
<path id="Vector" d="M32.3092 -5.95268L39.6627 -0.399987C39.5174 -0.963097 39.2808 -1.742 39.2515 -1.89568C39.1052 -2.66409 38.9502 -3.43201 38.7785 -4.1921C38.4983 -5.42244 38.1863 -6.64468 37.8426 -7.85882C36.1758 -13.7731 33.9228 -19.7082 30.9223 -25.0926L22.0566 -29.8795C26.9009 -22.7789 29.9808 -14.1097 32.3092 -5.95268Z" fill="#EA90A6"/>
<path id="Vector_2" d="M38.1139 36.5503C38.0257 36.4987 37.9548 36.4222 37.9101 36.3304C30.4373 21.5399 18.3652 8.41537 5.64359 -2.11722C5.82191 -0.867402 36.309 28.4055 38.354 38.8787C38.3489 38.3854 38.3362 37.877 38.3196 37.3637C38.259 37.3123 38.2102 37.2484 38.1764 37.1765C38.1426 37.1045 38.1247 37.0261 38.1238 36.9466C38.132 36.815 38.1178 36.683 38.1139 36.5503Z" fill="#EA90A6"/>
<path id="Vector_3" d="M34.1075 20.4812C35.4338 24.0313 36.6631 27.6368 37.7513 31.2795C36.8682 22.457 34.5595 13.631 31.8272 5.28592L24.3292 0.793945C28.6789 6.66923 31.5825 13.7209 34.1075 20.4812Z" fill="#EA90A6"/>
<path id="Vector_4" d="M32.9347 5.21908C32.8202 5.28906 32.8795 5.30696 32.9347 5.21908V5.21908Z" fill="#EA90A6"/>
<path id="Vector_5" d="M33.0844 5.1469C33.1006 5.20491 33.1217 5.26146 33.1473 5.31597L33.8917 4.89313C33.7222 4.94744 33.553 5.00863 33.383 5.05434C33.2818 5.07965 33.1821 5.11055 33.0844 5.1469Z" fill="#EA90A6"/>
<path id="Vector_6" d="M32.3826 4.16608L37.8568 1.44525C38.2515 1.2507 38.8054 1.06454 39.1821 0.79506L31.6756 -4.87163L23.0674 -1.41024L32.3826 4.16608Z" fill="#EA90A6"/>
<path id="Vector_7" d="M21.1563 -1.82841C21.1805 -1.87215 21.2101 -1.91264 21.2445 -1.94894C21.322 -2.04553 21.4304 -2.1125 21.5514 -2.13861L31.0033 -5.9438C28.472 -14.7401 25.0882 -24.093 19.465 -31.359C19.4391 -31.4031 19.4201 -31.4509 19.4088 -31.5008C19.4026 -31.5152 19.3972 -31.5298 19.3926 -31.5448C19.3643 -31.6572 19.3677 -31.7753 19.4023 -31.886C19.437 -31.9966 19.5016 -32.0955 19.5889 -32.1718C19.656 -32.2355 19.7375 -32.282 19.8264 -32.3075L28.8304 -35.1076C26.2835 -44.8021 22.498 -54.3949 17.7827 -63.4562L13.1946 -63.2006C15.2836 -55.8085 17.2287 -48.1824 17.6025 -40.5411C17.6063 -40.4058 17.5676 -40.2726 17.4918 -40.1603C17.416 -40.0481 17.307 -39.9624 17.18 -39.9154L6.49571 -35.0924C12.5136 -27.8345 17.275 -18.7811 18.9288 -9.50616C18.9372 -9.39704 18.9158 -9.28768 18.8669 -9.1898C18.8179 -9.09192 18.7432 -9.00921 18.6508 -8.95054L15.6707 -7.2746C14.6837 -6.40683 13.1407 -5.63579 11.5545 -4.959L7.14884 -2.48061C18.277 6.83265 28.8905 18.1522 36.2953 30.7929C35.3969 27.8621 34.4213 24.9586 33.3684 22.0824C30.4349 14.0298 27.0306 5.42363 21.2579 -1.05751C21.2413 -1.0773 21.2366 -1.09947 21.2217 -1.11935C21.1851 -1.1646 21.1561 -1.21541 21.1356 -1.26986C21.0937 -1.35772 21.0737 -1.45441 21.0773 -1.55167C21.0809 -1.64893 21.108 -1.74389 21.1563 -1.82841V-1.82841Z" fill="#EA90A6"/>
<path id="Vector_8" d="M37.91 36.3304C37.9547 36.4222 38.0257 36.4988 38.1138 36.5503C38.061 34.7965 37.9286 33.0385 37.7512 31.2796C36.6631 27.6368 35.4339 24.033 34.1075 20.4813C31.5824 13.7192 28.6789 6.66925 24.3291 0.79396L21.3891 -0.962985C21.3248 -1.00302 21.2682 -1.05421 21.2219 -1.11416C21.2368 -1.09428 21.2415 -1.07211 21.2581 -1.05233C27.0308 5.42881 30.4352 14.035 33.3686 22.0876C34.4157 24.9618 35.3913 27.8653 36.2956 30.7981C28.8905 18.1522 18.277 6.83267 7.14882 -2.48059L11.5545 -4.95899L15.6707 -7.27458L18.6508 -8.95052C18.7432 -9.0092 18.8179 -9.0919 18.8669 -9.18978C18.9158 -9.28766 18.9372 -9.39702 18.9288 -9.50614C17.2753 -18.7759 12.5134 -27.8363 6.49568 -35.0924L17.1802 -39.9119C17.3072 -39.959 17.4162 -40.0446 17.492 -40.1569C17.5678 -40.2691 17.6065 -40.4023 17.6026 -40.5377C17.2288 -48.1789 15.2838 -55.8051 13.1947 -63.1972L11.9217 -63.1263C12.5909 -60.6544 13.2328 -58.1758 13.8252 -55.6876C14.5951 -52.4603 15.2938 -49.2118 15.789 -45.9278C15.98 -44.6666 15.9394 -43.2269 16.2618 -41.9937C16.3239 -41.7469 16.2928 -41.0342 16.4475 -40.9203C16.2907 -40.8546 16.1091 -40.7996 16.0153 -40.7496C14.2457 -39.8641 12.4344 -39.0471 10.6151 -38.2486C8.8447 -37.4718 7.06643 -36.7118 5.31063 -35.9203C4.98741 -35.7746 4.70371 -35.3222 4.98991 -34.9861C10.3034 -28.7244 14.6728 -21.0106 16.8594 -13.1063C17.0581 -12.3891 17.9795 -10.2833 17.8124 -9.90645C17.7172 -9.69407 16.9756 -9.43878 16.7733 -9.32224L12.5432 -6.94337L5.71644 -3.10145C5.6375 -3.04845 5.57165 -2.97821 5.52386 -2.89602C5.47607 -2.81384 5.44758 -2.72187 5.44056 -2.62706C5.43354 -2.53224 5.44817 -2.43707 5.48333 -2.34874C5.5185 -2.26041 5.57329 -2.18124 5.64355 -2.1172C18.3651 8.41539 30.4372 21.5399 37.91 36.3304Z" fill="#1A1A1A"/>
<path id="Vector_9" d="M39.9333 1.36067L39.1821 0.793338C38.8053 1.06282 38.2513 1.24726 37.8567 1.44353L32.3825 4.16436L32.6364 4.32279C33.3219 4.73329 32.7575 5.84672 32.0666 5.43307L31.8275 5.29107C34.5598 13.6362 36.8685 22.4622 37.7515 31.2847C37.9289 33.0436 38.0613 34.8016 38.1141 36.5554C38.1215 36.6879 38.1289 36.8204 38.1361 36.9511C38.137 37.0306 38.1549 37.109 38.1887 37.1809C38.2225 37.2529 38.2713 37.3168 38.3319 37.3682C38.6805 37.6767 39.4056 37.4965 39.3903 36.8813C39.1478 27.3845 36.8414 17.9165 34.2132 8.83909C33.8992 7.75559 33.7111 6.29923 33.154 5.31211C33.1283 5.25761 33.1073 5.20105 33.0911 5.14304C33.1898 5.10535 33.2905 5.07324 33.3929 5.04686C33.5629 5.00115 33.732 4.93996 33.9016 4.88565C36.2068 4.13602 38.5648 2.47574 40.7041 1.41265C40.8154 1.342 40.8971 1.23313 40.9338 1.10649C40.8928 1.19668 40.832 1.2765 40.7559 1.34005C40.6799 1.4036 40.5906 1.44926 40.4945 1.47366C40.3985 1.49806 40.2982 1.50058 40.201 1.48102C40.1039 1.46146 40.0124 1.42033 39.9333 1.36067V1.36067ZM32.9331 5.21915C32.8792 5.30498 32.8213 5.2875 32.9331 5.21915V5.21915Z" fill="#1A1A1A"/>
<path id="Vector_10" d="M39.1737 -27.9871L38.0527 -28.6874L31.4298 -26.2357L31.6664 -26.1074C32.3779 -25.7259 31.8048 -24.6137 31.0967 -24.9971L30.9188 -25.0924C33.9193 -19.708 36.1723 -13.7729 37.8391 -7.85865C38.1805 -6.64437 38.4925 -5.42213 38.775 -4.19192C38.9486 -3.42849 39.1038 -2.65713 39.248 -1.89551C39.2773 -1.74182 39.5139 -0.962918 39.6592 -0.399807L40.7616 0.430983C40.8287 0.481917 40.885 0.545635 40.9273 0.618471C40.2701 -3.64062 39.271 -7.83987 37.9397 -11.9386C36.464 -16.5293 34.5636 -20.9724 32.2634 -25.2105L34.0472 -25.8707L39.546 -27.9026C39.4157 -27.8836 39.283 -27.9137 39.1737 -27.9871V-27.9871Z" fill="#1A1A1A"/>
<path id="Vector_11" d="M40.7651 0.430804L39.6627 -0.399985L32.3092 -5.95268L32.1849 -6.04757C31.5471 -6.52975 30.7118 -5.6014 31.3531 -5.11769L31.6756 -4.87335L39.1821 0.793342L39.9333 1.36068C40.012 1.41856 40.1024 1.45832 40.1983 1.4771C40.2941 1.49589 40.3929 1.49323 40.4876 1.46931C40.5822 1.4454 40.6704 1.40082 40.7459 1.33878C40.8213 1.27675 40.882 1.1988 40.9237 1.11051C40.9657 1.03553 40.9884 0.951251 40.9896 0.865307C40.9909 0.779363 40.9707 0.694459 40.9308 0.618293C40.8885 0.545457 40.8322 0.481738 40.7651 0.430804V0.430804Z" fill="#1A1A1A"/>
<path id="Vector_12" d="M21.9569 -2.07832C21.8977 -2.1158 21.8316 -2.14105 21.7625 -2.15262C21.6934 -2.16418 21.6227 -2.1618 21.5545 -2.14564C21.4334 -2.11954 21.3251 -2.05256 21.2475 -1.95597C21.2133 -1.9196 21.1836 -1.87912 21.1593 -1.83544V-1.83544C21.1162 -1.74921 21.0921 -1.65475 21.0885 -1.55841C21.085 -1.46206 21.1021 -1.36608 21.1387 -1.2769C21.1591 -1.22245 21.1882 -1.17163 21.2247 -1.12638C21.271 -1.06643 21.3276 -1.01523 21.3919 -0.9752L24.3257 0.794172L31.8238 5.28615L32.0629 5.42814C32.7538 5.84179 33.3182 4.72835 32.6327 4.31786L32.3788 4.15943L23.0653 -1.4187L21.9569 -2.07832Z" fill="#1A1A1A"/>
</g>
</svg>
