<svg width="26" height="26" viewBox="0 0 26 26" fill="none" xmlns="http://www.w3.org/2000/svg">
<g id="person">
<path id="Ellipse 132 (Stroke)" fill-rule="evenodd" clip-rule="evenodd" d="M13.3253 11.3247C15.35 11.3247 16.9914 9.68334 16.9914 7.65858C16.9914 5.63381 15.35 3.99242 13.3253 3.99242C11.3005 3.99242 9.6591 5.63381 9.6591 7.65858C9.6591 9.68334 11.3005 11.3247 13.3253 11.3247ZM13.3253 12.896C16.2178 12.896 18.5626 10.5511 18.5626 7.65858C18.5626 4.76606 16.2178 2.4212 13.3253 2.4212C10.4327 2.4212 8.08789 4.76606 8.08789 7.65858C8.08789 10.5511 10.4327 12.896 13.3253 12.896Z" fill="black"/>
<path id="Vector 631 (Stroke)" fill-rule="evenodd" clip-rule="evenodd" d="M10.1829 16.824C7.72425 16.824 5.73112 18.8171 5.73112 21.2758V22.3232C5.73112 22.7571 5.3794 23.1088 4.94552 23.1088C4.51164 23.1088 4.15991 22.7571 4.15991 22.3232V21.2758C4.15991 17.9494 6.85649 15.2528 10.1829 15.2528H16.4677C19.7941 15.2528 22.4907 17.9494 22.4907 21.2758V22.3232C22.4907 22.7571 22.139 23.1088 21.7051 23.1088C21.2712 23.1088 20.9195 22.7571 20.9195 22.3232V21.2758C20.9195 18.8171 18.9264 16.824 16.4677 16.824H10.1829Z" fill="black"/>
</g>
</svg>
