<svg width="26" height="26" viewBox="0 0 26 26" fill="none" xmlns="http://www.w3.org/2000/svg">
<g id="search">
<path id="Union" fill-rule="evenodd" clip-rule="evenodd" d="M19.441 17.936C20.8313 16.2935 21.6697 14.1689 21.6697 11.8484C21.6697 6.64191 17.449 2.42117 12.2424 2.42117C7.0359 2.42117 2.81516 6.64191 2.81516 11.8484C2.81516 17.055 7.0359 21.2757 12.2424 21.2757C14.5629 21.2757 16.6875 20.4374 18.33 19.047L21.1142 21.8312C21.421 22.138 21.9184 22.138 22.2252 21.8312C22.532 21.5244 22.532 21.027 22.2252 20.7202L19.441 17.936ZM20.0985 11.8484C20.0985 16.1872 16.5812 19.7045 12.2424 19.7045C7.90365 19.7045 4.38637 16.1872 4.38637 11.8484C4.38637 7.50966 7.90365 3.99239 12.2424 3.99239C16.5812 3.99239 20.0985 7.50966 20.0985 11.8484Z" fill="black"/>
</g>
</svg>
