<svg width="26" height="23" viewBox="0 0 26 23" fill="none" xmlns="http://www.w3.org/2000/svg">
<g id="Frame" clip-path="url(#clip0_2_178)">
<g id="Group">
<path id="Vector" d="M0.833496 0.550283C1.01558 0.141555 1.32394 -0.00675741 1.76691 -0.000805063C3.11784 0.0185401 4.46925 0.00564331 5.82067 0.00663537C6.35223 0.00663537 6.58766 0.191654 6.71003 0.724885C6.87841 1.46198 7.03748 2.20156 7.20831 2.97686C7.30522 2.97686 7.40752 2.97686 7.51031 2.97686C13.3227 2.97686 19.1351 2.9838 24.9471 2.96594C25.5422 2.96396 25.9847 3.38509 25.785 4.0825C24.8281 7.42326 23.8932 10.771 22.95 14.1157C22.7851 14.701 22.5785 14.8563 21.9696 14.8563C17.6633 14.8563 13.357 14.8563 9.05066 14.8563C8.60622 14.8563 8.3238 15.0244 8.21024 15.3528C8.05117 15.8136 8.34974 16.2784 8.84606 16.3364C8.94248 16.3478 9.04136 16.3428 9.13876 16.3428C13.4612 16.3433 17.7842 16.3428 22.1067 16.3433C22.5775 16.3433 22.8981 16.6281 22.9123 17.0522C22.9265 17.4778 22.6177 17.8156 22.1953 17.8245C21.8375 17.8319 21.4797 17.826 21.1145 17.8428C21.7092 17.9897 22.1967 18.2987 22.5364 18.8116C22.883 19.3349 22.9921 19.9167 22.8609 20.5358C22.6373 21.5918 21.6598 22.3388 20.5908 22.2778C19.5292 22.2173 18.6677 21.3974 18.5341 20.3116C18.4239 19.4182 18.8742 18.2198 20.3627 17.8379C17.1322 17.8379 13.9458 17.8379 10.7589 17.8379C11.3423 17.9877 11.8294 18.2898 12.1695 18.7977C12.5136 19.3111 12.6272 19.88 12.5127 20.4946C12.3203 21.5259 11.3776 22.2982 10.3257 22.2818C9.25134 22.2654 8.35366 21.4663 8.18773 20.3785C8.01103 19.2198 8.66692 18.2848 10.0129 17.827C9.64878 17.827 9.3321 17.8275 9.01493 17.827C7.88377 17.8255 7.02916 17.1821 6.75604 16.1266C6.50103 15.1415 6.96259 14.1464 7.92635 13.6008C7.95376 13.5854 7.97873 13.5656 8.01201 13.5428C7.13097 9.52592 6.2514 5.51355 5.36889 1.48976C4.59651 1.48976 3.84029 1.48976 3.08406 1.48976C2.65284 1.48976 2.22015 1.46893 1.78991 1.49571C1.34107 1.523 1.019 1.36972 0.833496 0.946114C0.833496 0.81417 0.833496 0.682227 0.833496 0.550283ZM24.1345 4.46891C18.5908 4.46891 13.0736 4.46891 7.5338 4.46891C8.18577 7.44161 8.83431 10.4009 9.48286 13.3577C13.543 13.3577 17.585 13.3577 21.628 13.3577C22.4635 10.3955 23.2951 7.44707 24.1345 4.46891ZM11.0903 20.0755C11.1045 19.6861 10.7711 19.3294 10.3796 19.3151C9.99533 19.3007 9.6434 19.6385 9.62921 20.0353C9.61501 20.4247 9.94834 20.7813 10.3399 20.7957C10.7241 20.8101 11.0756 20.4728 11.0903 20.0755ZM20.7523 19.3165C20.3705 19.2907 20.0132 19.6186 19.9868 20.0189C19.9614 20.4058 20.2849 20.7679 20.6799 20.7947C21.0617 20.8205 21.419 20.4926 21.4454 20.0923C21.4709 19.7049 21.1473 19.3433 20.7523 19.3165Z" fill="#2C2C2C"/>
</g>
</g>
<defs>
<clipPath id="clip0_2_178">
<rect width="25" height="22.2826" fill="white" transform="translate(0.833496)"/>
</clipPath>
</defs>
</svg>
