<svg width="16" height="17" viewBox="0 0 16 17" fill="none" xmlns="http://www.w3.org/2000/svg">
<g id="Group 747">
<g id="Group">
<path id="Vector" d="M1.99732 0.777832C5.77672 0.777832 9.55649 0.777832 13.3359 0.777832C13.3583 0.787174 13.38 0.801374 13.4035 0.805111C14.509 0.984477 15.3028 1.89775 15.3035 3.00907C15.3061 6.61434 15.3065 10.2196 15.3035 13.8245C15.3024 15.0584 14.3098 16.0512 13.0758 16.0524C9.47016 16.0554 5.86454 16.0595 2.25929 16.0494C1.33023 16.0468 0.652313 15.5916 0.243093 14.7606C0.139947 14.5506 0.0980908 14.3106 0.027832 14.0846C0.027832 10.3055 0.027832 6.52615 0.027832 2.74712C0.037175 2.72433 0.0510025 2.70266 0.0551134 2.67912C0.188904 1.88579 0.62391 1.31668 1.34929 0.979245C1.5526 0.885078 1.78056 0.8436 1.99732 0.777832ZM7.5571 4.36516C5.23371 4.45036 3.44958 6.47757 3.69661 8.81905C3.91635 10.9031 5.78905 12.6227 8.1259 12.3851C10.2034 12.1736 11.9363 10.3022 11.6953 7.96071C11.4781 5.85577 9.65702 4.29416 7.5571 4.36516ZM13.513 3.93169C13.5022 3.22955 13.0096 2.59952 12.1968 2.57598C11.5047 2.55617 10.8634 3.06176 10.8376 3.88236C10.8152 4.58787 11.3365 5.22799 12.1549 5.24555C12.8654 5.26087 13.4678 4.73697 13.513 3.93169Z" fill="#2C2C2C"/>
<path id="Vector_2" d="M7.70283 5.25391C9.43389 5.25653 10.8346 6.66605 10.829 8.39992C10.8234 10.1241 9.41707 11.5209 7.69013 11.5183C5.95907 11.5157 4.55838 10.1061 4.56398 8.37227C4.56959 6.64811 5.97589 5.25129 7.70283 5.25391Z" fill="#2C2C2C"/>
<path id="Vector_3" d="M12.1697 4.35734C11.9179 4.35622 11.7217 4.15406 11.7261 3.90033C11.7303 3.65557 11.9287 3.46275 12.1757 3.46387C12.4276 3.46499 12.6238 3.66715 12.6193 3.92088C12.6152 4.16564 12.4164 4.35846 12.1697 4.35734Z" fill="#2C2C2C"/>
</g>
</g>
</svg>
