<svg width="46" height="46" viewBox="0 0 46 46" fill="none" xmlns="http://www.w3.org/2000/svg">
<g id="quality 1" clip-path="url(#clip0_0_428)">
<g id="XMLID_1364_">
<g id="XMLID_141_">
<path id="XMLID_162_" d="M40.9859 40.0436L35.2932 30.1836C36.2374 29.3885 36.8899 28.2577 37.0642 26.9763C37.1826 26.105 37.6307 25.3287 38.3261 24.7905C40.1285 23.3953 40.7845 20.9474 39.9212 18.8377C39.5881 18.0239 39.5881 17.1275 39.9212 16.3138C40.7845 14.2041 40.1285 11.7563 38.3261 10.361C37.6307 9.82279 37.1825 9.04651 37.0642 8.17521C36.757 5.9166 34.965 4.12459 32.7064 3.81755C31.8352 3.69905 31.0589 3.25092 30.5207 2.55559C29.1253 0.753035 26.6777 0.0971834 24.5679 0.960489C23.754 1.29356 22.8577 1.29356 22.044 0.960489C19.9344 0.0970955 17.4865 0.753035 16.0912 2.55559C15.553 3.25092 14.7767 3.69905 13.9054 3.81755C11.6467 4.12468 9.85476 5.9166 9.54771 8.1753C9.42921 9.0466 8.98108 9.82288 8.28576 10.3611C6.4832 11.7564 5.82735 14.2043 6.69065 16.3139C7.02372 17.1276 7.02372 18.0241 6.69065 18.8378C5.82726 20.9474 6.4832 23.3953 8.28576 24.7906C8.98108 25.3288 9.42921 26.1051 9.54771 26.9763C9.72422 28.2746 10.3919 29.4179 11.3562 30.2144L5.68125 40.0436C5.50351 40.3515 5.52865 40.7362 5.74516 41.0182C5.96158 41.3002 6.32647 41.4242 6.67008 41.3322L11.6165 40.0068L12.9362 44.9319C13.0283 45.2754 13.3181 45.5295 13.6706 45.5759C13.7091 45.581 13.7475 45.5835 13.7856 45.5835C14.0966 45.5835 14.3882 45.4182 14.5465 45.1439L20.6701 34.5377C21.1344 34.4877 21.5968 34.374 22.0439 34.191C22.8577 33.858 23.7541 33.858 24.5678 34.191C25.0339 34.3819 25.5167 34.4982 26.001 34.5446L32.1205 45.1439C32.2789 45.4183 32.5705 45.5835 32.8815 45.5835C32.9196 45.5835 32.9579 45.581 32.9965 45.5759C33.349 45.5295 33.6389 45.2754 33.7309 44.9319L35.0507 40.0068L39.9971 41.3322C40.3403 41.4242 40.7055 41.3003 40.922 41.0182C41.1384 40.7362 41.1636 40.3515 40.9859 40.0436ZM14.085 42.4271L13.0871 38.7027C13.0267 38.4775 12.8794 38.2855 12.6775 38.1689C12.4756 38.0524 12.2358 38.0208 12.0105 38.0811L8.26484 39.0847L12.8836 31.0848C13.2101 31.2017 13.552 31.286 13.9053 31.3341C14.7766 31.4525 15.5529 31.9007 16.0911 32.596C16.7742 33.4785 17.7098 34.0854 18.7343 34.3745L14.085 42.4271ZM21.3779 32.564C19.997 33.1292 18.3947 32.6998 17.4813 31.52C16.6591 30.4577 15.4731 29.773 14.1421 29.5921C12.6636 29.391 11.4906 28.218 11.2896 26.7395C11.1086 25.4084 10.4239 24.2226 9.3617 23.4003C8.18177 22.487 7.75244 20.8845 8.31758 19.5037C8.82646 18.2604 8.82646 16.8912 8.31758 15.6479C7.75244 14.267 8.18177 12.6646 9.3617 11.7513C10.4239 10.9291 11.1086 9.74324 11.2896 8.41211C11.4906 6.93365 12.6636 5.76058 14.1421 5.55954C15.4731 5.37863 16.6591 4.69395 17.4813 3.63172C18.1255 2.79953 19.112 2.34076 20.1222 2.34076C20.5444 2.34076 20.9708 2.42101 21.3778 2.58759C22.6211 3.09638 23.9905 3.09638 25.2336 2.58759C26.6144 2.02237 28.2169 2.45178 29.1303 3.63172C29.9525 4.69395 31.1383 5.37863 32.4693 5.55954C33.9478 5.76058 35.1208 6.93357 35.3219 8.41211C35.5029 9.74324 36.1875 10.9291 37.2498 11.7513C38.4297 12.6646 38.859 14.267 38.2939 15.6479C37.7851 16.8912 37.7851 18.2604 38.2939 19.5037C38.859 20.8845 38.4296 22.487 37.2498 23.4003C36.1875 24.2225 35.5029 25.4084 35.3219 26.7394C35.1208 28.2179 33.9477 29.391 32.4694 29.592C31.1382 29.7729 29.9524 30.4576 29.1302 31.5199C28.2168 32.6999 26.6144 33.1291 25.2336 32.5639C23.9904 32.0552 22.6212 32.0552 21.3779 32.564ZM34.6565 38.0811C34.1874 37.9553 33.7057 38.2338 33.58 38.7027L32.5819 42.4271L27.9247 34.3606C28.9306 34.0663 29.848 33.4648 30.5206 32.596C31.0588 31.9006 31.8351 31.4525 32.7063 31.3341C33.0761 31.2838 33.4332 31.193 33.7734 31.0675L38.4021 39.0847L34.6565 38.0811Z" fill="#2C2C2C"/>
<path id="XMLID_1190_" d="M19.311 14.3242L16.5761 17.0591C16.4113 17.2239 16.3186 17.4475 16.3186 17.6806C16.3186 17.9137 16.4113 18.1374 16.5761 18.3022L21.7055 23.4317C21.8704 23.5966 22.094 23.6892 22.3271 23.6892C22.5602 23.6892 22.7839 23.5966 22.9487 23.4317L30.0909 16.2895C30.4341 15.9463 30.4341 15.3897 30.0909 15.0464L27.356 12.3114C27.1911 12.1466 26.9676 12.054 26.7344 12.054C26.5013 12.054 26.2777 12.1466 26.1129 12.3114L22.3272 16.0972L20.5543 14.3243C20.3895 14.1595 20.1659 14.0668 19.9328 14.0668C19.6995 14.0667 19.4759 14.1594 19.311 14.3242ZM21.7054 17.9619C21.8703 18.1267 22.0939 18.2194 22.327 18.2194C22.5601 18.2194 22.7838 18.1267 22.9486 17.9619L26.7343 14.1762L28.2261 15.668L22.327 21.567L18.4408 17.6807L19.9326 16.189L21.7054 17.9619Z" fill="#2C2C2C"/>
<path id="XMLID_1191_" d="M34.761 17.8715C34.761 15.5364 34.0612 13.2907 32.7373 11.377C31.4445 9.50843 29.6487 8.07955 27.5441 7.24499C27.0927 7.0661 26.5819 7.28683 26.403 7.73813C26.224 8.18943 26.4448 8.70033 26.896 8.8793C30.6058 10.3504 33.003 13.8801 33.003 17.8715C33.003 23.2033 28.6653 27.541 23.3335 27.541C18.0018 27.541 13.6641 23.2033 13.6641 17.8715C13.6641 13.88 16.0612 10.3503 19.771 8.87921C20.2223 8.70024 20.4432 8.18934 20.2642 7.73804C20.0852 7.28674 19.5742 7.06593 19.123 7.2449C17.0183 8.07955 15.2225 9.50834 13.9297 11.3769C12.6058 13.2906 11.906 15.5364 11.906 17.8714C11.906 24.1726 17.0324 29.299 23.3335 29.299C29.6347 29.299 34.761 24.1727 34.761 17.8715Z" fill="#2C2C2C"/>
<path id="XMLID_1218_" d="M23.3336 8.20191C23.5648 8.20191 23.7916 8.10873 23.955 7.94435C24.1185 7.78085 24.2127 7.55494 24.2127 7.32287C24.2127 7.09168 24.1186 6.86489 23.955 6.70139C23.7916 6.53789 23.5648 6.44383 23.3336 6.44383C23.1024 6.44383 22.8757 6.53789 22.7121 6.70139C22.5486 6.86489 22.4546 7.09168 22.4546 7.32287C22.4546 7.55494 22.5486 7.78085 22.7121 7.94435C22.8757 8.10873 23.1024 8.20191 23.3336 8.20191Z" fill="#2C2C2C"/>
</g>
</g>
</g>
<defs>
<clipPath id="clip0_0_428">
<rect width="45" height="45" fill="white" transform="translate(0.833496 0.583517)"/>
</clipPath>
</defs>
</svg>
