<svg width="255" height="125" viewBox="0 0 255 125" fill="none" xmlns="http://www.w3.org/2000/svg">
<g id="Graph Movement">
<path id="Vector 5" d="M0.926819 79.6515C0.926819 75.7855 4.06083 72.6515 7.92682 72.6515C11.7928 72.6515 14.9268 75.7855 14.9268 79.6515V124.651H0.926819L0.926819 79.6515Z" fill="url(#paint0_linear_1_135)"/>
<path id="Vector 4" d="M48.9268 59.6515C48.9268 55.7855 52.0608 52.6515 55.9268 52.6515C59.7928 52.6515 62.9268 55.7855 62.9268 59.6515V124.651H48.9268V59.6515Z" fill="url(#paint1_linear_1_135)"/>
<path id="Vector 3" d="M144.927 23.6515C144.927 19.7855 148.061 16.6515 151.927 16.6515C155.793 16.6515 158.927 19.7855 158.927 23.6515V124.651H144.927V23.6515Z" fill="url(#paint2_linear_1_135)"/>
<path id="Vector 2" d="M96.9268 7.65149C96.9268 3.7855 100.061 0.651489 103.927 0.651489C107.793 0.651489 110.927 3.7855 110.927 7.65149V124.651H96.9268V7.65149Z" fill="url(#paint3_linear_1_135)"/>
<path id="Vector 1" d="M192.927 71.6515C192.927 67.7855 196.061 64.6515 199.927 64.6515C203.793 64.6515 206.927 67.7855 206.927 71.6515V124.651H192.927V71.6515Z" fill="url(#paint4_linear_1_135)"/>
<path id="Vector 6" d="M240.927 41.6515C240.927 37.7855 244.061 34.6515 247.927 34.6515C251.793 34.6515 254.927 37.7855 254.927 41.6515V124.651H240.927V41.6515Z" fill="url(#paint5_linear_1_135)"/>
</g>
<defs>
<linearGradient id="paint0_linear_1_135" x1="-20.5732" y1="86.807" x2="18.9044" y2="128.029" gradientUnits="userSpaceOnUse">
<stop offset="0.0001" stop-color="#78DFEA"/>
<stop offset="0.489583" stop-color="#6A97DA"/>
<stop offset="1" stop-color="#9526CD"/>
</linearGradient>
<linearGradient id="paint1_linear_1_135" x1="27.4268" y1="72.2515" x2="80.0308" y2="111.922" gradientUnits="userSpaceOnUse">
<stop offset="0.0001" stop-color="#78DFEA"/>
<stop offset="0.489583" stop-color="#6A97DA"/>
<stop offset="1" stop-color="#9526CD"/>
</linearGradient>
<linearGradient id="paint2_linear_1_135" x1="123.427" y1="46.0515" x2="189.298" y2="79.1684" gradientUnits="userSpaceOnUse">
<stop offset="0.0001" stop-color="#78DFEA"/>
<stop offset="0.489583" stop-color="#6A97DA"/>
<stop offset="1" stop-color="#9526CD"/>
</linearGradient>
<linearGradient id="paint3_linear_1_135" x1="75.4268" y1="34.407" x2="144.671" y2="64.7277" gradientUnits="userSpaceOnUse">
<stop offset="0.0001" stop-color="#78DFEA"/>
<stop offset="0.489583" stop-color="#6A97DA"/>
<stop offset="1" stop-color="#9526CD"/>
</linearGradient>
<linearGradient id="paint4_linear_1_135" x1="171.427" y1="80.9848" x2="216.794" y2="122.04" gradientUnits="userSpaceOnUse">
<stop offset="0.0001" stop-color="#78DFEA"/>
<stop offset="0.489583" stop-color="#6A97DA"/>
<stop offset="1" stop-color="#9526CD"/>
</linearGradient>
<linearGradient id="paint5_linear_1_135" x1="219.427" y1="59.1515" x2="279.927" y2="95.6515" gradientUnits="userSpaceOnUse">
<stop offset="0.0001" stop-color="#78DFEA"/>
<stop offset="0.489583" stop-color="#6A97DA"/>
<stop offset="1" stop-color="#9526CD"/>
</linearGradient>
</defs>
</svg>
