<svg width="24" height="24" viewBox="0 0 24 24" fill="none" xmlns="http://www.w3.org/2000/svg">
<g id="Icon - Activity">
<path id="Vector " fill-rule="evenodd" clip-rule="evenodd" d="M14.8969 2.84208C15.3109 2.84208 15.6469 3.17808 15.6469 3.59208C15.6469 4.00608 15.3109 4.34208 14.8969 4.34208H7.62894C5.12094 4.34208 3.49994 6.06608 3.49994 8.73608V16.8181C3.49994 19.5231 5.08194 21.2031 7.62894 21.2031H16.2329C18.7409 21.2031 20.3619 19.4821 20.3619 16.8181V9.77908C20.3619 9.36508 20.6979 9.02908 21.1119 9.02908C21.5259 9.02908 21.8619 9.36508 21.8619 9.77908V16.8181C21.8619 20.3381 19.5999 22.7031 16.2329 22.7031H7.62894C4.26194 22.7031 1.99994 20.3381 1.99994 16.8181V8.73608C1.99994 5.21108 4.26194 2.84208 7.62894 2.84208H14.8969ZM17.0123 9.67188C17.3403 9.92588 17.4003 10.3969 17.1463 10.7239L14.2163 14.5039C14.0943 14.6619 13.9143 14.7649 13.7163 14.7889C13.5163 14.8159 13.3183 14.7579 13.1603 14.6349L10.3423 12.4209L7.81134 15.7099C7.66334 15.9019 7.44134 16.0029 7.21634 16.0029C7.05634 16.0029 6.89534 15.9519 6.75934 15.8479C6.43134 15.5949 6.36934 15.1239 6.62234 14.7959L9.61534 10.9059C9.73734 10.7469 9.91834 10.6439 10.1163 10.6189C10.3183 10.5929 10.5163 10.6489 10.6733 10.7739L13.4933 12.9889L15.9603 9.80588C16.2143 9.47688 16.6843 9.41588 17.0123 9.67188ZM19.9673 1.99998C21.4413 1.99998 22.6393 3.19798 22.6393 4.67198C22.6393 6.14598 21.4413 7.34498 19.9673 7.34498C18.4943 7.34498 17.2953 6.14598 17.2953 4.67198C17.2953 3.19798 18.4943 1.99998 19.9673 1.99998ZM19.9673 3.49998C19.3213 3.49998 18.7953 4.02498 18.7953 4.67198C18.7953 5.31798 19.3213 5.84498 19.9673 5.84498C20.6133 5.84498 21.1393 5.31798 21.1393 4.67198C21.1393 4.02498 20.6133 3.49998 19.9673 3.49998Z" fill="url(#paint0_linear_1_196)"/>
</g>
<defs>
<linearGradient id="paint0_linear_1_196" x1="1.99994" y1="12.3515" x2="22.6393" y2="12.3515" gradientUnits="userSpaceOnUse">
<stop stop-color="#4CA7AE"/>
<stop offset="1" stop-color="#5DCAAD"/>
</linearGradient>
</defs>
</svg>
