<svg width="24" height="24" viewBox="0 0 24 24" fill="none" xmlns="http://www.w3.org/2000/svg">
<g id="Icon - Settings">
<path id="Vector " fill-rule="evenodd" clip-rule="evenodd" d="M12.2673 2.00053C12.9833 2.00053 13.6793 2.29453 14.1783 2.80553C14.6763 3.31953 14.9513 4.02453 14.9303 4.73953C14.9323 4.90053 14.9853 5.08653 15.0813 5.24953C15.2403 5.51953 15.4913 5.70953 15.7893 5.78753C16.0873 5.86153 16.3993 5.82153 16.6643 5.66453C17.9443 4.93353 19.5733 5.37153 20.3043 6.64153L20.9273 7.72053C20.9433 7.74953 20.9573 7.77753 20.9693 7.80653C21.6313 9.05753 21.1893 10.6325 19.9593 11.3515C19.7803 11.4545 19.6353 11.5985 19.5353 11.7725C19.3803 12.0415 19.3373 12.3615 19.4153 12.6555C19.4953 12.9555 19.6863 13.2045 19.9553 13.3585C20.5623 13.7075 21.0153 14.2955 21.1963 14.9745C21.3773 15.6525 21.2783 16.3885 20.9253 16.9955L20.2613 18.1015C19.5303 19.3575 17.9013 19.7925 16.6343 19.0605C16.4653 18.9635 16.2703 18.9105 16.0763 18.9055H16.0703C15.7813 18.9055 15.4843 19.0285 15.2683 19.2435C15.0493 19.4625 14.9293 19.7545 14.9313 20.0645C14.9243 21.5335 13.7293 22.7215 12.2673 22.7215H11.0143C9.54526 22.7215 8.35026 21.5275 8.35026 20.0585C8.34826 19.8775 8.29626 19.6895 8.19926 19.5265C8.04226 19.2525 7.78826 19.0565 7.49526 18.9785C7.20426 18.9005 6.88526 18.9435 6.62326 19.0955C5.99526 19.4455 5.25626 19.5305 4.58026 19.3405C3.90526 19.1495 3.32226 18.6855 2.98026 18.0705L2.35526 16.9935C1.62426 15.7255 2.05926 14.1005 3.32526 13.3685C3.68426 13.1615 3.90726 12.7755 3.90726 12.3615C3.90726 11.9475 3.68426 11.5605 3.32526 11.3535C2.05826 10.6175 1.62426 8.98853 2.35426 7.72053L3.03226 6.60753C3.75326 5.35353 5.38326 4.91153 6.65426 5.64153C6.82726 5.74453 7.01526 5.79653 7.20626 5.79853C7.82926 5.79853 8.35026 5.28453 8.36026 4.65253C8.35626 3.95553 8.63126 3.28653 9.13226 2.78153C9.63526 2.27753 10.3033 2.00053 11.0143 2.00053H12.2673ZM12.2673 3.50053H11.0143C10.7043 3.50053 10.4143 3.62153 10.1953 3.83953C9.97726 4.05853 9.85826 4.34953 9.86026 4.65953C9.83926 6.12153 8.64426 7.29853 7.19726 7.29853C6.73326 7.29353 6.28626 7.16853 5.89826 6.93653C5.35326 6.62653 4.64126 6.81753 4.32226 7.37253L3.64526 8.48553C3.33526 9.02353 3.52526 9.73453 4.07726 10.0555C4.89626 10.5295 5.40726 11.4135 5.40726 12.3615C5.40726 13.3095 4.89626 14.1925 4.07526 14.6675C3.52626 14.9855 3.33626 15.6925 3.65426 16.2425L4.28526 17.3305C4.44126 17.6115 4.69626 17.8145 4.99126 17.8975C5.28526 17.9795 5.60926 17.9445 5.87926 17.7945C6.27626 17.5615 6.73826 17.4405 7.20226 17.4405C7.43126 17.4405 7.66026 17.4695 7.88426 17.5295C8.56026 17.7115 9.14726 18.1635 9.49526 18.7705C9.72126 19.1515 9.84626 19.5965 9.85026 20.0505C9.85026 20.7005 10.3723 21.2215 11.0143 21.2215H12.2673C12.9063 21.2215 13.4283 20.7035 13.4313 20.0645C13.4273 19.3585 13.7033 18.6875 14.2083 18.1825C14.7063 17.6845 15.4023 17.3855 16.0983 17.4055C16.5543 17.4165 16.9933 17.5395 17.3803 17.7595C17.9373 18.0785 18.6483 17.8885 18.9703 17.3385L19.6343 16.2315C19.7823 15.9765 19.8253 15.6565 19.7463 15.3615C19.6683 15.0665 19.4723 14.8105 19.2083 14.6595C18.5903 14.3035 18.1493 13.7295 17.9663 13.0415C17.7853 12.3665 17.8843 11.6295 18.2373 11.0225C18.4673 10.6225 18.8043 10.2855 19.2083 10.0535C19.7503 9.73653 19.9403 9.02753 19.6253 8.47553C19.6123 8.45353 19.6003 8.43053 19.5903 8.40653L19.0043 7.39053C18.6853 6.83553 17.9753 6.64453 17.4183 6.96153C16.8163 7.31753 16.1003 7.41953 15.4123 7.23853C14.7253 7.06053 14.1493 6.62553 13.7903 6.01153C13.5603 5.62753 13.4353 5.18053 13.4313 4.72553C13.4403 4.38353 13.3203 4.07653 13.1023 3.85153C12.8853 3.62753 12.5803 3.50053 12.2673 3.50053ZM11.6452 8.97463C13.5122 8.97463 15.0312 10.4946 15.0312 12.3616C15.0312 14.2286 13.5122 15.7466 11.6452 15.7466C9.77816 15.7466 8.25916 14.2286 8.25916 12.3616C8.25916 10.4946 9.77816 8.97463 11.6452 8.97463ZM11.6452 10.4746C10.6052 10.4746 9.75916 11.3216 9.75916 12.3616C9.75916 13.4016 10.6052 14.2466 11.6452 14.2466C12.6852 14.2466 13.5312 13.4016 13.5312 12.3616C13.5312 11.3216 12.6852 10.4746 11.6452 10.4746Z" fill="url(#paint0_linear_1_192)"/>
</g>
<defs>
<linearGradient id="paint0_linear_1_192" x1="1.99994" y1="12.361" x2="21.2849" y2="12.361" gradientUnits="userSpaceOnUse">
<stop stop-color="#4CA7AE"/>
<stop offset="1" stop-color="#5DCAAD"/>
</linearGradient>
</defs>
</svg>
