<svg width="32" height="32" viewBox="0 0 32 32" fill="none" xmlns="http://www.w3.org/2000/svg">
<g id="Icon - Notification">
<path id="Vector" d="M13.2842 25.6372C13.9508 25.4962 18.0124 25.4962 18.6789 25.6372C19.2487 25.7688 19.8649 26.0764 19.8649 26.7478C19.8318 27.387 19.4568 27.9537 18.9387 28.3136C18.2668 28.8373 17.4783 29.169 16.6541 29.2885C16.1982 29.3476 15.7503 29.349 15.3104 29.2885C14.4848 29.169 13.6964 28.8373 13.0258 28.3123C12.5064 27.9537 12.1314 27.387 12.0982 26.7478C12.0982 26.0764 12.7144 25.7688 13.2842 25.6372ZM16.0603 2.66669C18.8338 2.66669 21.667 3.98271 23.3499 6.16624C24.4419 7.57224 24.9428 8.97689 24.9428 11.1604V11.7285C24.9428 13.403 25.3854 14.3901 26.3594 15.5275C27.0975 16.3654 27.3333 17.4411 27.3333 18.608C27.3333 19.7737 26.9504 20.8802 26.1831 21.7786C25.1786 22.8556 23.7621 23.5431 22.3163 23.6627C20.2213 23.8413 18.1249 23.9917 16.0007 23.9917C13.8751 23.9917 11.7801 23.9017 9.68501 23.6627C8.23795 23.5431 6.82136 22.8556 5.81823 21.7786C5.05096 20.8802 4.66667 19.7737 4.66667 18.608C4.66667 17.4411 4.90387 16.3654 5.64066 15.5275C6.64512 14.3901 7.05857 13.403 7.05857 11.7285V11.1604C7.05857 8.91781 7.61778 7.45138 8.76933 6.01584C10.4814 3.92228 13.2258 2.66669 15.941 2.66669H16.0603Z" fill="#383C6C"/>
<circle id="Indicator" cx="23.5" cy="6.5" r="3.5" fill="#EB4A95"/>
</g>
</svg>
