<svg width="24" height="24" viewBox="0 0 24 24" fill="none" xmlns="http://www.w3.org/2000/svg">
<g id="Icon - Message">
<path id="Mail" fill-rule="evenodd" clip-rule="evenodd" d="M16.6589 1.99997C19.9889 1.99997 22.4999 4.71697 22.4999 8.31997V15.188C22.4999 17.032 21.8479 18.698 20.6629 19.88C19.5999 20.939 18.2209 21.5 16.6749 21.5H6.82194C5.27894 21.5 3.90094 20.94 2.83694 19.88C1.65194 18.698 0.999939 17.032 0.999939 15.188V8.31997C0.999939 4.71697 3.51094 1.99997 6.84094 1.99997H16.6589ZM16.6589 3.49997H6.84094C4.32594 3.49997 2.49994 5.52697 2.49994 8.31997V15.188C2.49994 16.631 2.99594 17.92 3.89594 18.817C4.67194 19.592 5.68494 20 6.82494 20H16.6589C16.6609 19.998 16.6689 20 16.6749 20C17.8159 20 18.8279 19.592 19.6039 18.817C20.5049 17.92 20.9999 16.631 20.9999 15.188V8.31997C20.9999 5.52697 19.1739 3.49997 16.6589 3.49997ZM18.2349 8.12877C18.4959 8.44977 18.4469 8.92177 18.1259 9.18377L13.6819 12.7958C13.1199 13.2418 12.4479 13.4648 11.7769 13.4648C11.1079 13.4648 10.4409 13.2438 9.88294 12.8018L5.39794 9.18577C5.07494 8.92577 5.02494 8.45277 5.28394 8.13077C5.54494 7.80977 6.01694 7.75877 6.33894 8.01777L10.8199 11.6298C11.3829 12.0758 12.1759 12.0758 12.7429 11.6258L17.1789 8.01977C17.5009 7.75677 17.9729 7.80677 18.2349 8.12877Z" fill="url(#paint0_linear_1_190)"/>
</g>
<defs>
<linearGradient id="paint0_linear_1_190" x1="0.999939" y1="11.75" x2="22.4999" y2="11.75" gradientUnits="userSpaceOnUse">
<stop stop-color="#4CA7AE"/>
<stop offset="1" stop-color="#5DCAAD"/>
</linearGradient>
</defs>
</svg>
