<svg width="48" height="48" viewBox="0 0 48 48" fill="none" xmlns="http://www.w3.org/2000/svg">
<g id="Icon - Home">
<g id="Vector 2" filter="url(#filter0_d_1_207)">
<path d="M16.9199 20.4697C18.3299 20.4697 19.4599 21.6107 19.4599 23.0307V26.4397C19.4599 27.8497 18.3299 28.9997 16.9199 28.9997H13.5399C12.1399 28.9997 10.9999 27.8497 10.9999 26.4397V23.0307C10.9999 21.6107 12.1399 20.4697 13.5399 20.4697H16.9199ZM28.46 20.4697C29.86 20.4697 31 21.6107 31 23.0307V26.4397C31 27.8497 29.86 28.9997 28.46 28.9997H25.08C23.67 28.9997 22.54 27.8497 22.54 26.4397V23.0307C22.54 21.6107 23.67 20.4697 25.08 20.4697H28.46ZM28.46 8.99997C29.86 8.99997 31 10.15 31 11.561V14.97C31 16.39 29.86 17.53 28.46 17.53H25.08C23.67 17.53 22.54 16.39 22.54 14.97V11.561C22.54 10.15 23.67 8.99997 25.08 8.99997H28.46Z" fill="url(#paint0_linear_1_207)"/>
</g>
<g id="Vector 1" filter="url(#filter1_d_1_207)">
<path d="M19.46 11.561C19.46 10.15 18.33 9 16.92 9H13.54C12.14 9 11 10.15 11 11.561V14.97C11 16.39 12.14 17.53 13.54 17.53H16.92C18.33 17.53 19.46 16.39 19.46 14.97V11.561Z" fill="url(#paint1_linear_1_207)"/>
</g>
</g>
<defs>
<filter id="filter0_d_1_207" x="-6.10352e-05" y="-3.05176e-05" width="48.0001" height="47.9997" filterUnits="userSpaceOnUse" color-interpolation-filters="sRGB">
<feFlood flood-opacity="0" result="BackgroundImageFix"/>
<feColorMatrix in="SourceAlpha" type="matrix" values="0 0 0 0 0 0 0 0 0 0 0 0 0 0 0 0 0 0 127 0" result="hardAlpha"/>
<feOffset dx="3" dy="5"/>
<feGaussianBlur stdDeviation="7"/>
<feComposite in2="hardAlpha" operator="out"/>
<feColorMatrix type="matrix" values="0 0 0 0 0.333333 0 0 0 0 0.247059 0 0 0 0 0.960784 0 0 0 0.54 0"/>
<feBlend mode="normal" in2="BackgroundImageFix" result="effect1_dropShadow_1_207"/>
<feBlend mode="normal" in="SourceGraphic" in2="effect1_dropShadow_1_207" result="shape"/>
</filter>
<filter id="filter1_d_1_207" x="0" y="0" width="36.46" height="36.53" filterUnits="userSpaceOnUse" color-interpolation-filters="sRGB">
<feFlood flood-opacity="0" result="BackgroundImageFix"/>
<feColorMatrix in="SourceAlpha" type="matrix" values="0 0 0 0 0 0 0 0 0 0 0 0 0 0 0 0 0 0 127 0" result="hardAlpha"/>
<feOffset dx="3" dy="5"/>
<feGaussianBlur stdDeviation="7"/>
<feComposite in2="hardAlpha" operator="out"/>
<feColorMatrix type="matrix" values="0 0 0 0 0.333333 0 0 0 0 0.247059 0 0 0 0 0.960784 0 0 0 0.54 0"/>
<feBlend mode="normal" in2="BackgroundImageFix" result="effect1_dropShadow_1_207"/>
<feBlend mode="normal" in="SourceGraphic" in2="effect1_dropShadow_1_207" result="shape"/>
</filter>
<linearGradient id="paint0_linear_1_207" x1="21" y1="8.99997" x2="21" y2="28.9997" gradientUnits="userSpaceOnUse">
<stop stop-color="#3461FF"/>
<stop offset="1" stop-color="#8454EB"/>
</linearGradient>
<linearGradient id="paint1_linear_1_207" x1="11" y1="13.265" x2="19.46" y2="13.265" gradientUnits="userSpaceOnUse">
<stop stop-color="#70F1A7"/>
<stop offset="1" stop-color="#62D6F1"/>
</linearGradient>
</defs>
</svg>
