<svg width="24" height="24" viewBox="0 0 24 24" fill="none" xmlns="http://www.w3.org/2000/svg">
<g id="Icon - Verification">
<path id="Vector" fill-rule="evenodd" clip-rule="evenodd" d="M14.2686 4.62163C13.0722 3.23904 10.9278 3.23904 9.73143 4.62163L9.19876 5.2372L8.38682 5.17858C6.56321 5.04692 5.04692 6.56321 5.17858 8.38682L5.2372 9.19876L4.62163 9.73143C3.23904 10.9278 3.23904 13.0722 4.62163 14.2686L5.2372 14.8012L5.17858 15.6132C5.04692 17.4368 6.56321 18.9531 8.38683 18.8214L9.19876 18.7628L9.73143 19.3784C10.9278 20.761 13.0722 20.761 14.2686 19.3784L14.8012 18.7628L15.6132 18.8214C17.4368 18.9531 18.9531 17.4368 18.8214 15.6132L18.7628 14.8012L19.3784 14.2686C20.761 13.0722 20.761 10.9278 19.3784 9.73143L18.7628 9.19876L18.8214 8.38683C18.9531 6.56321 17.4368 5.04692 15.6132 5.17858L14.8012 5.2372L14.2686 4.62163ZM15.6961 10.7179C16.0926 10.3334 16.1024 9.70034 15.7179 9.30385C15.3334 8.90737 14.7003 8.89763 14.3039 9.2821L10.875 12.607L9.69615 11.4639C9.29966 11.0794 8.66657 11.0892 8.2821 11.4857C7.89763 11.8822 7.90737 12.5152 8.30385 12.8997L10.1789 14.7179C10.5667 15.094 11.1833 15.094 11.5711 14.7179L15.6961 10.7179Z" fill="url(#paint0_linear_1_408)"/>
</g>
<defs>
<linearGradient id="paint0_linear_1_408" x1="3.58469" y1="12" x2="20.4153" y2="12" gradientUnits="userSpaceOnUse">
<stop stop-color="#D82E8A"/>
<stop offset="1" stop-color="#EA706C"/>
</linearGradient>
</defs>
</svg>
