<svg width="24" height="24" viewBox="0 0 24 24" fill="none" xmlns="http://www.w3.org/2000/svg">
<g id="Icon - Time Circle">
<path id="Vector" fill-rule="evenodd" clip-rule="evenodd" d="M12 1.99998C17.514 1.99998 22 6.48598 22 12C22 17.514 17.514 22 12 22C6.486 22 2 17.514 2 12C2 6.48598 6.486 1.99998 12 1.99998ZM12 3.49998C7.313 3.49998 3.5 7.31298 3.5 12C3.5 16.687 7.313 20.5 12 20.5C16.687 20.5 20.5 16.687 20.5 12C20.5 7.31298 16.687 3.49998 12 3.49998ZM11.6612 7.09538C12.0762 7.09538 12.4112 7.43138 12.4112 7.84538V12.2674L15.8162 14.2974C16.1712 14.5104 16.2882 14.9704 16.0762 15.3264C15.9352 15.5614 15.6862 15.6924 15.4312 15.6924C15.3002 15.6924 15.1682 15.6584 15.0472 15.5874L11.2772 13.3384C11.0512 13.2024 10.9112 12.9574 10.9112 12.6934V7.84538C10.9112 7.43138 11.2472 7.09538 11.6612 7.09538Z" fill="url(#paint0_linear_1_198)"/>
</g>
<defs>
<linearGradient id="paint0_linear_1_198" x1="2" y1="12" x2="22" y2="12" gradientUnits="userSpaceOnUse">
<stop stop-color="#4CA7AE"/>
<stop offset="1" stop-color="#5DCAAD"/>
</linearGradient>
</defs>
</svg>
