<svg width="24" height="25" viewBox="0 0 24 25" fill="none" xmlns="http://www.w3.org/2000/svg">
<g id="ph:caret-down">
<path id="Vector" d="M12 18.1831C11.8012 18.1804 11.6106 18.1036 11.4656 17.9677L3.96563 10.4741C3.84603 10.3285 3.78491 10.1436 3.79416 9.95552C3.80341 9.76739 3.88236 9.58942 4.01566 9.45624C4.14896 9.32305 4.32708 9.24416 4.51537 9.23492C4.70366 9.22568 4.88866 9.28675 5.03438 9.40625L12 16.3753L18.9656 9.40625C19.1113 9.28675 19.2963 9.22568 19.4846 9.23492C19.6729 9.24416 19.851 9.32305 19.9843 9.45624C20.1176 9.58942 20.1966 9.76739 20.2058 9.95552C20.2151 10.1436 20.154 10.3285 20.0344 10.4741L12.5344 17.9677C12.3894 18.1036 12.1988 18.1804 12 18.1831Z" fill="#B0B5BF"/>
</g>
</svg>
