<svg width="161" height="81" viewBox="0 0 161 81" fill="none" xmlns="http://www.w3.org/2000/svg">
<g id="logo-amazon.svg">
<g id="Group">
<g id="Group_2">
<path id="Vector" d="M95.5987 57.0384C88.3694 62.3858 77.8542 65.2348 68.7848 65.2348C56.0789 65.2348 44.6875 60.5449 36.0124 52.743C35.3552 52.1294 35.9248 51.2966 36.7572 51.7788C46.0895 57.2138 57.6124 60.4572 69.5297 60.4572C77.5475 60.4572 86.3978 58.7917 94.5471 55.329C95.7739 54.8469 96.7816 56.1618 95.5987 57.0384Z" fill="#FF9900"/>
<path id="Vector_2" d="M98.5715 53.4712C97.6528 52.2886 92.4471 52.9018 90.1286 53.2084C89.4287 53.296 89.2974 52.6828 89.9536 52.2448C94.1094 49.3103 100.89 50.1863 101.677 51.1498C102.465 52.1134 101.459 58.946 97.5653 62.1871C96.9529 62.6689 96.3842 62.4061 96.6467 61.7491C97.5216 59.5592 99.4901 54.6975 98.5715 53.4712Z" fill="#FF9900"/>
<path id="Vector_3" d="M90.3629 31.7507V28.9046C90.3629 28.4667 90.67 28.204 91.0647 28.204H103.784C104.179 28.204 104.53 28.5105 104.53 28.9046V31.3129C104.53 31.707 104.179 32.2324 103.565 33.1081L96.9857 42.4786C99.4419 42.4348 102.03 42.7851 104.223 44.0111C104.705 44.2738 104.837 44.7117 104.88 45.1058V48.1271C104.88 48.5649 104.442 49.0466 103.959 48.7839C100.056 46.7259 94.8366 46.507 90.5384 48.8277C90.0998 49.0466 89.6173 48.6087 89.6173 48.1709V45.2809C89.6173 44.8431 89.6173 44.0549 90.0998 43.3543L97.7314 32.4513H91.1086C90.7138 32.4513 90.3629 32.1448 90.3629 31.7507ZM44.0033 49.3969H40.1436C39.7928 49.3531 39.4857 49.0904 39.4419 48.7401V28.9484C39.4419 28.5543 39.7928 28.2478 40.1875 28.2478H43.784C44.1787 28.2478 44.4419 28.5543 44.4857 28.9046V31.488H44.5735C45.4945 28.9922 47.2928 27.8099 49.6612 27.8099C52.0735 27.8099 53.6086 28.9922 54.6612 31.488C55.5822 28.9922 57.7314 27.8099 60.0121 27.8099C61.6349 27.8099 63.3893 28.4667 64.4857 29.9993C65.7138 31.6632 65.4507 34.0715 65.4507 36.217V48.7401C65.4507 49.1342 65.0998 49.4407 64.705 49.4407H60.8893C60.4945 49.3969 60.1875 49.0904 60.1875 48.7401V38.2312C60.1875 37.3993 60.2752 35.2975 60.0998 34.5093C59.7928 33.1957 58.9594 32.8016 57.8191 32.8016C56.898 32.8016 55.8893 33.4146 55.4945 34.4217C55.0998 35.4288 55.1436 37.0928 55.1436 38.2312V48.7401C55.1436 49.1342 54.7928 49.4407 54.398 49.4407H50.5384C50.1436 49.3969 49.8366 49.0904 49.8366 48.7401V38.2312C49.8366 36.0419 50.1875 32.7578 47.4682 32.7578C44.705 32.7578 44.7928 35.9105 44.7928 38.2312V48.7401C44.7489 49.0904 44.4419 49.3969 44.0033 49.3969ZM115.495 27.8099C121.24 27.8099 124.354 32.7141 124.354 38.9756C124.354 45.0182 120.933 49.8348 115.495 49.8348C109.88 49.8348 106.81 44.9306 106.81 38.8004C106.766 32.6265 109.88 27.8099 115.495 27.8099ZM115.495 31.8821C112.644 31.8821 112.468 35.7791 112.468 38.1874C112.468 40.5957 112.424 45.7626 115.451 45.7626C118.433 45.7626 118.609 41.6028 118.609 39.0632C118.609 37.3993 118.521 35.3851 118.038 33.8087C117.6 32.4075 116.723 31.8821 115.495 31.8821ZM131.766 49.3969H127.907C127.512 49.3531 127.205 49.0466 127.205 48.6963V28.8608C127.249 28.5105 127.556 28.204 127.951 28.204H131.547C131.898 28.204 132.161 28.4667 132.249 28.7732V31.7945H132.337C133.433 29.0797 134.924 27.8099 137.6 27.8099C139.31 27.8099 141.021 28.4229 142.117 30.1306C143.126 31.707 143.126 34.378 143.126 36.3046V48.7839C143.082 49.1342 142.775 49.3969 142.38 49.3969H138.521C138.17 49.3531 137.863 49.0904 137.819 48.7839V38.0123C137.819 35.8229 138.082 32.6703 135.407 32.6703C134.486 32.6703 133.609 33.2833 133.17 34.2466C132.644 35.4726 132.556 36.6549 132.556 38.0123V48.6963C132.512 49.0904 132.161 49.3969 131.766 49.3969ZM78.17 27.6348C80.0559 27.6348 82.5121 28.1164 84.0033 29.5614C85.8893 31.3129 85.7138 33.6774 85.7138 36.217V42.2158C85.7138 43.6786 86.2089 44.4728 86.7718 45.2616L86.849 45.3692C86.9523 45.5128 87.0572 45.6572 87.1612 45.8064C87.4243 46.1567 87.4682 46.5945 87.1612 46.8135C86.7743 47.1184 86.2645 47.5461 85.7503 47.9825L85.5131 48.1841C85.0003 48.6205 84.5014 49.0482 84.1349 49.3531C83.8717 49.572 83.5208 49.6158 83.2138 49.4407C81.9419 48.3898 81.6787 47.8644 80.977 46.8573C78.8717 49.0028 77.3366 49.6596 74.6173 49.6596C71.3717 49.6596 68.8279 47.6454 68.8279 43.6608C68.8279 40.5081 70.5384 38.4064 72.9507 37.3555C75.0559 36.4359 77.9945 36.2608 80.2314 35.9981V35.5164C80.2314 34.5969 80.3191 33.5022 79.7489 32.7141C79.2665 32.0135 78.3893 31.707 77.5998 31.707C76.1086 31.707 74.7928 32.4513 74.4857 34.0277C74.398 34.378 74.1787 34.7283 73.8279 34.7283L70.0998 34.3342C69.7928 34.2466 69.4419 34.0277 69.5296 33.546C70.4068 28.9922 74.4857 27.6348 78.17 27.6348ZM79.7735 39.507C76.9664 39.507 74.0279 40.12 74.0279 43.404C74.0279 45.0679 74.905 46.2064 76.3963 46.2064C77.4928 46.2064 78.4577 45.5496 79.0717 44.4549C79.8173 43.0975 79.7735 41.8277 79.7735 40.3389V39.507ZM27.4682 27.6348C29.3542 27.6348 31.8103 28.1164 33.3015 29.5614C35.0908 31.2231 35.0246 33.4365 35.0131 35.8277L35.0124 36.022C35.0122 36.0869 35.0121 36.1519 35.0121 36.217V42.2158C35.0121 43.6786 35.5071 44.4728 36.0701 45.2616L36.1472 45.3692C36.2505 45.5128 36.3555 45.6572 36.4594 45.8064C36.7226 46.1567 36.7664 46.5945 36.4594 46.8135C35.6261 47.4703 34.2226 48.6963 33.4331 49.3531C33.17 49.572 32.8191 49.6158 32.5121 49.4407C31.2401 48.3898 30.977 47.8644 30.2752 46.8573C28.17 49.0028 26.6349 49.6596 23.9156 49.6596C20.67 49.6596 18.1261 47.6454 18.1261 43.6608C18.1261 40.5081 19.8366 38.4064 22.2489 37.3555C24.3542 36.4359 27.2928 36.2608 29.5296 35.9981V35.5164C29.5296 34.5969 29.6173 33.5022 29.0472 32.7141C28.5647 32.0135 27.6875 31.707 26.898 31.707C25.4068 31.707 24.091 32.4513 23.784 34.0277C23.6963 34.378 23.477 34.7283 23.1261 34.7283L19.398 34.3342C19.091 34.2466 18.7401 34.0277 18.8279 33.546C19.705 28.9922 23.784 27.6348 27.4682 27.6348ZM29.5735 39.107C26.7664 39.107 23.8279 39.72 23.8279 43.004C23.8279 44.6679 24.705 45.8064 26.1963 45.8064C27.2928 45.8064 28.2577 45.1496 28.8717 44.0549C29.6173 42.6975 29.5735 41.4277 29.5735 39.9389V39.107Z" fill="black"/>
</g>
</g>
</g>
</svg>
