<svg width="161" height="81" viewBox="0 0 161 81" fill="none" xmlns="http://www.w3.org/2000/svg">
<g id="logo-coinbase.svg">
<g id="Group">
<g id="Group_2">
<path id="Vector" d="M37.1524 35.238C31.8558 35.238 27.7173 39.221 27.7173 44.553C27.7173 49.885 31.7512 53.8338 37.1524 53.8338C42.5535 53.8338 46.6576 49.8168 46.6576 44.5189C46.6576 39.2551 42.6236 35.238 37.1524 35.238ZM37.1881 49.9912C34.1719 49.9912 31.9617 47.6706 31.9617 44.5543C31.9617 41.4025 34.1361 39.0833 37.1524 39.0833C40.2043 39.0833 42.4132 41.4379 42.4132 44.5543C42.4132 47.6706 40.2043 49.9912 37.1881 49.9912ZM47.8143 39.2905H50.4454V53.489H54.6541V35.5841H47.8143V39.2905ZM17.1254 39.082C19.3357 39.082 21.0893 40.4324 21.755 42.4409H26.2098C25.4025 38.1472 21.8251 35.238 17.1612 35.238C11.8646 35.238 7.72607 39.221 7.72607 44.5543C7.72607 49.8876 11.76 53.8352 17.1612 53.8352C21.7206 53.8352 25.3681 50.926 26.1754 46.5969H21.755C21.1237 48.6054 19.3701 49.9912 17.1599 49.9912C14.1079 49.9912 11.9692 47.6706 11.9692 44.5543C11.9705 41.4025 14.0748 39.082 17.1254 39.082ZM127.782 42.8224L124.695 42.3727C123.222 42.1656 122.17 41.6805 122.17 40.5373C122.17 39.2905 123.539 38.6677 125.397 38.6677C127.431 38.6677 128.729 39.533 129.01 40.9529H133.078C132.622 37.3514 129.816 35.2393 125.503 35.2393C121.048 35.2393 118.102 37.4904 118.102 40.6762C118.102 43.7231 120.031 45.4904 123.924 46.0436L127.01 46.4933C128.519 46.7005 129.361 47.2904 129.361 48.3983C129.361 49.8181 127.888 50.4068 125.853 50.4068C123.363 50.4068 121.96 49.4025 121.749 47.8791H117.611C117.997 51.3769 120.767 53.8352 125.818 53.8352C130.413 53.8352 133.463 51.7572 133.463 48.1898C133.463 45.004 131.255 43.3416 127.782 42.8224ZM52.5497 28.2082C51.0066 28.2082 49.8485 29.316 49.8485 30.8395C49.8485 32.3629 51.0052 33.4707 52.5497 33.4707C54.0929 33.4707 55.251 32.3629 55.251 30.8395C55.251 29.316 54.0929 28.2082 52.5497 28.2082ZM114.314 41.7146C114.314 37.8365 111.929 35.2393 106.879 35.2393C102.109 35.2393 99.4433 37.6294 98.9166 41.3003H103.091C103.301 39.8804 104.424 38.7031 106.809 38.7031C108.949 38.7031 110.001 39.6379 110.001 40.7811C110.001 42.2705 108.071 42.6507 105.686 42.8932C102.46 43.2393 98.4613 44.3471 98.4613 48.5031C98.4613 51.7244 100.882 53.8011 104.74 53.8011C107.756 53.8011 109.65 52.5543 110.598 50.5798C110.738 52.3458 112.071 53.489 113.93 53.489H116.385V49.784H114.315V41.7146H114.314ZM110.175 46.2167C110.175 48.6067 108.071 50.3727 105.51 50.3727C103.931 50.3727 102.599 49.7146 102.599 48.3301C102.599 46.5641 104.739 46.079 106.703 45.8719C108.597 45.6988 109.649 45.2832 110.175 44.4861V46.2167ZM87.8338 35.238C85.4833 35.238 83.5192 36.2082 82.1163 37.8352V28.0352H77.9076V53.489H82.0462V51.1344C83.4491 52.8309 85.4488 53.8352 87.8338 53.8352C92.8842 53.8352 96.7077 49.8876 96.7077 44.5543C96.7077 39.221 92.814 35.238 87.8338 35.238ZM87.2025 49.9912C84.1862 49.9912 81.976 47.6706 81.976 44.5543C81.976 41.4379 84.2206 39.0833 87.2369 39.0833C90.2888 39.0833 92.4276 41.4039 92.4276 44.5543C92.4276 47.6706 90.2187 49.9912 87.2025 49.9912ZM67.8412 35.238C65.1056 35.238 63.3163 36.3459 62.2641 37.9047V35.5841H58.0898V53.4877H62.2985V43.7572C62.2985 41.021 64.0521 39.082 66.6475 39.082C69.0681 39.082 70.5756 40.7785 70.5756 43.238V53.489H74.7842V42.9273C74.7856 38.4239 72.4364 35.238 67.8412 35.238ZM153.526 43.9656C153.526 38.8408 149.738 35.2393 144.652 35.2393C139.251 35.2393 135.287 39.2564 135.287 44.5543C135.287 50.1301 139.532 53.8352 144.722 53.8352C149.107 53.8352 152.544 51.2721 153.42 47.6365H149.036C148.404 49.2295 146.861 50.1301 144.791 50.1301C142.09 50.1301 140.056 48.4677 139.6 45.5585H153.525V43.9656H153.526ZM139.847 42.5799C140.514 40.0863 142.408 38.8749 144.582 38.8749C146.967 38.8749 148.791 40.2252 149.212 42.5799H139.847Z" fill="#0052FF"/>
</g>
</g>
</g>
</svg>
