<svg width="161" height="81" viewBox="0 0 161 81" fill="none" xmlns="http://www.w3.org/2000/svg">
<g id="logo-google.svg">
<g id="Group">
<g id="Group_2">
<path id="Vector" d="M33.7073 20.4346H34.8179C38.6736 20.5183 42.4663 22.0671 45.1904 24.8088C44.1846 25.8344 43.1578 26.8181 42.173 27.8436C40.6433 26.4623 38.7993 25.3949 36.7876 25.0181C33.8121 24.3902 30.606 24.9553 28.1124 26.6506C25.3884 28.4296 23.5443 31.4435 23.1462 34.6666C22.7062 37.8479 23.6072 41.1966 25.6817 43.6663C27.6724 46.0732 30.7108 47.5801 33.854 47.6848C36.7876 47.8522 39.847 46.9523 41.9844 44.9012C43.6607 43.457 44.4361 41.2594 44.6875 39.1246C41.2091 39.1246 37.7306 39.1455 34.2521 39.1246V34.8131H48.8994C49.6537 39.4386 48.5641 44.65 45.0437 47.9569C42.6968 50.301 39.4489 51.6823 36.138 51.9544C32.932 52.2683 29.6212 51.6614 26.7714 50.1126C23.3558 48.2917 20.6317 45.2151 19.2906 41.5943C18.0333 38.2665 18.0123 34.4992 19.1858 31.1505C20.2545 28.0948 22.308 25.3949 24.9483 23.5112C27.4838 21.6485 30.5641 20.6229 33.7073 20.4346Z" fill="#3780FF"/>
<path id="Vector_2" d="M117.726 21.6348H122.326V51.6295C120.8 51.6295 119.252 51.6505 117.726 51.6085C117.748 41.6313 117.726 31.633 117.726 21.6348Z" fill="#38B137"/>
<path id="Vector_3" d="M58.9383 32.0212C61.7024 31.4964 64.6969 32.0841 66.9795 33.7424C69.0526 35.2117 70.4975 37.5207 70.9372 40.0396C71.5026 42.9573 70.7906 46.1478 68.906 48.4568C66.8748 51.0387 63.5452 52.424 60.2994 52.2141C57.3258 52.0462 54.436 50.5559 52.677 48.121C50.6877 45.4342 50.206 41.7398 51.295 38.5912C52.3839 35.2117 55.4621 32.6299 58.9383 32.0212ZM59.5665 36.0094C58.4357 36.3032 57.3887 36.954 56.6348 37.8775C54.6036 40.3125 54.7292 44.2797 56.9699 46.5467C58.2472 47.8481 60.1738 48.4568 61.9537 48.1C63.608 47.8061 65.0529 46.6936 65.8487 45.2243C67.2307 42.7264 66.8329 39.2839 64.7179 37.3318C63.3567 36.0724 61.3674 35.5476 59.5665 36.0094Z" fill="#FA3913"/>
<path id="Vector_4" d="M81.1377 32.0228C84.3021 31.4138 87.7599 32.2958 90.128 34.5217C93.9839 37.9867 94.403 44.4755 91.1129 48.4654C89.122 50.9854 85.8948 52.3713 82.7095 52.2243C79.6708 52.1403 76.6741 50.6284 74.8718 48.1294C72.8391 45.3785 72.399 41.5986 73.5516 38.3856C74.7042 35.1097 77.7219 32.6108 81.1377 32.0228ZM81.7664 36.0127C80.6348 36.3067 79.587 36.9577 78.8326 37.8607C76.8208 40.2546 76.9046 44.1605 79.0631 46.4495C80.3414 47.8144 82.3322 48.4864 84.1764 48.1084C85.811 47.7934 87.2779 46.7015 88.0742 45.2315C89.4364 42.7116 89.0382 39.2676 86.9007 37.3147C85.5385 36.0547 83.5477 35.5507 81.7664 36.0127Z" fill="#FCBD06"/>
<path id="Vector_5" d="M99.8584 33.2435C102.278 31.7293 105.498 31.3087 108.108 32.6126C108.928 32.9701 109.602 33.58 110.254 34.1899C110.275 33.6221 110.254 33.0332 110.275 32.4443C111.685 32.4654 113.095 32.4443 114.526 32.4654V51.0149C114.505 53.8121 113.789 56.7775 111.769 58.8175C109.56 61.0679 106.172 61.7619 103.12 61.2992C99.8585 60.8155 97.0175 58.4389 95.7549 55.4315C97.0175 54.8216 98.3433 54.3379 99.648 53.77C100.385 55.4946 101.879 56.9668 103.752 57.3033C105.624 57.6398 107.792 57.1771 109.013 55.6208C110.317 54.0224 110.317 51.8351 110.254 49.8792C109.286 50.8256 108.171 51.6669 106.824 51.9824C103.899 52.8026 100.679 51.7931 98.4275 49.8161C96.1547 47.8392 94.8079 44.7897 94.9342 41.7612C94.9973 38.3331 96.9333 35.0312 99.8584 33.2435ZM104.215 35.9355C102.931 36.1458 101.731 36.8609 100.911 37.8494C98.9325 40.2049 98.9325 43.9695 100.932 46.2829C102.068 47.6499 103.899 48.4071 105.667 48.2178C107.329 48.0495 108.865 46.998 109.686 45.5468C111.075 43.0862 110.843 39.7422 108.97 37.597C107.813 36.272 105.961 35.6201 104.215 35.9355Z" fill="#3780FF"/>
<path id="Vector_6" d="M127.705 34.3239C130.221 31.9735 134.1 31.176 137.329 32.4142C140.391 33.5684 142.341 36.4855 143.326 39.4866C138.776 41.3754 134.247 43.2432 129.697 45.132C130.326 46.3282 131.291 47.4195 132.591 47.8602C134.415 48.5108 136.595 48.2799 138.126 47.0627C138.734 46.601 139.216 45.9924 139.678 45.4048C140.831 46.1813 141.984 46.9368 143.137 47.7133C141.502 50.1687 138.755 51.8896 135.799 52.1624C132.528 52.5611 129.047 51.302 126.929 48.7416C123.449 44.7122 123.784 37.9546 127.705 34.3239ZM129.949 38.2064C129.236 39.2348 128.942 40.494 128.963 41.7322C132.003 40.473 135.044 39.2138 138.084 37.9336C137.581 36.7584 136.365 36.0448 135.128 35.856C133.136 35.4992 131.06 36.5695 129.949 38.2064Z" fill="#FA3913"/>
</g>
</g>
</g>
</svg>
