<svg width="161" height="81" viewBox="0 0 161 81" fill="none" xmlns="http://www.w3.org/2000/svg">
<g id="logo-netflix.svg">
<g id="Group">
<g id="Group_2">
<path id="Vector" d="M143.237 39.8277L150.726 59.635C148.519 59.3201 146.313 58.9256 144.067 58.5703L139.848 47.626L135.513 57.6668C133.385 57.3115 131.295 57.1931 129.167 56.9172L136.774 39.5922L129.875 21.835H136.261L140.123 31.7562L144.262 21.835H150.725L143.237 39.8277ZM124.832 21.835H119.038V56.17C120.93 56.2885 122.9 56.3665 124.832 56.6021V21.835ZM114.032 55.7757C108.751 55.4215 103.469 55.1079 98.0697 54.9882V21.8351H103.981V49.3974C107.372 49.4756 110.761 49.7504 114.032 49.9078V55.7757ZM91.7622 35.2627V41.1684H83.6826V54.5949H77.8506V21.835H94.4045V27.7406H83.6838V35.2629H91.7634L91.7622 35.2627ZM67.9168 27.7406V54.91C65.9455 54.91 63.9364 54.91 62.0041 54.9882V27.7406H55.8946V21.835H74.064V27.7406H67.9168ZM49.5101 41.4822C46.9093 41.4822 43.8343 41.4822 41.6271 41.6019V50.3815C45.0956 50.1446 48.564 49.8699 52.0715 49.7516V55.4215L35.7156 56.7219V21.835H52.0704V27.7406H41.627V35.6949C43.9137 35.6949 47.4212 35.5766 49.5098 35.5766V41.4834L49.5101 41.4822ZM16.755 38.1746V58.8071C14.6285 59.044 12.7353 59.3199 10.7261 59.635V21.835H16.3627L24.0478 43.2954V21.835H29.9605V57.1931C27.8718 57.5485 25.7429 57.6668 23.4965 57.9807L16.755 38.1746Z" fill="#E50914"/>
</g>
</g>
</g>
</svg>
