<svg width="161" height="81" viewBox="0 0 161 81" fill="none" xmlns="http://www.w3.org/2000/svg">
<g id="logo-pinterest.svg">
<g id="Group">
<g id="Group_2">
<path id="Vector" d="M46.224 36.1148C47.6086 36.1148 48.9369 34.9722 49.168 33.5626C49.4411 32.1905 48.5026 31.0479 47.119 31.0479C45.7351 31.0479 44.4065 32.1905 44.1719 33.5626C43.9019 34.9722 44.8019 36.1148 46.224 36.1148ZM140.181 40.193H143.279C143.703 40.193 143.952 40.0221 144.047 39.6296C144.195 39.0215 144.348 38.4144 144.505 37.8084C144.596 37.455 144.389 37.1872 143.993 37.1872H140.937C141.157 36.3189 142.014 33.5001 142.014 31.6624C142.014 27.9923 138.87 24.8705 134.409 24.8705C129.371 24.8705 126.094 28.2219 126.094 32.9379C126.094 34.3134 126.612 35.9168 127.253 36.9114C126.977 36.8957 126.701 36.888 126.424 36.8881C122.596 36.8881 120.185 38.9465 120.185 41.9417C120.185 44.7528 122.42 45.8452 124.525 46.5721C126.394 47.2181 128.116 47.5186 128.116 48.9664C128.116 49.9426 127.169 50.5154 125.315 50.5154C123.115 50.5154 121.906 49.4886 121.599 49.0991C121.807 48.9368 122.117 48.5503 122.117 47.9064C122.117 47.0057 121.479 46.2706 120.294 46.2706C119.291 46.2706 118.443 47.0815 118.23 48.1481C116.619 49.4545 114.861 50.3011 112.367 50.3011C109.912 50.3011 108.638 49.0352 108.638 46.3415C109.213 46.5152 110.712 46.7238 111.703 46.7238C115.86 46.7238 118.693 44.8514 118.693 41.1017C118.693 39.0853 116.908 36.9677 113.375 36.9677H113.367C108.72 36.9677 106.118 39.8854 104.981 43.0945C104.663 43.0184 104.344 42.9447 104.024 42.8732C104.278 42.1614 104.461 41.3364 104.461 40.4219C104.461 38.8369 103.471 36.9677 100.821 36.9677C98.9753 36.9677 97.2246 38.1661 96.0111 39.9621C96.3131 38.7905 96.5132 38.0103 96.5262 37.958C96.6053 37.6516 96.4766 37.3103 95.9945 37.3103H93.2749C92.8874 37.3103 92.6139 37.446 92.5037 37.8835C92.4297 38.1752 91.4954 41.8094 90.5857 45.3481C90.0127 47.5545 87.0488 50.3011 83.3234 50.3011C80.8677 50.3011 79.5943 48.9519 79.5943 46.2571C80.2369 46.5107 81.6686 46.7236 82.6588 46.7236C86.9853 46.7236 89.6497 44.8512 89.6497 41.1015C89.6497 39.0851 87.8641 36.9675 84.3309 36.9675H84.3233C79.091 36.9675 75.8858 40.9959 75.3428 45.5635C75.1168 47.4622 73.5002 50.0696 71.7476 50.0696C70.8937 50.0696 70.4176 49.538 70.4176 48.6354C70.4176 47.856 70.9711 45.9501 71.5779 43.5616C71.7811 42.7626 72.0896 41.5436 72.4317 40.193H75.2762C75.6997 40.193 75.948 40.0221 76.0442 39.6296C76.1803 39.0643 76.4302 38.0781 76.501 37.8084C76.5927 37.455 76.3863 37.1872 75.9898 37.1872H73.1927C73.1927 37.1872 74.4805 32.0938 74.5112 31.9629C74.6351 31.445 74.1979 31.1461 73.7405 31.2414C73.7405 31.2414 71.5785 31.661 71.1775 31.7438C70.7745 31.8247 70.4616 32.0441 70.316 32.62L69.171 37.1872H66.9249C66.5015 37.1872 66.2525 37.3585 66.1575 37.7502C66.0083 38.3582 65.8561 38.9654 65.7008 39.5718C65.6079 39.9252 65.8153 40.193 66.2113 40.193H68.4139C68.3982 40.2555 67.6183 43.1964 66.9875 45.8301C66.6905 47.0966 65.696 50.0602 64.0674 50.0602C63.0945 50.0602 62.6834 49.5737 62.6834 48.5303C62.6834 46.8871 64.3152 42.7738 64.3152 40.9073C64.3152 38.4141 62.9658 36.9696 60.2014 36.9696C58.4589 36.9696 56.6521 38.0848 55.8864 39.0637C55.8864 39.0637 56.1187 38.2624 56.1982 37.9544C56.283 37.6289 56.1069 37.3093 55.6759 37.3093H52.9731C52.3978 37.3093 52.2389 37.614 52.1544 37.9493C52.1206 38.0838 51.1467 41.8748 50.2117 45.5141C49.5723 48.0061 48.0184 50.0883 46.357 50.0883C45.5028 50.0883 45.1224 49.5569 45.1224 48.6544C45.1224 47.8746 45.6306 45.9503 46.2372 43.562C46.9751 40.6544 47.6261 38.26 47.6957 37.9803C47.7865 37.6218 47.6248 37.3095 47.1588 37.3095H44.4397C43.947 37.3095 43.7712 37.5657 43.6674 37.9217C43.6674 37.9217 42.9021 40.7934 42.0917 43.9903C41.5031 46.3104 40.8531 48.6736 40.8531 49.784C40.8531 51.7654 41.7506 53.2589 44.2181 53.2589C46.1224 53.2589 47.6296 52.3017 48.7804 51.0819C48.6113 51.7421 48.5034 52.16 48.4925 52.2027C48.3932 52.5801 48.5135 52.9137 48.962 52.9137H51.7446C52.229 52.9137 52.4151 52.7206 52.5163 52.3019C52.6137 51.9024 54.6919 43.7996 54.6919 43.7996C55.2411 41.623 56.5998 40.1818 58.5112 40.1818C59.4175 40.1818 60.202 40.7767 60.1112 41.9327C60.0103 43.2046 58.463 47.7735 58.463 49.7789C58.463 51.2967 59.0308 53.2603 61.9132 53.2603C63.8779 53.2603 65.3243 52.3266 66.3761 51.1215C66.7612 52.4005 67.7814 53.2603 69.6529 53.2603C72.7631 53.2603 74.6378 51.4318 75.7392 49.5951C76.6532 51.7291 78.7938 53.2593 81.9329 53.2593C85.1322 53.2593 87.6081 51.9224 89.3628 50.1049L88.8156 52.2325C88.7161 52.6157 88.8844 52.917 89.3383 52.917H92.0922C92.4693 52.917 92.7376 52.7269 92.8354 52.3343C92.8839 52.1416 93.2817 50.6173 93.8438 48.4513C94.9186 44.3065 96.6461 40.0064 99.2418 40.0064C100.157 40.0064 100.533 40.5137 100.533 41.313C100.533 41.6898 100.422 42.0154 100.327 42.19C99.0688 41.9421 98.0566 42.5578 98.0566 43.8895C98.0566 44.7571 98.9776 45.5457 100.221 45.5457C101.171 45.5457 101.956 45.3148 102.582 44.8969C103.199 45.023 103.814 45.1555 104.427 45.2946C104.333 45.8956 104.285 46.5028 104.283 47.1111C104.283 50.4378 106.679 53.2591 110.975 53.2591C114.341 53.2591 116.65 52.0385 118.644 50.4738C119.603 52.0283 122.023 53.2846 125.198 53.2846C129.55 53.2846 132.018 51.0417 132.018 48.0769C132.018 45.3934 129.795 44.4058 127.504 43.5835C125.641 42.9163 124.087 42.5535 124.087 41.2484C124.087 40.1787 124.936 39.6894 126.392 39.6894C127.337 39.6894 128.046 39.8911 128.425 39.9964C128.801 40.9283 129.578 41.9603 130.905 41.9603C132.028 41.9603 132.532 41.08 132.532 40.2694C132.532 37.9617 128.654 37.7198 128.654 32.7707C128.654 29.6932 130.411 27.1545 134.049 27.1545C136.577 27.1545 138.228 28.7435 138.228 31.3082C138.228 33.4227 136.934 37.187 136.934 37.187H134.735C134.312 37.187 134.063 37.3582 133.967 37.75C133.818 38.3581 133.666 38.9653 133.51 39.5716C133.417 39.925 133.625 40.1928 134.021 40.1928H136.168C136.168 40.1928 133.948 48.3076 133.948 49.7833C133.948 51.7648 135.075 53.2579 137.543 53.2579C141.035 53.2579 143.217 51.0088 144.165 47.7384C144.239 47.4855 144.094 47.2795 143.836 47.2795H142.504C142.238 47.2795 142.084 47.4298 142.017 47.6874C141.716 48.8484 140.97 50.0698 139.502 50.0698C138.648 50.0698 138.172 49.5382 138.172 48.6358C138.172 47.8562 138.692 46.031 139.333 43.562C139.638 42.3863 140.181 40.193 140.181 40.193ZM112.652 40.0544C113.886 40.0544 114.473 40.8685 114.473 41.8388C114.473 43.48 113.189 44.4807 111.18 44.4807C110.462 44.4807 109.457 44.3118 108.863 44.1159C109.113 42.6066 110.215 40.0544 112.652 40.0544ZM83.608 40.0544C84.9594 40.0544 85.4286 40.8685 85.4286 41.8388C85.4286 43.48 84.1451 44.4807 82.1369 44.4807C81.418 44.4807 80.4132 44.3118 79.82 44.1159C80.068 42.6066 81.0452 40.0544 83.608 40.0544ZM30.1781 24.835C21.3681 24.835 16.926 31.0961 16.926 36.3173C16.926 39.4787 18.1335 42.2912 20.7233 43.3391C21.1479 43.5114 21.5283 43.345 21.6515 42.879C21.7371 42.5564 21.9398 41.7429 22.0302 41.4038C22.1546 40.9428 22.1062 40.7812 21.7635 40.3794C21.0167 39.5063 20.5396 38.3759 20.5396 36.7748C20.5396 32.1297 24.0456 27.9712 29.6692 27.9712C34.649 27.9712 37.3846 30.9873 37.3846 35.0153C37.3846 40.3151 35.0186 44.7881 31.5058 44.7881C29.566 44.7881 28.1139 43.1978 28.5793 41.2474C29.1366 38.9189 30.2162 36.4059 30.2162 34.7252C30.2162 33.2206 29.4014 31.9658 27.7154 31.9658C25.7323 31.9658 24.1393 33.9992 24.1393 36.7234C24.1393 38.4584 24.7308 39.6318 24.7308 39.6318C24.7308 39.6318 22.7014 48.1551 22.3457 49.6478C21.6373 52.6206 22.239 56.2648 22.2899 56.6328C22.32 56.8509 22.6027 56.9027 22.7308 56.7382C22.9137 56.5016 25.2753 53.6113 26.0785 50.723C26.3057 49.9052 27.3828 45.6708 27.3828 45.6708C28.027 46.889 29.9099 47.962 31.9123 47.962C37.8731 47.962 41.9174 42.5752 41.9174 35.3648C41.9174 29.9127 37.2587 24.835 30.1781 24.835Z" fill="#CB2027"/>
</g>
</g>
</g>
</svg>
