<svg width="161" height="81" viewBox="0 0 161 81" fill="none" xmlns="http://www.w3.org/2000/svg">
<g id="logo-spotify.svg">
<g id="Group">
<g id="Group_2">
<path id="Vector" d="M29.3493 36.5596C24.3118 35.3576 23.415 34.514 23.415 32.7413C23.415 31.0665 24.9908 29.9395 27.3341 29.9395C29.6057 29.9395 31.8581 30.7953 34.2195 32.5572C34.2909 32.6105 34.3805 32.6318 34.4686 32.6179C34.5568 32.6046 34.6348 32.5561 34.6864 32.4833L37.1461 29.0139C37.2471 28.8709 37.2196 28.674 37.0834 28.5649C34.2729 26.3083 31.108 25.2112 27.4087 25.2112C21.9695 25.2112 18.1702 28.4774 18.1702 33.1505C18.1702 38.1619 21.4476 39.9363 27.1112 41.306C31.9316 42.417 32.7452 43.3479 32.7452 45.0118C32.7452 46.8556 31.1 48.0019 28.4525 48.0019C25.512 48.0019 23.1137 47.0108 20.4306 44.6858C20.3641 44.6283 20.2728 44.6022 20.1885 44.6071C20.0996 44.6144 20.0185 44.6555 19.962 44.7235L17.2041 48.0078C17.0884 48.1441 17.1031 48.3477 17.2369 48.4655C20.3585 51.2541 24.1979 52.727 28.341 52.727C34.2021 52.727 37.9896 49.5225 37.9896 44.5628C38 40.3759 35.4951 38.0576 29.3598 36.5642L29.3493 36.5596ZM51.2496 31.5884C48.7091 31.5884 46.6253 32.5896 44.907 34.6412V32.332C44.907 32.1497 44.7593 32.0012 44.5774 32.0012H40.0667C39.8845 32.0012 39.7371 32.1497 39.7371 32.332V57.9907C39.7371 58.173 39.8845 58.3215 40.0667 58.3215H44.5774C44.7593 58.3215 44.907 58.173 44.907 57.9907V49.8913C46.6257 51.8213 48.7098 52.7643 51.2496 52.7643C55.9701 52.7643 60.7487 49.1282 60.7487 42.1776C60.7557 35.2251 55.9757 31.5881 51.2549 31.5881L51.2496 31.5884ZM55.5036 42.1776C55.5036 45.7171 53.3247 48.187 50.2048 48.187C47.1204 48.187 44.7938 45.6048 44.7938 42.1776C44.7938 38.7507 47.1204 36.1682 50.2048 36.1682C53.2742 36.1678 55.5039 38.6946 55.5039 42.1772L55.5036 42.1776ZM72.9967 31.5884C66.9175 31.5884 62.1549 36.2724 62.1549 42.2532C62.1549 48.1688 66.8847 52.8037 72.9221 52.8037C79.0229 52.8037 83.8002 48.1354 83.8002 42.1775C83.8002 36.2403 79.055 31.5891 72.9963 31.5891L72.9967 31.5884ZM72.9967 48.2222C69.7632 48.2222 67.3254 45.6225 67.3254 42.1758C67.3254 38.7144 69.6789 36.2026 72.9221 36.2026C76.1765 36.2026 78.6306 38.8022 78.6306 42.2514C78.6306 45.7122 76.2615 48.2222 72.997 48.2222H72.9967ZM96.7819 32.0012H91.8182V26.9232C91.8182 26.7413 91.6712 26.5928 91.489 26.5928H86.979C86.7964 26.5928 86.6483 26.7413 86.6483 26.9232V32.0012H84.4795C84.298 32.0012 84.151 32.1497 84.151 32.332V36.211C84.151 36.393 84.298 36.5418 84.4795 36.5418H86.6483V46.5788C86.6483 50.6349 88.6659 52.6914 92.645 52.6914C94.263 52.6914 95.6053 52.3571 96.8704 51.6393C96.9731 51.5818 97.0369 51.4709 97.0369 51.3531V47.6592C97.0369 47.5452 96.9776 47.4375 96.8801 47.3779C96.7819 47.3161 96.6596 47.313 96.5589 47.3629C95.6899 47.8004 94.85 48.0022 93.911 48.0022C92.4638 48.0022 91.8182 47.3447 91.8182 45.8711V36.5436H96.7819C96.9641 36.5436 97.1107 36.3951 97.1107 36.2128V32.3341C97.1177 32.1518 96.9714 32.0033 96.7867 32.0033L96.7819 32.0012ZM114.076 32.021V31.3973C114.076 29.5626 114.779 28.7444 116.356 28.7444C117.297 28.7444 118.052 28.9312 118.898 29.2136C119.002 29.2464 119.111 29.23 119.195 29.1676C119.283 29.1052 119.332 29.0052 119.332 28.8992V25.0958C119.332 24.9504 119.238 24.8218 119.098 24.7789C118.205 24.5129 117.061 24.2399 115.349 24.2399C111.183 24.2399 108.981 26.5875 108.981 31.0264V31.9816H106.814C106.632 31.9816 106.483 32.1301 106.483 32.3121V36.211C106.483 36.393 106.632 36.5418 106.814 36.5418H108.981V52.0234C108.981 52.2057 109.128 52.3543 109.31 52.3543H113.82C114.003 52.3543 114.151 52.2057 114.151 52.0234V36.5429H118.362L124.814 52.0207C124.081 53.647 123.361 53.9705 122.378 53.9705C121.583 53.9705 120.746 53.7331 119.891 53.2645C119.81 53.2202 119.715 53.2129 119.628 53.2398C119.542 53.2701 119.47 53.3342 119.433 53.4179L117.904 56.774C117.831 56.9326 117.894 57.1188 118.046 57.2011C119.642 58.066 121.083 58.4352 122.864 58.4352C126.194 58.4352 128.035 56.8828 129.658 52.7064L137.484 32.4728C137.523 32.371 137.511 32.256 137.449 32.1657C137.387 32.0761 137.287 32.0221 137.177 32.0221H132.482C132.341 32.0221 132.215 32.1117 132.169 32.2438L127.359 45.9924L122.09 32.2347C122.042 32.1068 121.919 32.022 121.782 32.022H114.075L114.076 32.021ZM104.049 32.0012H99.5387C99.3565 32.0012 99.2081 32.1497 99.2081 32.332V52.0235C99.2081 52.2058 99.3565 52.3543 99.5387 52.3543H104.049C104.231 52.3543 104.38 52.2058 104.38 52.0235V32.3334C104.38 32.2455 104.345 32.1612 104.283 32.0991C104.221 32.037 104.137 32.0022 104.049 32.0025L104.049 32.0012ZM101.82 23.0352C100.033 23.0352 98.5827 24.4826 98.5827 26.2706C98.5827 28.0597 100.033 29.5089 101.82 29.5089C103.606 29.5089 105.055 28.0597 105.055 26.2706C105.055 24.4829 103.605 23.0352 101.821 23.0352H101.82ZM141.335 38.3323C139.55 38.3323 138.161 36.8978 138.161 35.1558C138.161 33.4137 139.568 31.9628 141.352 31.9628C143.137 31.9628 144.526 33.397 144.526 35.1376C144.526 36.8797 143.119 38.3323 141.335 38.3323H141.335ZM141.353 32.2786C139.727 32.2786 138.496 33.572 138.496 35.1558C138.496 36.7388 139.718 38.0148 141.336 38.0148C142.962 38.0148 144.193 36.7225 144.193 35.1376C144.193 33.5546 142.97 32.2786 141.354 32.2786H141.353ZM142.056 35.4643L142.954 36.7221H142.197L141.389 35.5682H140.694V36.7221H140.06V33.3879H141.546C142.32 33.3879 142.829 33.7843 142.829 34.4516C142.833 34.9982 142.516 35.3322 142.059 35.4643L142.056 35.4643ZM141.52 33.96H140.693V35.0146H141.52C141.932 35.0146 142.179 34.8127 142.179 34.4868C142.179 34.1438 141.931 33.96 141.52 33.96L141.52 33.96Z" fill="#2EBD59"/>
</g>
</g>
</g>
</svg>
